<svg width="15" height="15" viewBox="0 0 15 15" fill="none" xmlns="http://www.w3.org/2000/svg">
<path d="M13.2812 7.49969H5.55938M2.83375 7.49969H1.71875M2.83375 7.49969C2.83375 7.13833 2.9773 6.79177 3.23282 6.53625C3.48834 6.28074 3.83489 6.13719 4.19625 6.13719C4.55761 6.13719 4.90416 6.28074 5.15968 6.53625C5.4152 6.79177 5.55875 7.13833 5.55875 7.49969C5.55875 7.86104 5.4152 8.2076 5.15968 8.46312C4.90416 8.71864 4.55761 8.86219 4.19625 8.86219C3.83489 8.86219 3.48834 8.71864 3.23282 8.46312C2.9773 8.2076 2.83375 7.86104 2.83375 7.49969ZM13.2812 11.6291H9.68875M9.68875 11.6291C9.68875 11.9905 9.54486 12.3375 9.28928 12.593C9.0337 12.8486 8.68707 12.9922 8.32563 12.9922C7.96427 12.9922 7.61771 12.848 7.36219 12.5925C7.10667 12.337 6.96312 11.9904 6.96312 11.6291M9.68875 11.6291C9.68875 11.2676 9.54486 10.9213 9.28928 10.6657C9.0337 10.4101 8.68707 10.2666 8.32563 10.2666C7.96427 10.2666 7.61771 10.4101 7.36219 10.6656C7.10667 10.9211 6.96312 11.2677 6.96312 11.6291M6.96312 11.6291H1.71875M13.2812 3.37031H11.3406M8.615 3.37031H1.71875M8.615 3.37031C8.615 3.00896 8.75855 2.6624 9.01407 2.40688C9.26959 2.15136 9.61614 2.00781 9.9775 2.00781C10.1564 2.00781 10.3336 2.04305 10.4989 2.11153C10.6642 2.18 10.8144 2.28036 10.9409 2.40688C11.0675 2.5334 11.1678 2.6836 11.2363 2.84891C11.3048 3.01421 11.34 3.19139 11.34 3.37031C11.34 3.54924 11.3048 3.72641 11.2363 3.89172C11.1678 4.05702 11.0675 4.20723 10.9409 4.33375C10.8144 4.46027 10.6642 4.56063 10.4989 4.6291C10.3336 4.69757 10.1564 4.73281 9.9775 4.73281C9.61614 4.73281 9.26959 4.58926 9.01407 4.33375C8.75855 4.07823 8.615 3.73167 8.615 3.37031Z" stroke="black" stroke-opacity="0.6" stroke-width="1.5" stroke-miterlimit="10" stroke-linecap="round"/>
</svg>
