<svg xmlns="http://www.w3.org/2000/svg" xmlns:xlink="http://www.w3.org/1999/xlink" width="1080" zoomAndPan="magnify" viewBox="0 0 810 809.999993" height="1080" preserveAspectRatio="xMidYMid meet" version="1.0"><defs><clipPath id="4febe8b9e1"><path d="M 173 47.265625 L 622 47.265625 L 622 711 L 173 711 Z M 173 47.265625 " clip-rule="nonzero"/></clipPath><clipPath id="c7cb9d4e54"><path d="M 173 47.265625 L 285 47.265625 L 285 159 L 173 159 Z M 173 47.265625 " clip-rule="nonzero"/></clipPath><clipPath id="b32b160761"><path d="M 173 47.265625 L 285 47.265625 L 285 159 L 173 159 Z M 173 47.265625 " clip-rule="nonzero"/></clipPath><clipPath id="de9adec20b"><path d="M 41.585938 766.789062 L 201.210938 766.789062 L 201.210938 773.917969 L 41.585938 773.917969 Z M 41.585938 766.789062 " clip-rule="nonzero"/></clipPath><clipPath id="deb4d0821b"><path d="M 694 341 L 770.816406 341 L 770.816406 503.898438 L 694 503.898438 Z M 694 341 " clip-rule="nonzero"/></clipPath></defs><path fill="#5cbec6" d="M 672.464844 707.375 C 672.464844 713.089844 545.492188 717.722656 388.859375 717.722656 C 232.222656 717.722656 105.25 713.089844 105.25 707.375 C 105.25 701.660156 232.222656 697.023438 388.859375 697.023438 C 545.492188 697.023438 672.464844 701.660156 672.464844 707.375 " fill-opacity="1" fill-rule="nonzero"/><g clip-path="url(#4febe8b9e1)"><path fill="#ffd45c" d="M 284.242188 47.441406 L 248.125 69.464844 L 183.691406 136.179688 L 173.269531 158.453125 L 173.269531 710.527344 L 621.164062 710.527344 L 621.164062 47.441406 L 284.242188 47.441406 " fill-opacity="1" fill-rule="nonzero"/></g><path fill="#f4b442" d="M 534.910156 586.175781 L 457.769531 586.175781 L 457.769531 572.445312 L 534.910156 572.445312 L 534.910156 586.175781 " fill-opacity="1" fill-rule="nonzero"/><path fill="#ffffff" d="M 237.546875 223.378906 L 241.289062 223.378906 C 246.105469 223.378906 247.992188 221.308594 247.992188 216.804688 C 247.992188 212.960938 246.15625 210.738281 242.074219 210.738281 L 237.546875 210.738281 Z M 237.546875 229.839844 L 237.546875 248.847656 L 229.613281 248.847656 L 229.613281 204.277344 L 243.257812 204.277344 C 251.355469 204.277344 255.949219 208.5 255.949219 216.453125 C 255.949219 222.898438 252.496094 225.683594 250.171875 226.605469 C 253.621094 228.21875 255.253906 231.152344 255.253906 237.734375 L 255.253906 239.511719 C 255.253906 244.582031 255.496094 246.46875 255.855469 248.847656 L 248.136719 248.847656 C 247.488281 246.808594 247.371094 243.277344 247.371094 239.4375 L 247.371094 237.816406 C 247.371094 231.859375 246.003906 229.839844 240.96875 229.839844 L 237.546875 229.839844 " fill-opacity="1" fill-rule="nonzero"/><path fill="#ffffff" d="M 284.171875 229.035156 L 269.871094 229.035156 L 269.871094 241.980469 L 285.925781 241.980469 L 284.941406 248.847656 L 261.996094 248.847656 L 261.996094 204.277344 L 284.84375 204.277344 L 284.84375 211.261719 L 269.871094 211.261719 L 269.871094 222.113281 L 284.171875 222.113281 L 284.171875 229.035156 " fill-opacity="1" fill-rule="nonzero"/><path fill="#ffffff" d="M 317.679688 248.847656 L 311.597656 248.847656 C 311.410156 247.488281 311.277344 246.488281 311.21875 245.054688 C 309.230469 248.582031 306.132812 249.617188 302.371094 249.617188 C 293.0625 249.617188 289.699219 241.324219 289.699219 226.839844 C 289.699219 210.566406 295.1875 203.570312 304.757812 203.570312 C 316.832031 203.570312 317.496094 213.917969 317.628906 216.5625 L 309.746094 216.5625 C 309.613281 214.765625 309.226562 210.324219 304.515625 210.324219 C 299.378906 210.324219 297.945312 217.171875 297.945312 226.824219 C 297.945312 237.21875 299.164062 242.921875 304.25 242.921875 C 308.480469 242.921875 309.753906 239.679688 309.753906 233.109375 L 309.753906 230.613281 L 303.753906 230.613281 L 303.753906 223.800781 L 317.679688 223.800781 C 317.679688 223.800781 317.679688 248.847656 317.679688 248.847656 " fill-opacity="1" fill-rule="nonzero"/><path fill="#ffffff" d="M 332.597656 204.277344 L 332.597656 248.847656 L 324.609375 248.847656 L 324.609375 204.277344 L 332.597656 204.277344 " fill-opacity="1" fill-rule="nonzero"/><path fill="#ffffff" d="M 345.777344 236.367188 C 346.164062 240.0625 347.648438 243.324219 351.722656 243.324219 C 355.648438 243.324219 357.105469 240.859375 357.105469 237.542969 C 357.105469 233.882812 355.304688 231.75 349.667969 229.058594 C 342.039062 225.433594 339.054688 222.230469 339.054688 215.609375 C 339.054688 208.457031 343.644531 203.578125 351.703125 203.578125 C 361.726562 203.578125 364.199219 210.359375 364.332031 216.160156 L 356.511719 216.160156 C 356.257812 213.613281 355.597656 209.863281 351.5625 209.863281 C 348.40625 209.863281 346.992188 211.914062 346.992188 214.9375 C 346.992188 218.148438 348.421875 219.648438 353.644531 222.078125 C 361.640625 225.773438 365.226562 229.363281 365.226562 236.820312 C 365.226562 243.820312 360.894531 249.605469 351.480469 249.605469 C 341.238281 249.605469 338.113281 243.046875 337.835938 236.367188 L 345.777344 236.367188 " fill-opacity="1" fill-rule="nonzero"/><path fill="#ffffff" d="M 377.019531 211.261719 L 367.5 211.261719 L 367.5 204.277344 L 394.53125 204.277344 L 394.53125 211.261719 L 385.011719 211.261719 L 385.011719 248.847656 L 377.019531 248.847656 L 377.019531 211.261719 " fill-opacity="1" fill-rule="nonzero"/><path fill="#ffffff" d="M 406.769531 223.378906 L 410.507812 223.378906 C 415.328125 223.378906 417.210938 221.308594 417.210938 216.804688 C 417.210938 212.960938 415.378906 210.738281 411.296875 210.738281 L 406.769531 210.738281 Z M 406.769531 229.839844 L 406.769531 248.847656 L 398.832031 248.847656 L 398.832031 204.277344 L 412.476562 204.277344 C 420.574219 204.277344 425.167969 208.5 425.167969 216.453125 C 425.167969 222.898438 421.71875 225.683594 419.390625 226.605469 C 422.839844 228.21875 424.472656 231.152344 424.472656 237.734375 L 424.472656 239.511719 C 424.472656 244.582031 424.714844 246.46875 425.074219 248.847656 L 417.359375 248.847656 C 416.707031 246.808594 416.589844 243.277344 416.589844 239.4375 L 416.589844 237.816406 C 416.589844 231.859375 415.226562 229.839844 410.1875 229.839844 L 406.769531 229.839844 " fill-opacity="1" fill-rule="nonzero"/><path fill="#ffffff" d="M 447.417969 230.703125 C 445.757812 222.175781 444.425781 215.9375 443.726562 211.679688 L 443.535156 211.679688 C 442.996094 215.785156 441.582031 222.484375 439.941406 230.703125 Z M 438.53125 237.632812 L 436.320312 248.847656 L 428.328125 248.847656 L 438.640625 204.277344 L 449 204.277344 L 459.433594 248.847656 L 451.058594 248.847656 L 448.839844 237.632812 L 438.53125 237.632812 " fill-opacity="1" fill-rule="nonzero"/><path fill="#ffffff" d="M 466.019531 211.261719 L 456.5 211.261719 L 456.5 204.277344 L 483.53125 204.277344 L 483.53125 211.261719 L 474.011719 211.261719 L 474.011719 248.847656 L 466.019531 248.847656 L 466.019531 211.261719 " fill-opacity="1" fill-rule="nonzero"/><path fill="#ffffff" d="M 495.824219 204.277344 L 495.824219 248.847656 L 487.835938 248.847656 L 487.835938 204.277344 L 495.824219 204.277344 " fill-opacity="1" fill-rule="nonzero"/><path fill="#ffffff" d="M 510.386719 226.054688 C 510.386719 236.632812 511.992188 242.921875 516.667969 242.921875 C 521.585938 242.921875 522.992188 237.09375 522.992188 226.070312 C 522.992188 215.714844 521.496094 210.324219 516.660156 210.324219 C 511.890625 210.324219 510.386719 216.121094 510.386719 226.054688 Z M 531.175781 226.222656 C 531.175781 242.519531 526.746094 249.617188 516.476562 249.617188 C 506.882812 249.617188 502.207031 242.625 502.207031 226.132812 C 502.207031 210.046875 507.648438 203.570312 516.839844 203.570312 C 526.550781 203.570312 531.175781 210.746094 531.175781 226.222656 " fill-opacity="1" fill-rule="nonzero"/><path fill="#ffffff" d="M 537.4375 248.847656 L 537.4375 204.277344 L 546.5 204.277344 C 555.710938 228.90625 557.484375 233.609375 558.015625 235.792969 L 558.082031 235.792969 C 557.703125 230.4375 557.683594 223.875 557.683594 216.574219 L 557.683594 204.277344 L 564.816406 204.277344 L 564.816406 248.847656 L 556.128906 248.847656 C 546.613281 222.585938 544.925781 217.855469 544.347656 215.808594 L 544.28125 215.808594 C 544.609375 221.300781 544.617188 227.863281 544.617188 235.851562 L 544.617188 248.847656 L 537.4375 248.847656 " fill-opacity="1" fill-rule="nonzero"/><path fill="#f4b442" d="M 450.675781 317.59375 L 243.722656 317.59375 L 243.722656 301.824219 L 450.675781 301.824219 L 450.675781 317.59375 " fill-opacity="1" fill-rule="nonzero"/><path fill="#f4b442" d="M 542.5625 317.59375 L 461.832031 317.59375 L 461.832031 301.824219 L 542.5625 301.824219 L 542.5625 317.59375 " fill-opacity="1" fill-rule="nonzero"/><path fill="#f4b442" d="M 487.667969 379.5 L 243.722656 379.5 L 243.722656 363.730469 L 487.667969 363.730469 L 487.667969 379.5 " fill-opacity="1" fill-rule="nonzero"/><path fill="#f4b442" d="M 542.5625 379.5 L 499.113281 379.5 L 499.113281 363.730469 L 542.5625 363.730469 L 542.5625 379.5 " fill-opacity="1" fill-rule="nonzero"/><path fill="#f4b442" d="M 397.214844 348.425781 L 243.722656 348.425781 L 243.722656 332.65625 L 397.214844 332.65625 L 397.214844 348.425781 " fill-opacity="1" fill-rule="nonzero"/><path fill="#f4b442" d="M 542.5625 348.425781 L 411.046875 348.425781 L 411.046875 332.65625 L 542.5625 332.65625 L 542.5625 348.425781 " fill-opacity="1" fill-rule="nonzero"/><path fill="#54678c" d="M 496.339844 531.441406 C 466.609375 531.441406 442.414062 507.238281 442.414062 477.496094 C 442.414062 447.753906 466.609375 423.550781 496.339844 423.550781 C 526.078125 423.550781 550.265625 447.753906 550.265625 477.496094 C 550.265625 507.238281 526.078125 531.441406 496.339844 531.441406 " fill-opacity="1" fill-rule="nonzero"/><path fill="#54678c" d="M 483.578125 539.347656 C 483.984375 539.347656 484.382812 539.453125 484.738281 539.660156 L 496.339844 546.390625 L 507.945312 539.660156 C 508.390625 539.402344 508.902344 539.300781 509.410156 539.367188 L 522.699219 541.160156 L 530.828125 530.488281 C 531.136719 530.078125 531.578125 529.785156 532.070312 529.652344 L 545.035156 526.210938 L 548.480469 513.242188 C 548.609375 512.746094 548.90625 512.308594 549.3125 512 L 559.984375 503.867188 L 558.191406 490.570312 C 558.121094 490.066406 558.222656 489.546875 558.480469 489.105469 L 565.207031 477.496094 L 558.480469 465.886719 C 558.222656 465.445312 558.121094 464.929688 558.191406 464.421875 L 559.984375 451.125 L 549.3125 442.996094 C 548.90625 442.6875 548.609375 442.246094 548.480469 441.75 L 545.035156 428.78125 L 532.070312 425.335938 C 531.578125 425.207031 531.140625 424.914062 530.828125 424.503906 L 522.699219 413.832031 L 509.410156 415.625 C 508.902344 415.695312 508.390625 415.59375 507.945312 415.335938 L 496.339844 408.601562 L 484.738281 415.335938 C 484.292969 415.59375 483.78125 415.695312 483.269531 415.625 L 469.980469 413.832031 L 461.855469 424.503906 C 461.542969 424.914062 461.105469 425.207031 460.609375 425.335938 L 447.644531 428.78125 L 444.203125 441.75 C 444.070312 442.246094 443.777344 442.6875 443.367188 442.996094 L 432.703125 451.125 L 434.492188 464.421875 C 434.558594 464.929688 434.457031 465.445312 434.199219 465.886719 L 427.472656 477.496094 L 434.199219 489.105469 C 434.457031 489.546875 434.558594 490.066406 434.492188 490.570312 L 432.703125 503.867188 L 443.367188 512 C 443.777344 512.308594 444.070312 512.746094 444.203125 513.242188 L 447.644531 526.210938 L 460.609375 529.652344 C 461.105469 529.785156 461.542969 530.078125 461.855469 530.488281 L 469.980469 541.160156 L 483.269531 539.367188 C 483.371094 539.355469 483.476562 539.347656 483.578125 539.347656 Z M 496.339844 551.367188 C 495.941406 551.367188 495.542969 551.265625 495.183594 551.058594 L 483.101562 544.054688 L 469.265625 545.917969 C 468.445312 546.027344 467.625 545.6875 467.121094 545.027344 L 458.65625 533.914062 L 445.164062 530.332031 C 444.363281 530.117188 443.738281 529.496094 443.523438 528.691406 L 439.941406 515.195312 L 428.835938 506.726562 C 428.175781 506.222656 427.835938 505.40625 427.945312 504.582031 L 429.8125 490.738281 L 422.808594 478.652344 C 422.390625 477.9375 422.390625 477.054688 422.808594 476.339844 L 429.8125 464.253906 L 427.945312 450.414062 C 427.835938 449.589844 428.175781 448.769531 428.835938 448.269531 L 439.941406 439.800781 L 443.523438 426.300781 C 443.738281 425.5 444.363281 424.875 445.164062 424.664062 L 458.660156 421.078125 L 467.121094 409.964844 C 467.625 409.304688 468.445312 408.96875 469.265625 409.074219 L 483.101562 410.941406 L 495.183594 403.9375 C 495.898438 403.523438 496.785156 403.523438 497.5 403.9375 L 509.578125 410.941406 L 523.417969 409.074219 C 524.238281 408.964844 525.054688 409.304688 525.558594 409.964844 L 534.023438 421.078125 L 547.515625 424.664062 C 548.320312 424.875 548.945312 425.5 549.15625 426.300781 L 552.742188 439.800781 L 563.847656 448.269531 C 564.507812 448.769531 564.84375 449.589844 564.734375 450.414062 L 562.871094 464.253906 L 569.875 476.339844 C 570.289062 477.054688 570.289062 477.9375 569.875 478.652344 L 562.871094 490.738281 L 564.734375 504.582031 C 564.84375 505.40625 564.507812 506.222656 563.847656 506.726562 L 552.742188 515.195312 L 549.15625 528.691406 C 548.941406 529.496094 548.320312 530.117188 547.515625 530.332031 L 534.023438 533.914062 L 525.558594 545.027344 C 525.054688 545.6875 524.238281 546.027344 523.414062 545.917969 L 509.578125 544.054688 L 497.5 551.058594 C 497.140625 551.265625 496.742188 551.367188 496.339844 551.367188 " fill-opacity="1" fill-rule="nonzero"/><path fill="#ffd45c" d="M 499.320312 444.742188 C 498.714844 444.691406 498.269531 444.15625 498.320312 443.550781 C 498.375 442.949219 498.910156 442.503906 499.511719 442.554688 C 500.121094 442.613281 500.5625 443.140625 500.507812 443.75 C 500.460938 444.316406 499.980469 444.75 499.417969 444.75 C 499.382812 444.75 499.347656 444.746094 499.320312 444.742188 Z M 492.058594 443.761719 C 492 443.15625 492.445312 442.625 493.046875 442.570312 C 493.648438 442.511719 494.1875 442.957031 494.242188 443.558594 C 494.300781 444.164062 493.855469 444.695312 493.25 444.753906 C 493.214844 444.757812 493.183594 444.757812 493.148438 444.757812 C 492.585938 444.757812 492.109375 444.332031 492.058594 443.761719 Z M 505.285156 445.839844 C 504.695312 445.679688 504.355469 445.070312 504.523438 444.484375 C 504.6875 443.902344 505.292969 443.5625 505.878906 443.726562 C 506.460938 443.894531 506.800781 444.5 506.636719 445.082031 C 506.5 445.570312 506.058594 445.878906 505.578125 445.878906 C 505.480469 445.878906 505.378906 445.867188 505.285156 445.839844 Z M 485.933594 445.117188 C 485.765625 444.535156 486.105469 443.925781 486.6875 443.761719 C 487.273438 443.59375 487.878906 443.933594 488.042969 444.511719 C 488.210938 445.097656 487.871094 445.703125 487.292969 445.875 C 487.191406 445.898438 487.089844 445.914062 486.988281 445.914062 C 486.515625 445.914062 486.070312 445.597656 485.933594 445.117188 Z M 510.9375 448.023438 C 510.398438 447.753906 510.175781 447.09375 510.445312 446.554688 C 510.714844 446.007812 511.371094 445.785156 511.917969 446.054688 C 512.457031 446.324219 512.679688 446.988281 512.410156 447.527344 C 512.222656 447.914062 511.832031 448.136719 511.425781 448.136719 C 511.261719 448.136719 511.097656 448.101562 510.9375 448.023438 Z M 480.167969 447.582031 C 479.898438 447.042969 480.117188 446.382812 480.660156 446.109375 C 481.199219 445.839844 481.855469 446.054688 482.132812 446.601562 C 482.402344 447.140625 482.183594 447.800781 481.644531 448.074219 C 481.484375 448.15625 481.316406 448.191406 481.152344 448.191406 C 480.75 448.191406 480.363281 447.96875 480.167969 447.582031 Z M 516.097656 451.210938 C 515.617188 450.847656 515.519531 450.160156 515.882812 449.679688 C 516.25 449.191406 516.9375 449.09375 517.421875 449.457031 C 517.90625 449.820312 518 450.511719 517.636719 451 C 517.421875 451.28125 517.089844 451.433594 516.761719 451.433594 C 516.53125 451.433594 516.296875 451.363281 516.097656 451.210938 Z M 474.953125 451.070312 C 474.589844 450.585938 474.683594 449.894531 475.164062 449.527344 C 475.648438 449.164062 476.335938 449.257812 476.703125 449.742188 C 477.066406 450.226562 476.976562 450.910156 476.492188 451.277344 C 476.292969 451.429688 476.058594 451.503906 475.832031 451.503906 C 475.496094 451.503906 475.167969 451.351562 474.953125 451.070312 Z M 520.589844 455.292969 C 520.183594 454.847656 520.214844 454.152344 520.65625 453.742188 C 521.105469 453.335938 521.800781 453.359375 522.210938 453.8125 C 522.617188 454.257812 522.589844 454.949219 522.140625 455.359375 C 521.933594 455.554688 521.664062 455.648438 521.402344 455.648438 C 521.105469 455.648438 520.808594 455.53125 520.589844 455.292969 Z M 470.464844 455.449219 C 470.019531 455.039062 469.984375 454.347656 470.390625 453.894531 C 470.800781 453.449219 471.492188 453.414062 471.945312 453.824219 C 472.386719 454.230469 472.421875 454.929688 472.015625 455.375 C 471.800781 455.617188 471.503906 455.734375 471.207031 455.734375 C 470.941406 455.734375 470.675781 455.640625 470.464844 455.449219 Z M 524.257812 460.125 C 523.9375 459.613281 524.09375 458.933594 524.609375 458.617188 C 525.125 458.292969 525.800781 458.453125 526.121094 458.964844 C 526.441406 459.480469 526.285156 460.152344 525.773438 460.476562 C 525.589844 460.589844 525.390625 460.644531 525.195312 460.644531 C 524.828125 460.644531 524.46875 460.460938 524.257812 460.125 Z M 466.851562 460.578125 C 466.335938 460.257812 466.175781 459.582031 466.492188 459.0625 C 466.816406 458.550781 467.492188 458.394531 468.003906 458.707031 C 468.519531 459.027344 468.683594 459.707031 468.363281 460.222656 C 468.15625 460.554688 467.792969 460.742188 467.429688 460.742188 C 467.230469 460.742188 467.03125 460.6875 466.851562 460.578125 Z M 526.976562 465.546875 C 526.757812 464.984375 527.039062 464.347656 527.601562 464.125 C 528.167969 463.902344 528.800781 464.1875 529.023438 464.75 C 529.242188 465.320312 528.964844 465.949219 528.394531 466.171875 C 528.269531 466.226562 528.132812 466.246094 528 466.246094 C 527.5625 466.246094 527.148438 465.984375 526.976562 465.546875 Z M 464.246094 466.285156 C 463.679688 466.0625 463.394531 465.425781 463.617188 464.863281 C 463.832031 464.296875 464.46875 464.019531 465.035156 464.230469 C 465.601562 464.453125 465.882812 465.089844 465.664062 465.652344 C 465.492188 466.089844 465.082031 466.355469 464.636719 466.355469 C 464.503906 466.355469 464.371094 466.335938 464.246094 466.285156 Z M 528.644531 471.382812 C 528.539062 470.78125 528.925781 470.210938 529.523438 470.097656 C 530.117188 469.984375 530.691406 470.378906 530.800781 470.972656 C 530.917969 471.570312 530.523438 472.144531 529.925781 472.257812 C 529.859375 472.269531 529.789062 472.273438 529.722656 472.273438 C 529.207031 472.273438 528.742188 471.90625 528.644531 471.382812 Z M 462.734375 472.371094 C 462.140625 472.261719 461.746094 471.691406 461.855469 471.09375 C 461.964844 470.496094 462.539062 470.101562 463.132812 470.210938 C 463.730469 470.324219 464.125 470.894531 464.015625 471.492188 C 463.917969 472.019531 463.453125 472.390625 462.9375 472.390625 C 462.871094 472.390625 462.804688 472.382812 462.734375 472.371094 Z M 529.214844 477.496094 C 529.214844 477.480469 529.214844 477.46875 529.214844 477.457031 C 529.214844 477.445312 529.214844 477.433594 529.214844 477.421875 C 529.214844 476.816406 529.707031 476.320312 530.308594 476.320312 C 530.917969 476.320312 531.410156 476.8125 531.410156 477.421875 C 531.410156 477.429688 531.410156 477.441406 531.410156 477.457031 C 531.410156 477.46875 531.410156 477.480469 531.410156 477.496094 C 531.410156 478.105469 530.917969 478.597656 530.3125 478.597656 C 529.707031 478.597656 529.214844 478.105469 529.214844 477.496094 Z M 461.269531 477.535156 C 461.269531 476.929688 461.761719 476.4375 462.367188 476.4375 C 462.976562 476.4375 463.464844 476.929688 463.464844 477.535156 C 463.464844 478.140625 462.976562 478.632812 462.371094 478.632812 C 461.765625 478.632812 461.269531 478.144531 461.269531 477.535156 Z M 529.542969 484.820312 C 528.941406 484.710938 528.546875 484.132812 528.65625 483.539062 C 528.769531 482.941406 529.347656 482.546875 529.9375 482.65625 C 530.535156 482.769531 530.929688 483.34375 530.820312 483.9375 C 530.722656 484.46875 530.261719 484.839844 529.742188 484.839844 C 529.671875 484.839844 529.609375 484.832031 529.542969 484.820312 Z M 461.871094 483.980469 C 461.761719 483.382812 462.152344 482.808594 462.75 482.695312 C 463.339844 482.589844 463.917969 482.980469 464.027344 483.578125 C 464.140625 484.171875 463.746094 484.746094 463.148438 484.859375 C 463.078125 484.871094 463.015625 484.878906 462.949219 484.878906 C 462.429688 484.878906 461.972656 484.507812 461.871094 483.980469 Z M 527.632812 490.792969 C 527.066406 490.574219 526.785156 489.941406 527.007812 489.375 C 527.226562 488.808594 527.859375 488.527344 528.421875 488.746094 C 528.988281 488.96875 529.273438 489.601562 529.050781 490.164062 C 528.882812 490.601562 528.464844 490.871094 528.027344 490.871094 C 527.894531 490.871094 527.761719 490.84375 527.632812 490.792969 Z M 463.644531 490.207031 C 463.421875 489.640625 463.703125 489.003906 464.273438 488.785156 C 464.832031 488.566406 465.46875 488.847656 465.6875 489.40625 L 465.691406 489.40625 C 465.910156 489.976562 465.628906 490.609375 465.066406 490.832031 C 464.9375 490.882812 464.796875 490.90625 464.667969 490.90625 C 464.226562 490.90625 463.8125 490.640625 463.644531 490.207031 Z M 524.652344 496.316406 C 524.136719 495.996094 523.976562 495.320312 524.296875 494.804688 C 524.617188 494.289062 525.296875 494.132812 525.8125 494.449219 C 526.324219 494.769531 526.484375 495.445312 526.167969 495.960938 C 525.957031 496.296875 525.597656 496.480469 525.230469 496.480469 C 525.035156 496.480469 524.828125 496.429688 524.652344 496.316406 Z M 466.539062 495.992188 C 466.21875 495.476562 466.375 494.800781 466.886719 494.480469 C 467.40625 494.164062 468.082031 494.320312 468.402344 494.835938 C 468.722656 495.351562 468.5625 496.023438 468.046875 496.347656 C 467.867188 496.457031 467.667969 496.511719 467.46875 496.511719 C 467.105469 496.511719 466.742188 496.328125 466.539062 495.992188 Z M 520.710938 501.195312 C 520.265625 500.789062 520.234375 500.09375 520.640625 499.644531 C 521.050781 499.195312 521.742188 499.167969 522.191406 499.574219 C 522.636719 499.980469 522.671875 500.679688 522.265625 501.125 C 522.046875 501.363281 521.75 501.480469 521.449219 501.480469 C 521.1875 501.480469 520.921875 501.386719 520.710938 501.195312 Z M 470.445312 501.152344 C 470.445312 501.152344 470.445312 501.152344 470.441406 501.152344 C 470.039062 500.707031 470.066406 500.007812 470.511719 499.601562 C 470.960938 499.195312 471.65625 499.222656 472.066406 499.667969 C 472.476562 500.117188 472.441406 500.8125 471.996094 501.222656 C 471.785156 501.414062 471.519531 501.511719 471.253906 501.511719 C 470.957031 501.511719 470.660156 501.386719 470.445312 501.152344 Z M 515.945312 505.273438 C 515.582031 504.789062 515.679688 504.101562 516.160156 503.734375 C 516.644531 503.371094 517.332031 503.46875 517.699219 503.949219 C 518.0625 504.433594 517.964844 505.121094 517.484375 505.484375 C 517.484375 505.484375 517.484375 505.484375 517.484375 505.488281 C 517.285156 505.636719 517.054688 505.710938 516.824219 505.710938 C 516.492188 505.710938 516.160156 505.558594 515.945312 505.273438 Z M 475.226562 505.511719 C 474.746094 505.144531 474.648438 504.457031 475.011719 503.972656 C 475.378906 503.488281 476.066406 503.394531 476.550781 503.757812 C 477.03125 504.121094 477.128906 504.816406 476.765625 505.296875 C 476.546875 505.582031 476.21875 505.734375 475.890625 505.734375 C 475.660156 505.734375 475.425781 505.660156 475.226562 505.511719 Z M 510.515625 508.410156 C 510.242188 507.867188 510.464844 507.207031 511.007812 506.9375 C 511.546875 506.664062 512.210938 506.882812 512.480469 507.425781 C 512.75 507.96875 512.527344 508.628906 511.988281 508.898438 C 511.832031 508.980469 511.664062 509.015625 511.496094 509.015625 C 511.097656 509.015625 510.707031 508.796875 510.515625 508.410156 Z M 480.730469 508.917969 C 480.1875 508.648438 479.964844 507.988281 480.238281 507.445312 C 480.507812 506.902344 481.164062 506.679688 481.710938 506.953125 C 482.25 507.226562 482.472656 507.882812 482.199219 508.425781 C 482.007812 508.808594 481.621094 509.03125 481.21875 509.03125 C 481.054688 509.03125 480.882812 508.996094 480.730469 508.917969 Z M 504.597656 510.488281 C 504.433594 509.90625 504.769531 509.296875 505.351562 509.132812 C 505.9375 508.96875 506.542969 509.300781 506.707031 509.890625 C 506.875 510.46875 506.539062 511.078125 505.957031 511.242188 C 505.855469 511.273438 505.753906 511.285156 505.652344 511.285156 C 505.171875 511.285156 504.738281 510.96875 504.597656 510.488281 Z M 486.765625 511.257812 C 486.183594 511.089844 485.84375 510.480469 486.011719 509.894531 C 486.175781 509.316406 486.78125 508.972656 487.363281 509.140625 C 487.945312 509.308594 488.285156 509.914062 488.121094 510.496094 C 487.984375 510.980469 487.542969 511.292969 487.0625 511.292969 C 486.964844 511.292969 486.867188 511.285156 486.765625 511.257812 Z M 498.398438 511.4375 C 498.34375 510.832031 498.789062 510.296875 499.390625 510.242188 C 499.996094 510.183594 500.53125 510.632812 500.585938 511.238281 C 500.640625 511.835938 500.199219 512.375 499.59375 512.429688 C 499.558594 512.433594 499.523438 512.433594 499.492188 512.433594 C 498.933594 512.433594 498.453125 512.007812 498.398438 511.4375 Z M 493.128906 512.433594 C 492.523438 512.378906 492.078125 511.84375 492.132812 511.242188 C 492.1875 510.632812 492.722656 510.1875 493.328125 510.246094 C 493.929688 510.300781 494.375 510.835938 494.320312 511.4375 C 494.269531 512.007812 493.789062 512.4375 493.230469 512.4375 C 493.195312 512.4375 493.164062 512.4375 493.128906 512.433594 " fill-opacity="1" fill-rule="nonzero"/><g clip-path="url(#c7cb9d4e54)"><path fill="#f4b442" d="M 173.269531 158.453125 C 173.269531 158.453125 189.121094 141.023438 223.46875 132.511719 C 233.101562 130.121094 249.59375 129.867188 263.097656 130.160156 C 263.097656 130.160156 263.117188 60.160156 284.242188 47.441406 C 284.242188 47.441406 254.300781 64.964844 228.757812 83.171875 C 203.214844 101.378906 175.324219 145.050781 173.269531 158.453125 " fill-opacity="1" fill-rule="nonzero"/></g><path fill="#ff5f4a" d="M 325.730469 477.304688 C 323.472656 480.722656 322.332031 482.429688 320.027344 485.847656 C 320.789062 489.863281 321.152344 491.867188 321.851562 495.882812 C 318.382812 498.175781 316.644531 499.316406 313.160156 501.605469 C 312.214844 505.625 311.722656 507.632812 310.710938 511.65625 C 306.652344 512.476562 304.621094 512.882812 300.558594 513.703125 C 298.09375 517.117188 296.84375 518.828125 294.324219 522.242188 C 290.367188 521.460938 288.386719 521.066406 284.425781 520.285156 C 280.863281 522.566406 279.074219 523.710938 275.484375 525.996094 C 272.257812 523.738281 270.640625 522.609375 267.390625 520.347656 C 263.316406 521.164062 261.28125 521.570312 257.207031 522.386719 C 255.183594 518.988281 254.15625 517.285156 252.074219 513.886719 C 248.105469 513.097656 246.121094 512.703125 242.148438 511.917969 C 241.558594 507.902344 241.246094 505.898438 240.589844 501.882812 C 237.261719 499.621094 235.59375 498.488281 232.246094 496.226562 C 233.148438 492.207031 233.582031 490.191406 234.421875 486.175781 C 232.183594 482.773438 231.050781 481.074219 228.769531 477.675781 C 231.027344 474.257812 232.144531 472.550781 234.363281 469.132812 C 233.5 465.121094 233.054688 463.109375 232.136719 459.097656 C 235.472656 456.808594 237.140625 455.667969 240.460938 453.382812 C 241.113281 449.359375 241.425781 447.347656 242.03125 443.328125 C 246.007812 442.511719 247.996094 442.105469 251.96875 441.289062 C 254.066406 437.871094 255.105469 436.164062 257.171875 432.75 C 261.238281 433.53125 263.269531 433.925781 267.335938 434.710938 C 270.605469 432.425781 272.238281 431.28125 275.496094 428.996094 C 279.054688 431.257812 280.828125 432.382812 284.367188 434.644531 C 288.335938 433.828125 290.324219 433.421875 294.289062 432.605469 C 296.769531 436.003906 298.003906 437.703125 300.453125 441.101562 C 304.511719 441.886719 306.539062 442.28125 310.59375 443.066406 C 311.59375 447.085938 312.082031 449.089844 313.03125 453.101562 C 316.523438 455.363281 318.265625 456.492188 321.738281 458.757812 C 321.058594 462.773438 320.703125 464.785156 319.96875 468.804688 C 322.296875 472.203125 323.449219 473.90625 325.730469 477.304688 " fill-opacity="1" fill-rule="nonzero"/><path fill="#434a59" d="M 277.25 565.484375 C 276.796875 565.742188 276.101562 566.230469 275.113281 567.140625 C 270.796875 571.117188 267.164062 578.53125 265.140625 585.515625 C 273.4375 577.363281 277.074219 568.417969 277.25 565.484375 Z M 266.257812 605.515625 C 265.957031 605.515625 265.648438 605.5 265.324219 605.472656 C 262.921875 605.261719 261.097656 603.6875 260.195312 601.039062 C 259.65625 599.457031 259.4375 597.5 259.488281 595.304688 C 248.875 602.570312 243.410156 600.210938 242.722656 599.859375 L 244.519531 596.339844 L 244.460938 596.3125 C 244.515625 596.335938 249.503906 598.296875 260.050781 589.980469 C 261.691406 580.675781 266.667969 569.546875 272.4375 564.230469 C 275.125 561.757812 277.171875 560.855469 278.882812 561.394531 C 279.988281 561.742188 280.777344 562.679688 281.058594 563.953125 C 282.136719 568.894531 276.023438 581.046875 266.230469 589.917969 C 265.363281 590.703125 264.523438 591.433594 263.703125 592.109375 C 263.273438 595.234375 263.3125 597.941406 263.933594 599.761719 C 264.503906 601.433594 265.320312 601.503906 265.667969 601.535156 C 268.671875 601.800781 269.851562 599.996094 271.683594 596.792969 C 273.546875 593.527344 275.867188 589.457031 281.699219 589.960938 C 286.425781 590.359375 289.910156 592.84375 292.980469 595.035156 C 296.339844 597.433594 298.996094 599.328125 302.59375 598.492188 C 302.835938 598.433594 304.210938 597.878906 307.5 592.398438 C 309.839844 588.496094 312.527344 583.191406 315.371094 577.578125 C 324.25 560.042969 334.3125 540.167969 344.878906 539.402344 C 347.996094 539.171875 349.710938 540.507812 350.597656 541.664062 C 354.527344 546.804688 350.785156 558.738281 344.625 576.363281 C 341.421875 585.53125 338.109375 595.011719 338.691406 598.550781 C 338.71875 598.703125 338.742188 598.839844 338.765625 598.964844 C 339.679688 598.011719 340.992188 596.222656 342.023438 594.824219 C 345.992188 589.421875 350.929688 582.703125 356.753906 584.226562 C 366.066406 586.65625 373.140625 594.117188 373.4375 594.433594 C 374.183594 595.230469 374.140625 596.480469 373.347656 597.226562 C 372.550781 597.976562 371.300781 597.933594 370.554688 597.136719 C 370.492188 597.066406 363.941406 590.1875 355.753906 588.050781 C 352.527344 587.210938 348.121094 593.199219 345.207031 597.164062 C 342.164062 601.300781 340.15625 604.039062 337.609375 603.421875 C 335.398438 602.890625 334.960938 600.207031 334.792969 599.195312 C 334.046875 594.65625 337.222656 585.574219 340.894531 575.058594 C 344.902344 563.597656 350.390625 547.898438 347.460938 544.070312 C 347.285156 543.839844 346.816406 543.226562 345.164062 543.347656 C 336.828125 543.953125 326.460938 564.417969 318.894531 579.363281 C 311.578125 593.808594 307.574219 601.390625 303.488281 602.339844 C 298.15625 603.582031 294.359375 600.871094 290.6875 598.253906 C 287.769531 596.171875 285.011719 594.207031 281.363281 593.898438 C 278.203125 593.636719 276.988281 595.472656 275.113281 598.75 C 273.382812 601.785156 271.25 605.515625 266.257812 605.515625 " fill-opacity="1" fill-rule="nonzero"/><g clip-path="url(#b32b160761)"><path fill="#fff385" d="M 284.242188 47.441406 C 284.242188 47.441406 248.125 73.925781 254.730469 117.09375 C 254.730469 117.09375 197.929688 113.042969 173.269531 158.453125 C 173.269531 158.453125 178.765625 114.464844 216.128906 81.707031 C 255.320312 47.347656 284.242188 47.441406 284.242188 47.441406 " fill-opacity="1" fill-rule="nonzero"/></g><g clip-path="url(#de9adec20b)"><path fill="#5cbec6" d="M 201.136719 770.433594 C 201.136719 772.355469 165.417969 773.917969 121.359375 773.917969 C 77.304688 773.917969 41.585938 772.355469 41.585938 770.433594 C 41.585938 768.503906 77.304688 766.941406 121.359375 766.941406 C 165.417969 766.941406 201.136719 768.503906 201.136719 770.433594 " fill-opacity="1" fill-rule="nonzero"/></g><path fill="#54678c" d="M 185.1875 377.074219 C 185.1875 377.074219 222.242188 386.945312 222.242188 390.976562 C 222.242188 395.007812 219.535156 419.136719 209.890625 417.859375 C 200.246094 416.578125 179.007812 408.96875 175.121094 399.128906 C 171.234375 389.289062 185.1875 377.074219 185.1875 377.074219 " fill-opacity="1" fill-rule="nonzero"/><path fill="#434a59" d="M 165.871094 762.625 C 162.019531 760.9375 159.148438 749.355469 159.144531 748.988281 C 159.125 747.371094 154.464844 743.089844 152.292969 746.449219 C 148.015625 753.070312 143.324219 742.726562 143.574219 745.484375 C 144.3125 753.710938 140.539062 766.972656 143.601562 767.875 C 150.125 769.789062 180.574219 772.015625 181.148438 768.816406 C 181.496094 766.894531 172.535156 765.542969 165.871094 762.625 " fill-opacity="1" fill-rule="nonzero"/><path fill="#434a59" d="M 81.023438 762.625 C 73.179688 760.394531 74.296875 749.355469 74.289062 748.988281 C 74.269531 747.371094 69.613281 743.089844 67.441406 746.449219 C 63.164062 753.070312 58.476562 742.726562 58.722656 745.484375 C 59.460938 753.710938 55.6875 766.972656 58.75 767.875 C 65.273438 769.789062 95.722656 772.015625 96.296875 768.816406 C 96.644531 766.894531 88.019531 764.617188 81.023438 762.625 " fill-opacity="1" fill-rule="nonzero"/><path fill="#434a59" d="M 91.933594 437.605469 C 99.625 420.605469 158.121094 398.554688 173.550781 394.921875 C 174.679688 412.039062 182.574219 422.703125 191.910156 441.164062 C 204.964844 466.972656 169.222656 749.964844 169.222656 749.964844 L 137.203125 749.964844 L 145.238281 485.484375 L 84.621094 749.964844 L 53.90625 749.964844 C 53.90625 749.964844 83.109375 457.101562 91.933594 437.605469 " fill-opacity="1" fill-rule="nonzero"/><path fill="#2a2f38" d="M 87.355469 457.964844 L 120.90625 456.941406 L 154.621094 439.753906 L 164.359375 439.753906 C 164.359375 439.753906 183.917969 441.152344 192.320312 442.09375 C 193.285156 444.574219 193.9375 448.53125 194.328125 453.710938 C 193.789062 456.976562 193.335938 459.695312 193.335938 459.695312 C 193.335938 459.695312 178.789062 468.855469 160.503906 472.238281 C 142.734375 475.527344 112.746094 484.199219 83.621094 481.652344 C 84.945312 472.648438 86.203125 464.640625 87.355469 457.964844 " fill-opacity="1" fill-rule="nonzero"/><path fill="#5679bf" d="M 85.882812 400.574219 C 83.296875 363.042969 76.507812 342.3125 80.089844 329.503906 C 84.679688 313.082031 108.695312 301.886719 122.4375 299.976562 C 133.738281 298.40625 161.5 299.363281 171.5625 306.410156 C 187.691406 317.714844 197.132812 457.703125 197.132812 457.703125 C 197.132812 457.703125 187.359375 464.167969 161.183594 468.980469 C 159.796875 469.238281 158.679688 443.972656 157.199219 444.21875 C 154.09375 444.726562 150.464844 470.730469 146.9375 471.179688 C 98.796875 477.316406 82.496094 471.179688 82.496094 471.179688 C 82.496094 471.179688 88.953125 445.085938 85.882812 400.574219 " fill-opacity="1" fill-rule="nonzero"/><path fill="#6c98dd" d="M 129.390625 298.433594 C 121.070312 299.722656 115.351562 307.382812 113.191406 310.777344 C 112.617188 311.683594 112.8125 312.871094 113.648438 313.546875 L 125.53125 323.148438 C 125.53125 323.148438 113.882812 317.609375 112.726562 318.765625 C 111.570312 319.921875 144.8125 373.386719 148.945312 375.289062 C 153.074219 377.191406 158.328125 314.140625 156.261719 314.222656 C 154.199219 314.304688 151.1875 318.300781 151.1875 318.300781 L 153.742188 307.265625 C 153.882812 306.660156 153.742188 306.027344 153.359375 305.542969 C 151.410156 303.078125 144.449219 296.105469 129.390625 298.433594 " fill-opacity="1" fill-rule="nonzero"/><path fill="#f7f7f7" d="M 123.414062 303.207031 C 123.414062 303.207031 130.257812 320.96875 133.707031 329.890625 C 137.152344 338.820312 150.542969 379.703125 150.542969 379.703125 C 150.542969 379.703125 145.179688 309.699219 143.660156 304.8125 C 142.507812 301.125 130.847656 292.074219 123.414062 303.207031 " fill-opacity="1" fill-rule="nonzero"/><path fill="#e7f2f2" d="M 246.4375 569.003906 C 248.078125 537.46875 257.160156 526.25 257.160156 526.25 L 241.980469 488.832031 L 230.09375 491.335938 L 218.203125 493.839844 L 219.394531 534.203125 C 219.394531 534.203125 232.226562 540.804688 246.4375 569.003906 " fill-opacity="1" fill-rule="nonzero"/><path fill="#434a59" d="M 209.636719 491.359375 C 210.316406 493.636719 212.628906 495.015625 214.953125 494.523438 L 230.09375 491.335938 L 245.230469 488.148438 C 247.558594 487.660156 249.113281 485.464844 248.820312 483.105469 C 237.644531 393.117188 194.777344 228.089844 194.777344 228.089844 L 156.304688 236.195312 C 156.304688 236.195312 183.589844 404.5 209.636719 491.359375 " fill-opacity="1" fill-rule="nonzero"/><path fill="#ffe67b" d="M 158.632812 268.449219 L 205.652344 258.546875 L 202.183594 244.113281 L 155.847656 253.875 L 158.632812 268.449219 " fill-opacity="1" fill-rule="nonzero"/><path fill="#434a59" d="M 202.183594 244.113281 L 179.195312 148.507812 C 177.515625 141.511719 170.574219 137.121094 163.535156 138.609375 L 147.75 141.929688 C 140.660156 143.425781 136.070312 150.320312 137.429688 157.4375 L 155.847656 253.871094 L 202.183594 244.113281 " fill-opacity="1" fill-rule="nonzero"/><path fill="#ffe67b" d="M 156.046875 149.996094 C 157.015625 149.789062 158.066406 149.992188 158.917969 150.636719 C 160.476562 151.820312 160.785156 154.039062 159.605469 155.601562 L 159.164062 156.1875 C 156.464844 159.753906 155.445312 164.320312 156.367188 168.699219 L 183.1875 296.144531 C 183.589844 298.0625 182.367188 299.9375 180.453125 300.34375 C 178.539062 300.746094 176.660156 299.519531 176.257812 297.605469 L 149.433594 170.160156 C 148.089844 163.769531 149.578125 157.117188 153.511719 151.910156 L 153.953125 151.324219 C 154.492188 150.617188 155.242188 150.164062 156.046875 149.996094 " fill-opacity="1" fill-rule="nonzero"/><path fill="#434a59" d="M 239.328125 540.847656 C 241.234375 540.007812 243.460938 540.867188 244.300781 542.777344 C 245.144531 544.679688 244.277344 546.90625 242.375 547.75 C 240.46875 548.589844 238.242188 547.730469 237.402344 545.820312 C 236.558594 543.917969 237.421875 541.691406 239.328125 540.847656 " fill-opacity="1" fill-rule="nonzero"/><path fill="#434a59" d="M 246.589844 566.449219 L 241.414062 544.445312 C 241.40625 544.410156 241.394531 544.382812 241.382812 544.355469 C 241.28125 544.125 241.03125 543.992188 240.78125 544.050781 C 240.496094 544.121094 240.320312 544.402344 240.386719 544.6875 L 245.828125 567.820312 C 246.03125 568.214844 246.234375 568.597656 246.4375 569.003906 C 246.484375 568.132812 246.535156 567.285156 246.589844 566.449219 " fill-opacity="1" fill-rule="nonzero"/><path fill="#ffffff" d="M 197.351562 416.917969 C 197.351562 416.917969 197.347656 416.917969 197.347656 416.917969 C 196.464844 417.132812 195.578125 416.589844 195.363281 415.710938 C 187.75 384.335938 177.699219 339.699219 173.066406 305.199219 C 172.941406 304.296875 173.570312 303.472656 174.472656 303.351562 C 175.375 303.230469 176.203125 303.859375 176.324219 304.761719 C 180.941406 339.121094 190.964844 383.636719 198.558594 414.933594 C 198.773438 415.8125 198.230469 416.703125 197.351562 416.917969 " fill-opacity="1" fill-rule="nonzero"/><path fill="#d8d8d8" d="M 126.417969 262.902344 C 127.5625 260.757812 130.574219 256.609375 135.183594 258.113281 C 138.183594 259.089844 139.964844 260.601562 140.230469 264.714844 C 142.179688 266.332031 142.085938 267.730469 141.195312 269.839844 C 140.269531 272.027344 141.03125 270.472656 139.835938 272.707031 C 139.117188 274.054688 140.15625 275.523438 139.445312 275.402344 C 138.734375 275.285156 127.433594 285.671875 126.519531 285.625 C 125.953125 285.597656 124.65625 285.378906 124.082031 283.597656 C 123.53125 281.90625 122.851562 280.359375 121.824219 278.90625 C 117.753906 273.152344 123.207031 266.785156 123.207031 266.785156 C 123.207031 266.785156 125.804688 264.050781 126.417969 262.902344 " fill-opacity="1" fill-rule="nonzero"/><path fill="#ff867a" d="M 141.289062 304.332031 C 136.050781 308.035156 126.238281 303.25 125.84375 300.601562 L 125.925781 282.882812 L 125.992188 282.136719 L 126.261719 282.25 L 135.273438 285.949219 L 136.382812 288.4375 L 136.742188 289.246094 L 137.132812 290.121094 L 137.257812 290.394531 L 138.960938 296.011719 C 138.960938 296.011719 142.582031 303.421875 141.289062 304.332031 " fill-opacity="1" fill-rule="nonzero"/><path fill="#ff867a" d="M 144.628906 284.511719 C 144.730469 285.742188 144.566406 286.757812 144.121094 287.574219 C 144.117188 287.578125 144.113281 287.585938 144.109375 287.59375 C 143.972656 287.847656 143.808594 288.078125 143.617188 288.285156 C 143.507812 288.40625 143.390625 288.523438 143.269531 288.632812 C 142.121094 289.660156 140.40625 290.152344 137.515625 290.125 L 137.503906 290.125 C 137.382812 290.125 137.261719 290.125 137.136719 290.117188 L 137.132812 290.121094 C 136.871094 290.113281 136.597656 290.105469 136.320312 290.089844 C 135.992188 290.070312 135.652344 290.050781 135.304688 290.019531 C 134.339844 290.175781 133.265625 290.011719 132.203125 289.617188 C 131.976562 289.535156 131.75 289.441406 131.527344 289.335938 C 128.8125 288.085938 126.308594 285.449219 125.925781 282.882812 C 125.871094 282.523438 125.859375 282.167969 125.890625 281.820312 L 125.84375 279.367188 L 126.152344 278.957031 C 127.996094 276.515625 127.917969 272.730469 127.917969 272.730469 C 127.8125 268.554688 132.101562 266.816406 133.847656 266.15625 C 139.796875 263.90625 139.136719 266.878906 140.839844 270.011719 C 142.238281 272.589844 144.164062 278.871094 144.628906 284.511719 " fill-opacity="1" fill-rule="nonzero"/><path fill="#ff867a" d="M 126.609375 277.304688 C 126.03125 276.148438 124.902344 274.566406 123.605469 276.265625 C 121.722656 278.746094 124.496094 284.390625 127.589844 283.433594 C 129.890625 282.722656 126.910156 277.917969 126.609375 277.304688 " fill-opacity="1" fill-rule="nonzero"/><path fill="#c66c67" d="M 138.03125 279.699219 C 138 279.78125 138.222656 279.886719 138.542969 279.863281 C 138.878906 279.851562 139.332031 279.722656 139.757812 279.339844 C 139.757812 279.332031 139.773438 279.320312 139.78125 279.316406 C 140.035156 279.066406 140.1875 278.800781 140.277344 278.550781 C 140.417969 278.1875 140.410156 277.855469 140.351562 277.691406 C 140.320312 277.59375 140.285156 277.5625 140.234375 277.5625 C 140.207031 277.5625 140.1875 277.574219 140.164062 277.589844 C 140.085938 277.671875 139.988281 277.898438 139.839844 278.160156 C 139.71875 278.351562 139.578125 278.5625 139.386719 278.757812 C 139.367188 278.78125 139.347656 278.800781 139.320312 278.828125 C 139.023438 279.121094 138.679688 279.296875 138.417969 279.421875 C 138.1875 279.535156 138.03125 279.605469 138.03125 279.699219 " fill-opacity="1" fill-rule="nonzero"/><path fill="#d8d8d8" d="M 131.734375 273.046875 C 132.738281 271.945312 133.625 271.070312 135.222656 271.125 C 135.671875 271.140625 135.777344 271.703125 135.238281 271.929688 C 133.753906 272.558594 133.273438 272.726562 132.132812 273.679688 C 131.621094 274.105469 131.148438 273.683594 131.734375 273.046875 " fill-opacity="1" fill-rule="nonzero"/><path fill="#d8d8d8" d="M 141.8125 271.058594 C 141.101562 270.796875 140.367188 271.027344 139.738281 271.253906 C 139.316406 271.410156 139.183594 271.917969 139.769531 271.933594 C 141.378906 271.980469 141.316406 271.800781 142.09375 271.9375 C 142.648438 272.027344 142.625 271.359375 141.8125 271.058594 " fill-opacity="1" fill-rule="nonzero"/><path fill="#434a59" d="M 135.746094 275.621094 C 135.777344 276.039062 135.582031 276.394531 135.308594 276.414062 C 135.035156 276.433594 134.789062 276.117188 134.757812 275.695312 C 134.722656 275.277344 134.921875 274.921875 135.195312 274.90625 C 135.464844 274.878906 135.714844 275.203125 135.746094 275.621094 " fill-opacity="1" fill-rule="nonzero"/><path fill="#434a59" d="M 142.5625 274.644531 C 142.59375 275.0625 142.398438 275.417969 142.125 275.4375 C 141.851562 275.460938 141.605469 275.136719 141.574219 274.71875 C 141.539062 274.300781 141.738281 273.945312 142.007812 273.925781 C 142.28125 273.90625 142.527344 274.226562 142.5625 274.644531 " fill-opacity="1" fill-rule="nonzero"/><path fill="#c66c67" d="M 137.3125 290.582031 L 138.960938 296.011719 C 135.625 294.929688 133.457031 292.121094 132.414062 290.0625 C 132.339844 289.910156 132.269531 289.761719 132.203125 289.617188 C 131.78125 288.6875 131.613281 287.964844 131.707031 287.738281 C 131.949219 287.105469 133.734375 288.816406 136.109375 289.164062 C 136.324219 289.191406 136.535156 289.226562 136.742188 289.246094 C 139.921875 289.621094 142.039062 289.164062 143.269531 288.632812 C 142.121094 289.660156 140.40625 290.152344 137.515625 290.125 L 137.503906 290.125 C 137.472656 290.125 137.441406 290.144531 137.414062 290.167969 C 137.300781 290.269531 137.265625 290.4375 137.3125 290.582031 " fill-opacity="1" fill-rule="nonzero"/><path fill="#ffffff" d="M 137.574219 302.804688 C 137.574219 302.804688 127.15625 298.433594 124.953125 297.292969 L 123.414062 303.207031 L 133.480469 312.339844 L 137.410156 306.152344 L 145.179688 308.824219 L 139.832031 297.707031 L 137.574219 302.804688 " fill-opacity="1" fill-rule="nonzero"/><path fill="#2a2f38" d="M 92.699219 493.882812 Z M 92.699219 493.890625 C 92.699219 493.886719 92.699219 493.886719 92.699219 493.886719 C 92.699219 493.886719 92.699219 493.886719 92.699219 493.890625 Z M 60.472656 745.597656 C 60.148438 745.550781 59.921875 745.246094 59.972656 744.917969 L 73.96875 628.347656 C 74.09375 627.382812 86.601562 531.664062 89.769531 513.160156 C 92.652344 496.292969 92.6875 494.03125 92.675781 493.785156 C 92.632812 493.503906 92.796875 493.21875 93.074219 493.125 C 93.390625 493.023438 93.730469 493.1875 93.835938 493.5 C 94.050781 494.140625 93 501.378906 90.953125 513.363281 C 87.789062 531.84375 75.28125 627.539062 75.15625 628.511719 L 61.15625 745.097656 C 61.113281 745.390625 60.855469 745.605469 60.5625 745.605469 C 60.535156 745.605469 60.503906 745.601562 60.472656 745.597656 " fill-opacity="1" fill-rule="nonzero"/><path fill="#2a2f38" d="M 145.234375 486.085938 C 145.453125 486.085938 145.667969 485.964844 145.773438 485.757812 C 149.136719 479.125 152.613281 477.097656 152.648438 477.074219 C 152.9375 476.914062 153.039062 476.546875 152.875 476.257812 C 152.710938 475.96875 152.34375 475.871094 152.054688 476.03125 C 151.902344 476.121094 148.226562 478.261719 144.703125 485.21875 C 144.554688 485.507812 144.671875 485.871094 144.964844 486.023438 C 145.054688 486.066406 145.144531 486.085938 145.234375 486.085938 " fill-opacity="1" fill-rule="nonzero"/><path fill="#2a2f38" d="M 143.574219 746.085938 C 143.890625 746.085938 144.15625 745.839844 144.171875 745.519531 C 144.183594 745.347656 145.160156 728.378906 145.75 721.863281 C 146.109375 717.90625 146.46875 703.089844 146.78125 690.015625 C 146.992188 681.332031 147.191406 649.925781 147.351562 646.625 C 147.472656 644.183594 147.535156 638.203125 147.617188 630.636719 C 147.808594 613.164062 148.097656 586.757812 149.378906 580.910156 C 150.320312 576.617188 150.355469 563.898438 150.390625 550.433594 C 150.421875 537.734375 150.457031 524.597656 151.339844 520.078125 C 153.140625 510.875 149.539062 490.132812 149.386719 489.25 C 149.328125 488.925781 149.019531 488.707031 148.691406 488.765625 C 148.363281 488.824219 148.148438 489.132812 148.203125 489.460938 C 148.242188 489.671875 151.921875 510.863281 150.164062 519.847656 C 149.257812 524.480469 149.222656 537.671875 149.191406 550.429688 C 149.15625 563.238281 149.121094 576.484375 148.210938 580.652344 C 146.898438 586.621094 146.609375 613.101562 146.417969 630.625 C 146.335938 638.179688 146.273438 644.148438 146.152344 646.566406 C 145.992188 649.882812 145.792969 681.292969 145.585938 689.984375 C 145.269531 703.042969 144.910156 717.835938 144.554688 721.757812 C 143.960938 728.289062 142.984375 745.285156 142.972656 745.453125 C 142.957031 745.78125 143.207031 746.066406 143.539062 746.085938 C 143.550781 746.085938 143.5625 746.085938 143.574219 746.085938 " fill-opacity="1" fill-rule="nonzero"/><path fill="#2a2f38" d="M 86.253906 496.761719 C 86.296875 496.761719 86.34375 496.75 86.390625 496.746094 C 97.820312 494.113281 106.566406 485.25 107.480469 483.640625 C 107.644531 483.355469 107.542969 482.988281 107.253906 482.824219 C 106.964844 482.660156 106.597656 482.761719 106.4375 483.050781 C 105.675781 484.390625 97.125 493.042969 86.121094 495.574219 C 85.796875 495.644531 85.59375 495.96875 85.667969 496.292969 C 85.734375 496.570312 85.980469 496.761719 86.253906 496.761719 " fill-opacity="1" fill-rule="nonzero"/><path fill="#434a59" d="M 134.007812 273.808594 C 133.753906 273.792969 133.488281 273.816406 133.222656 273.878906 C 132.5625 274.039062 132 274.425781 131.636719 274.964844 C 131.28125 275.503906 131.160156 276.128906 131.304688 276.734375 C 131.601562 277.984375 132.945312 278.738281 134.304688 278.414062 C 134.964844 278.257812 135.527344 277.871094 135.886719 277.332031 C 136.246094 276.792969 136.363281 276.164062 136.21875 275.5625 C 135.980469 274.558594 135.066406 273.871094 134.007812 273.808594 Z M 133.488281 278.996094 C 132.210938 278.921875 131.097656 278.082031 130.804688 276.851562 C 130.628906 276.109375 130.773438 275.339844 131.210938 274.683594 C 131.644531 274.03125 132.316406 273.570312 133.105469 273.382812 C 134.734375 272.992188 136.359375 273.917969 136.71875 275.441406 C 136.898438 276.183594 136.753906 276.957031 136.316406 277.613281 C 135.878906 278.265625 135.207031 278.722656 134.421875 278.914062 C 134.105469 278.988281 133.792969 279.015625 133.488281 278.996094 " fill-opacity="1" fill-rule="nonzero"/><path fill="#434a59" d="M 141.828125 272.640625 C 141.667969 272.628906 141.511719 272.644531 141.359375 272.679688 C 140.390625 272.914062 139.816406 273.996094 140.078125 275.101562 C 140.339844 276.207031 141.339844 276.914062 142.3125 276.683594 C 142.777344 276.570312 143.167969 276.261719 143.40625 275.816406 C 143.65625 275.351562 143.722656 274.800781 143.59375 274.265625 C 143.464844 273.722656 143.160156 273.261719 142.730469 272.964844 C 142.449219 272.769531 142.140625 272.65625 141.828125 272.640625 Z M 141.820312 277.238281 C 140.792969 277.179688 139.855469 276.371094 139.578125 275.21875 C 139.25 273.839844 139.996094 272.476562 141.242188 272.179688 C 141.847656 272.039062 142.484375 272.164062 143.023438 272.542969 C 143.554688 272.914062 143.9375 273.480469 144.09375 274.144531 C 144.25 274.808594 144.167969 275.488281 143.859375 276.054688 C 143.546875 276.636719 143.039062 277.039062 142.429688 277.183594 C 142.226562 277.234375 142.023438 277.25 141.820312 277.238281 " fill-opacity="1" fill-rule="nonzero"/><path fill="#434a59" d="M 136.425781 275.660156 C 136.355469 275.65625 136.285156 275.621094 136.238281 275.5625 C 136.152344 275.449219 136.167969 275.289062 136.28125 275.199219 C 136.339844 275.152344 137.808594 274.007812 139.871094 274.691406 C 140.003906 274.738281 140.078125 274.878906 140.035156 275.015625 C 139.988281 275.148438 139.847656 275.222656 139.710938 275.179688 C 137.917969 274.589844 136.652344 275.5625 136.597656 275.605469 C 136.546875 275.644531 136.488281 275.664062 136.425781 275.660156 " fill-opacity="1" fill-rule="nonzero"/><path fill="#434a59" d="M 127.042969 276.65625 C 126.910156 276.648438 126.804688 276.542969 126.800781 276.410156 C 126.796875 276.265625 126.90625 276.148438 127.046875 276.144531 L 130.980469 276.003906 C 131.117188 276.003906 131.238281 276.117188 131.246094 276.253906 C 131.25 276.398438 131.140625 276.515625 130.996094 276.519531 L 127.066406 276.65625 C 127.058594 276.65625 127.050781 276.65625 127.042969 276.65625 " fill-opacity="1" fill-rule="nonzero"/><path fill="#ffffff" d="M 136.28125 281.101562 C 136.28125 281.101562 141.351562 280.417969 142.996094 279.867188 C 142.996094 279.867188 143.53125 281.847656 142.207031 282.597656 C 140.886719 283.351562 137.503906 282.777344 136.28125 281.101562 " fill-opacity="1" fill-rule="nonzero"/><path fill="#434a59" d="M 156.726562 442.695312 C 156.707031 442.695312 156.683594 442.695312 156.664062 442.695312 C 156.191406 442.660156 155.84375 442.246094 155.875 441.777344 C 155.890625 441.625 157.03125 426.210938 155.875 412.183594 C 154.722656 398.144531 151.089844 381.363281 151.054688 381.195312 C 150.953125 380.734375 151.246094 380.277344 151.707031 380.175781 C 152.167969 380.078125 152.621094 380.367188 152.722656 380.832031 C 152.757812 381 156.414062 397.890625 157.578125 412.042969 C 158.742188 426.210938 157.589844 441.75 157.578125 441.90625 C 157.542969 442.355469 157.167969 442.695312 156.726562 442.695312 " fill-opacity="1" fill-rule="nonzero"/><path fill="#5679bf" d="M 84.882812 324.742188 C 82.527344 327.777344 81.441406 331.601562 81.597656 335.4375 C 82.238281 351.445312 87.308594 411.371094 127.105469 432.9375 C 154.886719 447.996094 225 456.042969 218.359375 428.265625 C 216.730469 421.449219 205.007812 418.097656 202.269531 417.210938 C 191.8125 413.828125 141.570312 400.273438 141.570312 400.273438 C 141.570312 400.273438 121.578125 340.441406 101.007812 324.300781 C 92.984375 318.003906 87.855469 320.910156 84.882812 324.742188 " fill-opacity="1" fill-rule="nonzero"/><path fill="#ffffff" d="M 209.425781 438.96875 C 209.695312 439.964844 210.652344 440.617188 211.679688 440.503906 C 213.644531 440.292969 216.664062 439.886719 217.203125 439.382812 C 219.921875 436.859375 219.847656 424.539062 218.574219 422.613281 C 217.304688 420.683594 212.914062 421.601562 211.75 421.917969 C 209.109375 422.632812 207.382812 431.5 209.425781 438.96875 " fill-opacity="1" fill-rule="nonzero"/><path fill="#ff867a" d="M 215.015625 423.425781 C 215.015625 423.425781 219.695312 416.414062 221.410156 415.109375 C 223.121094 413.804688 235.589844 410.789062 235.835938 411.546875 C 236.484375 413.546875 227.617188 416.234375 227.617188 416.234375 C 227.617188 416.234375 236.417969 414.746094 236.984375 415.839844 C 237.546875 416.933594 237.085938 417.46875 237.085938 417.46875 C 237.085938 417.46875 238.027344 418.117188 237.636719 419.445312 C 237.394531 420.277344 230.589844 423.304688 230.589844 423.304688 C 230.589844 423.304688 233.65625 422.375 235.667969 422.453125 C 237.679688 422.535156 232.199219 424.84375 229.949219 426.210938 C 227.699219 427.574219 225.035156 432.382812 220.851562 435.09375 C 216.664062 437.800781 213.480469 437.816406 212.617188 436.589844 C 211.753906 435.363281 212.859375 426.542969 215.015625 423.425781 " fill-opacity="1" fill-rule="nonzero"/><path fill="#434a59" d="M 187.402344 447.449219 C 181.34375 447.449219 175.601562 447.078125 175.238281 447.050781 C 143.097656 443.914062 129.34375 438.566406 111.234375 422.183594 C 93.398438 406.054688 87.964844 380.164062 87.910156 379.902344 C 87.796875 379.347656 88.15625 378.804688 88.714844 378.691406 C 89.269531 378.582031 89.816406 378.9375 89.925781 379.496094 C 89.980469 379.75 95.292969 404.988281 112.617188 420.65625 C 130.332031 436.679688 143.828125 441.917969 175.40625 445 C 175.503906 445.007812 188.695312 445.859375 196.140625 445.003906 C 196.703125 444.9375 197.214844 445.34375 197.28125 445.90625 C 197.347656 446.472656 196.941406 446.980469 196.378906 447.050781 C 193.769531 447.347656 190.542969 447.449219 187.402344 447.449219 " fill-opacity="1" fill-rule="nonzero"/><path fill="#434a59" d="M 193.472656 415.617188 C 193.394531 415.617188 193.316406 415.609375 193.238281 415.59375 C 193.113281 415.5625 180.566406 412.65625 167.878906 409.234375 C 141.824219 402.210938 140.589844 399.972656 140.066406 399.015625 C 137.59375 394.519531 122.710938 357.683594 122.078125 356.117188 C 121.867188 355.589844 122.121094 354.988281 122.648438 354.777344 C 123.171875 354.566406 123.773438 354.816406 123.988281 355.347656 C 124.140625 355.730469 139.453125 393.632812 141.871094 398.023438 C 143.277344 400.585938 169.328125 407.949219 193.703125 413.585938 C 194.253906 413.714844 194.601562 414.265625 194.472656 414.820312 C 194.363281 415.296875 193.9375 415.617188 193.472656 415.617188 " fill-opacity="1" fill-rule="nonzero"/><path fill="#f27872" d="M 232.265625 366.601562 C 235.261719 368.792969 238.628906 385.878906 238.628906 385.878906 C 238.628906 385.878906 231.367188 390.03125 226.820312 386.933594 C 224.570312 385.398438 223.601562 380.820312 223.601562 380.820312 C 223.601562 380.820312 222.648438 381.007812 221.5625 377.398438 C 220.804688 374.871094 223.609375 373.226562 225.359375 372.460938 C 223.957031 372.867188 221.683594 373.164062 219.855469 371.722656 C 216.996094 369.460938 229.269531 364.40625 232.265625 366.601562 " fill-opacity="1" fill-rule="nonzero"/><path fill="#aa5b50" d="M 623.042969 336.878906 C 623.042969 336.878906 575.132812 379.382812 568.804688 407.515625 C 562.480469 435.652344 594.269531 488.261719 605.75 487.765625 C 617.238281 487.265625 599.746094 419.503906 601.074219 415.175781 C 602.40625 410.847656 623.726562 379.382812 629.550781 365.0625 C 635.375 350.746094 628.175781 332.136719 623.042969 336.878906 " fill-opacity="1" fill-rule="nonzero"/><path fill="#f2c3a7" d="M 647.503906 284.890625 C 648.640625 279.984375 653.9375 272.753906 660.019531 275.410156 C 667.3125 278.59375 668.417969 283.128906 668.417969 283.128906 C 668.417969 283.128906 668.671875 283.226562 669.070312 283.398438 C 670.433594 283.375 673.628906 283.492188 675.214844 285.015625 C 677.261719 286.988281 677.9375 289.714844 676.84375 289.128906 C 675.757812 288.539062 675.128906 286.621094 674.164062 286.300781 C 673.976562 286.238281 673.792969 286.214844 673.609375 286.199219 C 674.015625 286.625 674.3125 287.074219 674.410156 287.535156 C 677.058594 299.488281 672.363281 300.199219 671.859375 302.582031 C 671.335938 305.089844 668.5 308.148438 667.730469 308.269531 C 666.492188 308.464844 655.503906 296.230469 654.554688 296.492188 C 653.601562 296.753906 652.75 293.488281 652.425781 291.425781 C 652.097656 289.359375 646.582031 288.886719 647.503906 284.890625 " fill-opacity="1" fill-rule="nonzero"/><path fill="#b1d5de" d="M 690.242188 764.984375 L 701.308594 764.984375 C 716.398438 764.984375 779.574219 765.917969 765.394531 767.980469 C 752.246094 769.898438 694.433594 770.984375 679.335938 770.984375 L 665.941406 770.984375 C 620.039062 770.984375 579.324219 769.632812 594.347656 767.980469 C 609.367188 766.332031 640.292969 764.984375 690.242188 764.984375 " fill-opacity="1" fill-rule="nonzero"/><path fill="#434a59" d="M 729.292969 756.210938 C 726.929688 751.691406 726.832031 744.398438 726.734375 744.054688 C 726.316406 742.558594 722.804688 742.035156 721.855469 745.578125 C 719.976562 752.5625 713.050781 744.144531 713.933594 746.664062 C 716.582031 754.175781 717.277344 766.9375 720.015625 767.1875 C 725.855469 767.714844 748.269531 771.355469 747.945312 768.265625 C 747.753906 766.414062 730.867188 759.21875 729.292969 756.210938 " fill-opacity="1" fill-rule="nonzero"/><path fill="#434a59" d="M 617.613281 762.867188 C 620.78125 761.382812 621.117188 758.519531 622.417969 755.773438 C 622.503906 755.589844 622.933594 751.6875 622.929688 751.378906 C 622.914062 750.035156 628.066406 728.527344 629.945312 731.273438 C 633.644531 736.695312 636.523438 745.976562 636.375 748.28125 C 635.929688 755.140625 638.785156 765.957031 636.253906 766.765625 C 630.867188 768.5 605.578125 770.988281 605.03125 768.335938 C 604.703125 766.746094 612.132812 765.433594 617.613281 762.867188 " fill-opacity="1" fill-rule="nonzero"/><path fill="#434a59" d="M 694.597656 466.148438 C 693.820312 464.765625 606.832031 446.164062 601.070312 465.847656 C 601.070312 465.847656 610.230469 743.027344 615.695312 746.96875 C 621.152344 750.910156 634.117188 752.894531 636.996094 746.71875 C 644.765625 730.003906 646.664062 548.082031 645.28125 520.082031 C 646.910156 528.871094 699.214844 741.355469 703.503906 746.71875 C 707.792969 752.074219 722.308594 750.289062 727.308594 746.71875 C 730.238281 744.621094 714.074219 644.996094 707.949219 571.523438 C 702.855469 510.390625 698.628906 473.347656 694.597656 466.148438 " fill-opacity="1" fill-rule="nonzero"/><path fill="#323842" d="M 601.5 478.363281 C 601.226562 470.40625 601.078125 465.847656 601.078125 465.847656 C 602.753906 460.105469 611.347656 457.621094 622.695312 457.019531 C 636.320312 459.3125 651.375 461.523438 659.371094 461.644531 C 664.753906 461.722656 670.992188 461.894531 676.988281 462.089844 C 687.238281 463.980469 694.378906 465.757812 694.597656 466.148438 C 695.457031 467.683594 696.324219 470.574219 697.207031 474.761719 C 689.402344 476.773438 665.46875 482.113281 636.710938 480.472656 C 621.007812 479.578125 609.46875 478.867188 601.5 478.363281 " fill-opacity="1" fill-rule="nonzero"/><path fill="#d17a69" d="M 697.378906 470.777344 C 697.402344 451.289062 697.546875 445.023438 698.191406 429.710938 C 700.484375 375.144531 718.230469 367.292969 711.785156 352.523438 C 705.925781 339.101562 686.992188 325.707031 668.769531 323.953125 C 649.011719 322.046875 627.300781 330.113281 619.425781 340.78125 C 604.871094 360.496094 609.050781 412.738281 599.726562 464.433594 C 597.023438 479.402344 697.378906 472.933594 697.378906 470.777344 " fill-opacity="1" fill-rule="nonzero"/><path fill="#ff867a" d="M 658.246094 334.875 C 669.125 337.464844 675.019531 327.972656 674.878906 324.828125 C 674.878906 324.828125 672.628906 317.65625 672.359375 314.867188 C 672.039062 311.511719 671.851562 301.484375 671.851562 301.484375 L 671.558594 301.675781 L 661.984375 307.972656 L 661.261719 311.097656 L 660.691406 313.554688 L 658.984375 320.917969 C 658.984375 320.917969 654.714844 334.035156 658.246094 334.875 " fill-opacity="1" fill-rule="nonzero"/><path fill="#ff867a" d="M 670.027344 297.410156 C 670.570312 295.992188 671.703125 294 673.417969 295.839844 C 675.917969 298.511719 673.339844 305.453125 669.605469 304.699219 C 666.828125 304.132812 669.746094 298.164062 670.027344 297.410156 " fill-opacity="1" fill-rule="nonzero"/><path fill="#c66c67" d="M 659.742188 313.691406 C 660.050781 313.652344 660.367188 313.605469 660.691406 313.554688 L 658.984375 320.917969 C 663.25 319.09375 665.398438 314.925781 666.207031 312.078125 C 666.617188 310.628906 666.683594 309.519531 666.503906 309.234375 C 666.082031 308.566406 664.402344 310.9375 661.738281 311.871094 C 656.207031 313.816406 652.589844 313.023438 651.554688 312.402344 C 653.03125 313.746094 655.566406 314.179688 659.296875 313.746094 L 659.316406 313.742188 C 659.394531 313.726562 659.476562 313.710938 659.558594 313.695312 L 659.578125 313.691406 C 659.652344 313.675781 659.707031 313.679688 659.742188 313.691406 " fill-opacity="1" fill-rule="nonzero"/><path fill="#ff867a" d="M 650.890625 311.628906 C 650.898438 311.640625 650.902344 311.640625 650.90625 311.65625 C 651.09375 311.929688 651.308594 312.179688 651.554688 312.402344 C 653.03125 313.746094 655.566406 314.179688 659.296875 313.746094 L 659.316406 313.742188 C 659.457031 313.730469 659.597656 313.714844 659.742188 313.691406 C 660.050781 313.652344 660.367188 313.605469 660.691406 313.554688 C 661.074219 313.492188 661.46875 313.425781 661.871094 313.347656 C 663.265625 313.417969 664.785156 312.925781 666.207031 312.078125 C 669.648438 310.03125 672.539062 305.898438 671.863281 302.582031 L 671.558594 301.675781 L 668.277344 291.882812 C 666.5 287.058594 663.546875 286.464844 659.199219 285.652344 C 654.769531 284.828125 654.285156 287.304688 652.910156 290.628906 C 651.589844 293.824219 649.90625 301.4375 649.96875 308.105469 C 649.980469 309.558594 650.28125 310.730469 650.890625 311.628906 " fill-opacity="1" fill-rule="nonzero"/><path fill="#f2c3a7" d="M 669.679688 294.414062 C 669.679688 294.414062 669.417969 299.796875 668.417969 301.484375 C 667.417969 303.175781 664.738281 303.382812 662.558594 303.214844 C 660.375 303.046875 656.753906 300.832031 654.761719 300.578125 C 652.773438 300.324219 650.667969 301.75 649.96875 302.628906 C 649.265625 303.511719 649.199219 307.046875 648.738281 308.597656 C 648.277344 310.148438 648.089844 313.113281 650.144531 314.371094 C 652.199219 315.632812 659.117188 315.121094 661.964844 313.90625 C 664.816406 312.695312 668.683594 311.140625 670.351562 309.507812 C 672.015625 307.871094 671.101562 303.96875 670.558594 301.960938 C 670.011719 299.945312 671.101562 295.335938 670.433594 294.703125 C 669.765625 294.078125 669.679688 294.414062 669.679688 294.414062 " fill-opacity="1" fill-rule="nonzero"/><path fill="#c66c67" d="M 656.433594 300.90625 C 656.480469 301 656.234375 301.144531 655.855469 301.160156 C 655.464844 301.195312 654.917969 301.089844 654.375 300.703125 C 654.371094 300.691406 654.351562 300.679688 654.339844 300.675781 C 654.011719 300.417969 653.800781 300.125 653.660156 299.839844 C 653.457031 299.433594 653.421875 299.046875 653.472656 298.847656 C 653.5 298.730469 653.53125 298.679688 653.59375 298.683594 C 653.621094 298.679688 653.648438 298.6875 653.675781 298.707031 C 653.777344 298.792969 653.921875 299.046875 654.128906 299.328125 C 654.292969 299.542969 654.484375 299.769531 654.730469 299.96875 C 654.757812 300 654.785156 300.015625 654.816406 300.042969 C 655.203125 300.355469 655.628906 300.515625 655.945312 300.632812 C 656.230469 300.734375 656.421875 300.796875 656.433594 300.90625 " fill-opacity="1" fill-rule="nonzero"/><path fill="#f2c3a7" d="M 664.511719 292.457031 C 663.050781 291.488281 661.792969 290.742188 659.980469 291.261719 C 659.472656 291.40625 659.511719 292.070312 660.195312 292.179688 C 662.066406 292.480469 662.664062 292.53125 664.234375 293.300781 C 664.941406 293.636719 665.355469 293.023438 664.511719 292.457031 " fill-opacity="1" fill-rule="nonzero"/><path fill="#f2c3a7" d="M 652.21875 292.210938 C 652.902344 291.640625 653.808594 291.605469 654.597656 291.609375 C 655.125 291.609375 655.472656 292.117188 654.828125 292.367188 C 653.0625 293.058594 653.066406 292.835938 652.253906 293.292969 C 651.679688 293.617188 651.4375 292.871094 652.21875 292.210938 " fill-opacity="1" fill-rule="nonzero"/><path fill="#e7f2f2" d="M 661.507812 332.753906 C 661.507812 332.753906 667.390625 330.257812 669.007812 329.328125 C 670.621094 328.394531 674.152344 322.417969 674.152344 322.417969 L 677.714844 326.503906 C 677.714844 326.503906 674.144531 333.992188 671.292969 336.222656 C 668.441406 338.449219 666.664062 339.09375 666.535156 339.125 C 666.402344 339.15625 661.578125 335.683594 660.953125 335.90625 C 660.332031 336.132812 654.515625 340.292969 654.496094 339.425781 C 654.476562 338.558594 655.207031 330.726562 655.636719 329.800781 C 656.0625 328.871094 657.125 325.246094 657.539062 326.316406 C 659.109375 330.3125 661.507812 332.753906 661.507812 332.753906 " fill-opacity="1" fill-rule="nonzero"/><path fill="#323842" d="M 723.507812 743.269531 C 722.964844 743.269531 722.523438 742.84375 722.511719 742.296875 C 722.394531 737.65625 717.226562 701.207031 715.683594 694.148438 C 714.679688 689.539062 712.355469 668.042969 710.660156 652.351562 C 709.769531 644.09375 709.003906 636.96875 708.695312 634.832031 C 707.816406 628.667969 691.730469 487.035156 691.574219 485.605469 C 691.511719 485.058594 691.902344 484.5625 692.453125 484.5 C 693 484.4375 693.492188 484.832031 693.554688 485.382812 C 693.71875 486.808594 709.796875 628.417969 710.671875 634.546875 C 710.984375 636.71875 711.71875 643.523438 712.648438 652.132812 C 714.335938 667.789062 716.652344 689.21875 717.632812 693.722656 C 719.242188 701.101562 724.382812 737.378906 724.503906 742.246094 C 724.519531 742.796875 724.085938 743.257812 723.53125 743.269531 C 723.523438 743.269531 723.515625 743.269531 723.507812 743.269531 " fill-opacity="1" fill-rule="nonzero"/><path fill="#323842" d="M 645.28125 521.082031 C 644.917969 521.082031 644.566406 520.878906 644.386719 520.527344 C 639.925781 511.636719 633.238281 508.441406 633.171875 508.410156 C 632.671875 508.175781 632.453125 507.582031 632.6875 507.082031 C 632.921875 506.582031 633.511719 506.363281 634.015625 506.597656 C 634.316406 506.738281 641.402344 510.125 646.175781 519.632812 C 646.421875 520.128906 646.222656 520.726562 645.730469 520.976562 C 645.585938 521.046875 645.433594 521.082031 645.28125 521.082031 " fill-opacity="1" fill-rule="nonzero"/><path fill="#323842" d="M 632.832031 514.792969 C 632.316406 514.792969 631.882812 514.398438 631.835938 513.878906 C 631.789062 513.328125 632.199219 512.84375 632.75 512.800781 L 640.511719 512.148438 C 641.046875 512.113281 641.542969 512.511719 641.589844 513.058594 C 641.632812 513.609375 641.226562 514.09375 640.671875 514.136719 L 632.914062 514.789062 C 632.886719 514.792969 632.859375 514.792969 632.832031 514.792969 " fill-opacity="1" fill-rule="nonzero"/><path fill="#323842" d="M 632.832031 743.910156 C 632.804688 743.910156 632.78125 743.902344 632.75 743.902344 C 632.203125 743.863281 631.792969 743.378906 631.835938 742.828125 C 631.863281 742.496094 634.519531 709.207031 635.726562 700.894531 C 636.402344 696.222656 636.285156 658.558594 636.179688 625.324219 C 636.097656 599.636719 636.019531 575.375 636.316406 568.925781 C 636.988281 554.238281 639.566406 520.347656 639.59375 520.007812 C 639.636719 519.457031 640.128906 519.046875 640.664062 519.089844 C 641.21875 519.128906 641.625 519.609375 641.589844 520.160156 C 641.5625 520.5 638.980469 554.359375 638.308594 569.019531 C 638.019531 575.417969 638.097656 599.65625 638.175781 625.320312 C 638.289062 660.246094 638.398438 696.363281 637.699219 701.183594 C 636.503906 709.429688 633.851562 742.65625 633.828125 742.984375 C 633.789062 743.511719 633.351562 743.910156 632.832031 743.910156 " fill-opacity="1" fill-rule="nonzero"/><g clip-path="url(#deb4d0821b)"><path fill="#d17a69" d="M 705.027344 342.5 C 696.976562 334.863281 692.617188 359.734375 694.433594 371.890625 C 696.976562 388.933594 737.503906 415.535156 738.144531 425.921875 C 738.804688 436.566406 691.242188 493.144531 694.601562 502.003906 C 698.027344 511.039062 757.628906 483.386719 769.011719 446.640625 C 782.152344 404.238281 719.613281 356.34375 705.027344 342.5 " fill-opacity="1" fill-rule="nonzero"/></g><path fill="#ff867a" d="M 701.441406 491.648438 C 701.441406 491.648438 684.636719 484.09375 682.601562 485.011719 C 680.570312 485.929688 671.789062 495.699219 673.734375 495.230469 C 675.683594 494.757812 677.667969 492.933594 677.667969 492.933594 C 677.667969 492.933594 674.308594 497.398438 674.335938 498.152344 C 674.371094 498.90625 676.1875 498.800781 676.1875 498.800781 C 676.1875 498.800781 676.851562 501.121094 676.878906 501.273438 C 676.898438 501.429688 681.632812 496.855469 681.632812 496.855469 C 681.632812 496.855469 679.75 500.503906 680.496094 500.917969 C 681.246094 501.324219 685.933594 497.625 685.933594 497.625 C 685.933594 497.625 692.765625 505.699219 702.042969 504.054688 C 711.320312 502.410156 701.441406 491.648438 701.441406 491.648438 " fill-opacity="1" fill-rule="nonzero"/><path fill="#aa5b50" d="M 738.242188 436.808594 C 738.191406 436.804688 738.132812 436.796875 738.082031 436.78125 C 737.386719 436.617188 736.960938 435.921875 737.128906 435.226562 C 737.707031 432.769531 738.679688 425.871094 736.207031 423.496094 C 735.691406 423.003906 735.679688 422.183594 736.175781 421.671875 C 736.667969 421.15625 737.484375 421.140625 738 421.636719 C 741.964844 425.453125 739.886719 434.773438 739.636719 435.824219 C 739.488281 436.464844 738.875 436.878906 738.242188 436.808594 " fill-opacity="1" fill-rule="nonzero"/><path fill="#aa5b50" d="M 704.261719 390.292969 C 703.683594 390.292969 703.117188 390.027344 702.746094 389.523438 L 693.167969 376.4375 C 692.558594 375.601562 692.734375 374.429688 693.570312 373.820312 C 694.402344 373.210938 695.574219 373.390625 696.183594 374.226562 L 705.765625 387.316406 C 706.378906 388.148438 706.195312 389.320312 705.363281 389.929688 C 705.03125 390.171875 704.640625 390.292969 704.261719 390.292969 " fill-opacity="1" fill-rule="nonzero"/><path fill="#ffffff" d="M 651.296875 302.460938 C 651.296875 302.460938 654.488281 302.65625 659.636719 303.296875 C 659.636719 303.296875 657.207031 306.347656 653.863281 306.101562 C 650.519531 305.851562 651.296875 302.460938 651.296875 302.460938 " fill-opacity="1" fill-rule="nonzero"/></svg>