<svg xmlns="http://www.w3.org/2000/svg" xmlns:xlink="http://www.w3.org/1999/xlink" width="1080" zoomAndPan="magnify" viewBox="0 0 810 809.999993" height="1080" preserveAspectRatio="xMidYMid meet" version="1.0"><defs><clipPath id="e3813c10d8"><path d="M 444 547 L 675 547 L 675 713.570312 L 444 713.570312 Z M 444 547 " clip-rule="nonzero"/></clipPath><clipPath id="43d3380e26"><path d="M 444 571 L 542 571 L 542 713.570312 L 444 713.570312 Z M 444 571 " clip-rule="nonzero"/></clipPath></defs><path fill="#807990" d="M 772.746094 687.445312 C 772.746094 687.691406 772.601562 687.941406 772.320312 688.1875 C 772.035156 688.433594 771.609375 688.679688 771.042969 688.921875 C 770.476562 689.167969 769.769531 689.414062 768.921875 689.65625 C 768.074219 689.902344 767.085938 690.144531 765.957031 690.386719 C 764.832031 690.628906 763.5625 690.867188 762.160156 691.109375 C 760.753906 691.347656 759.214844 691.585938 757.535156 691.820312 C 755.859375 692.054688 754.042969 692.289062 752.097656 692.523438 C 750.148438 692.753906 748.070312 692.984375 745.859375 693.210938 C 743.644531 693.441406 741.304688 693.664062 738.832031 693.890625 C 736.359375 694.113281 733.761719 694.332031 731.039062 694.550781 C 728.3125 694.765625 725.464844 694.980469 722.492188 695.191406 C 719.519531 695.402344 716.429688 695.613281 713.21875 695.816406 C 710.007812 696.023438 706.679688 696.222656 703.234375 696.421875 C 699.792969 696.621094 696.234375 696.816406 692.570312 697.003906 C 688.902344 697.195312 685.128906 697.382812 681.246094 697.566406 C 677.363281 697.746094 673.378906 697.925781 669.289062 698.101562 C 665.203125 698.273438 661.019531 698.445312 656.734375 698.609375 C 652.453125 698.777344 648.074219 698.9375 643.605469 699.09375 C 639.140625 699.25 634.582031 699.402344 629.941406 699.546875 C 625.296875 699.695312 620.570312 699.835938 615.765625 699.976562 C 610.960938 700.113281 606.078125 700.242188 601.117188 700.371094 C 596.160156 700.496094 591.132812 700.617188 586.035156 700.734375 C 580.9375 700.851562 575.773438 700.960938 570.546875 701.066406 C 565.324219 701.171875 560.039062 701.273438 554.699219 701.367188 C 549.359375 701.460938 543.96875 701.550781 538.523438 701.632812 C 533.082031 701.714844 527.59375 701.792969 522.0625 701.867188 C 516.53125 701.9375 510.960938 702.003906 505.355469 702.0625 C 499.746094 702.121094 494.109375 702.175781 488.4375 702.222656 C 482.769531 702.273438 477.074219 702.316406 471.355469 702.351562 C 465.640625 702.386719 459.902344 702.417969 454.152344 702.441406 C 448.398438 702.464844 442.636719 702.484375 436.863281 702.496094 C 431.085938 702.507812 425.3125 702.515625 419.53125 702.515625 C 413.75 702.515625 407.972656 702.507812 402.199219 702.496094 C 396.425781 702.484375 390.660156 702.464844 384.910156 702.441406 C 379.15625 702.417969 373.421875 702.386719 367.703125 702.351562 C 361.984375 702.316406 356.289062 702.273438 350.621094 702.222656 C 344.953125 702.175781 339.3125 702.121094 333.707031 702.0625 C 328.097656 702.003906 322.527344 701.9375 316.996094 701.867188 C 311.464844 701.792969 305.976562 701.714844 300.535156 701.632812 C 295.09375 701.550781 289.699219 701.460938 284.359375 701.367188 C 279.019531 701.273438 273.738281 701.171875 268.511719 701.066406 C 263.285156 700.960938 258.125 700.851562 253.027344 700.734375 C 247.925781 700.617188 242.898438 700.496094 237.941406 700.371094 C 232.984375 700.242188 228.101562 700.113281 223.292969 699.976562 C 218.488281 699.835938 213.761719 699.695312 209.121094 699.546875 C 204.476562 699.402344 199.921875 699.25 195.453125 699.09375 C 190.984375 698.9375 186.609375 698.777344 182.324219 698.609375 C 178.042969 698.445312 173.855469 698.273438 169.769531 698.101562 C 165.683594 697.925781 161.695312 697.746094 157.816406 697.566406 C 153.933594 697.382812 150.160156 697.195312 146.492188 697.003906 C 142.824219 696.816406 139.269531 696.621094 135.824219 696.421875 C 132.382812 696.222656 129.054688 696.023438 125.84375 695.816406 C 122.632812 695.613281 119.539062 695.402344 116.566406 695.191406 C 113.597656 694.980469 110.746094 694.765625 108.023438 694.550781 C 105.296875 694.332031 102.699219 694.113281 100.226562 693.890625 C 97.757812 693.664062 95.414062 693.441406 93.203125 693.210938 C 90.988281 692.984375 88.910156 692.753906 86.960938 692.523438 C 85.015625 692.289062 83.203125 692.054688 81.523438 691.820312 C 79.847656 691.585938 78.304688 691.347656 76.902344 691.109375 C 75.496094 690.867188 74.230469 690.628906 73.101562 690.386719 C 71.972656 690.144531 70.988281 689.902344 70.136719 689.65625 C 69.289062 689.414062 68.582031 689.167969 68.015625 688.921875 C 67.449219 688.679688 67.023438 688.433594 66.742188 688.1875 C 66.457031 687.941406 66.316406 687.691406 66.316406 687.445312 C 66.316406 687.199219 66.457031 686.953125 66.742188 686.707031 C 67.023438 686.460938 67.449219 686.214844 68.015625 685.96875 C 68.582031 685.722656 69.289062 685.480469 70.136719 685.234375 C 70.988281 684.992188 71.972656 684.75 73.101562 684.507812 C 74.230469 684.265625 75.496094 684.023438 76.902344 683.785156 C 78.304688 683.546875 79.847656 683.308594 81.523438 683.074219 C 83.203125 682.835938 85.015625 682.601562 86.960938 682.371094 C 88.910156 682.136719 90.988281 681.910156 93.203125 681.679688 C 95.414062 681.453125 97.757812 681.226562 100.226562 681.003906 C 102.699219 680.78125 105.296875 680.5625 108.023438 680.34375 C 110.746094 680.125 113.597656 679.910156 116.566406 679.699219 C 119.539062 679.488281 122.632812 679.28125 125.84375 679.074219 C 129.054688 678.871094 132.382812 678.667969 135.824219 678.472656 C 139.269531 678.273438 142.824219 678.078125 146.492188 677.886719 C 150.160156 677.695312 153.933594 677.511719 157.816406 677.328125 C 161.695312 677.144531 165.683594 676.964844 169.769531 676.792969 C 173.855469 676.617188 178.042969 676.449219 182.324219 676.28125 C 186.609375 676.117188 190.984375 675.957031 195.453125 675.800781 C 199.921875 675.644531 204.476562 675.492188 209.121094 675.34375 C 213.761719 675.195312 218.488281 675.054688 223.292969 674.917969 C 228.101562 674.78125 232.984375 674.648438 237.941406 674.523438 C 242.898438 674.394531 247.925781 674.273438 253.027344 674.15625 C 258.125 674.042969 263.285156 673.929688 268.511719 673.824219 C 273.738281 673.71875 279.019531 673.621094 284.359375 673.527344 C 289.699219 673.429688 295.09375 673.34375 300.535156 673.257812 C 305.976562 673.175781 311.464844 673.097656 316.996094 673.027344 C 322.527344 672.957031 328.097656 672.890625 333.707031 672.832031 C 339.3125 672.769531 344.953125 672.714844 350.621094 672.667969 C 356.289062 672.621094 361.984375 672.578125 367.703125 672.542969 C 373.421875 672.507812 379.15625 672.476562 384.910156 672.453125 C 390.660156 672.425781 396.425781 672.410156 402.199219 672.398438 C 407.972656 672.386719 413.75 672.378906 419.53125 672.378906 C 425.3125 672.378906 431.085938 672.386719 436.863281 672.398438 C 442.636719 672.410156 448.398438 672.425781 454.152344 672.453125 C 459.902344 672.476562 465.640625 672.507812 471.355469 672.542969 C 477.074219 672.578125 482.769531 672.621094 488.4375 672.667969 C 494.109375 672.714844 499.746094 672.769531 505.355469 672.832031 C 510.960938 672.890625 516.53125 672.957031 522.0625 673.027344 C 527.59375 673.097656 533.082031 673.175781 538.523438 673.261719 C 543.96875 673.34375 549.359375 673.429688 554.699219 673.527344 C 560.039062 673.621094 565.324219 673.71875 570.546875 673.824219 C 575.773438 673.929688 580.9375 674.042969 586.035156 674.15625 C 591.132812 674.273438 596.160156 674.394531 601.117188 674.523438 C 606.078125 674.648438 610.960938 674.78125 615.765625 674.917969 C 620.570312 675.054688 625.296875 675.195312 629.941406 675.34375 C 634.582031 675.492188 639.140625 675.644531 643.605469 675.800781 C 648.074219 675.957031 652.453125 676.117188 656.734375 676.28125 C 661.019531 676.449219 665.203125 676.617188 669.289062 676.792969 C 673.378906 676.964844 677.363281 677.144531 681.246094 677.328125 C 685.128906 677.511719 688.902344 677.695312 692.570312 677.886719 C 696.234375 678.078125 699.792969 678.273438 703.234375 678.472656 C 706.679688 678.667969 710.007812 678.871094 713.21875 679.074219 C 716.429688 679.28125 719.519531 679.488281 722.492188 679.699219 C 725.464844 679.910156 728.3125 680.125 731.039062 680.34375 C 733.761719 680.5625 736.359375 680.78125 738.832031 681.003906 C 741.304688 681.226562 743.644531 681.453125 745.859375 681.679688 C 748.070312 681.90625 750.148438 682.136719 752.097656 682.371094 C 754.042969 682.601562 755.859375 682.835938 757.535156 683.074219 C 759.214844 683.308594 760.753906 683.546875 762.160156 683.785156 C 763.5625 684.023438 764.832031 684.265625 765.957031 684.507812 C 767.085938 684.75 768.074219 684.992188 768.921875 685.234375 C 769.769531 685.480469 770.476562 685.722656 771.042969 685.96875 C 771.609375 686.214844 772.035156 686.460938 772.320312 686.707031 C 772.601562 686.953125 772.746094 687.199219 772.746094 687.445312 Z M 772.746094 687.445312 " fill-opacity="1" fill-rule="nonzero"/><path fill="#e5936f" d="M 242.316406 176.359375 C 242.316406 176.359375 229.765625 151.574219 229.941406 142.863281 C 230.117188 134.152344 231.570312 119.1875 232.691406 114.59375 C 233.808594 110.003906 229.054688 110.546875 226.039062 113.949219 C 223.019531 117.347656 221.652344 127.957031 218.328125 127.632812 C 215 127.308594 209.246094 113.992188 207.039062 109.078125 C 204.828125 104.164062 203.578125 96.320312 199.296875 98.925781 C 195.015625 101.53125 203.523438 124.515625 201.859375 124.351562 C 200.195312 124.191406 190.496094 103.105469 187.007812 104.445312 C 183.519531 105.785156 182.5625 108.714844 184.535156 112.597656 C 186.507812 116.480469 194.558594 130.355469 193.765625 131.625 C 192.972656 132.890625 179.140625 115.703125 176.125 119.101562 C 173.109375 122.503906 175.21875 124.882812 178.957031 129.042969 C 181.953125 132.378906 188.878906 139.835938 187.808594 141.113281 C 187.402344 141.597656 176.003906 131.171875 173.160156 135.382812 C 171.726562 137.507812 172.191406 139.441406 178.519531 144.1875 C 180.984375 146.035156 187.632812 149.828125 189.132812 151.652344 C 190.632812 153.476562 195.253906 160.464844 200.21875 165.972656 C 204.222656 170.410156 231.1875 229.167969 231.1875 229.167969 C 231.1875 229.167969 243.386719 189.535156 242.316406 176.359375 Z M 242.316406 176.359375 " fill-opacity="1" fill-rule="nonzero"/><path fill="#cf5d4c" d="M 206.40625 156.589844 C 206.335938 148.222656 205.328125 140.71875 212.816406 135.992188 C 215.074219 134.566406 215.433594 131.617188 213.207031 132.980469 C 205.414062 137.753906 199.929688 148.054688 202.84375 157.160156 C 203.402344 158.898438 206.421875 158.421875 206.40625 156.589844 Z M 206.40625 156.589844 " fill-opacity="1" fill-rule="nonzero"/><path fill="#4d4d4d" d="M 240.257812 172.304688 C 259.089844 208.351562 275.0625 244.46875 295.179688 269.417969 C 306.429688 283.367188 357.175781 308.976562 374.679688 315.695312 C 378.148438 317.027344 395.652344 322.265625 408.816406 321.835938 C 419.734375 321.480469 452.417969 321.476562 452.417969 321.476562 L 454.785156 326.082031 C 462.9375 328.738281 488.328125 338.539062 495.480469 344.925781 C 496.105469 345.472656 513.71875 359.148438 514.335938 359.714844 C 542.847656 386.097656 572.804688 397.921875 591.21875 403.078125 C 602.222656 406.164062 609.105469 406.859375 609.105469 406.859375 C 610.164062 406.875 611.21875 406.878906 612.28125 406.863281 C 655.335938 406.398438 703.554688 385.230469 703.554688 385.230469 C 708.632812 392.324219 708.980469 414.605469 707.578125 435.84375 C 663.339844 450.183594 609.640625 461.351562 588.78125 459.089844 C 567.140625 456.746094 510.4375 433.078125 505.632812 432.234375 C 500.828125 431.390625 496.804688 433.691406 495.21875 448.507812 C 494.429688 455.863281 485.941406 523.179688 488.445312 526.855469 C 488.445312 526.855469 353.90625 531.671875 354.140625 522.726562 C 355.328125 477.632812 352.644531 385.074219 352.644531 385.074219 C 346.789062 380.058594 291.042969 346.507812 275.855469 331.570312 C 261.269531 317.222656 236.347656 268.613281 213.4375 216.902344 C 219.019531 205.195312 227.714844 190.773438 240.257812 172.304688 Z M 240.257812 172.304688 " fill-opacity="1" fill-rule="nonzero"/><path fill="#493333" d="M 387.324219 321.835938 C 387.617188 321.53125 387.910156 321.234375 388.195312 320.933594 C 387.855469 321.226562 387.5625 321.527344 387.324219 321.835938 Z M 387.324219 321.835938 " fill-opacity="1" fill-rule="nonzero"/><path fill="#232828" d="M 351.191406 366.835938 C 353.117188 358.0625 355.417969 349.386719 358.21875 340.855469 C 359.492188 336.945312 360.78125 332.875 363.394531 329.613281 C 365.789062 326.613281 369.203125 324.710938 372.660156 323.136719 C 371.96875 322.96875 371.273438 322.769531 370.601562 322.507812 C 367.660156 323.9375 364.855469 325.671875 362.675781 328.140625 C 360.117188 331.039062 358.6875 334.707031 357.453125 338.324219 C 354.332031 347.5 351.761719 356.875 349.769531 366.355469 C 349.582031 367.289062 350.984375 367.773438 351.191406 366.835938 Z M 351.191406 366.835938 " fill-opacity="1" fill-rule="nonzero"/><path fill="#1a1a1a" d="M 694.816406 428.65625 C 693.785156 438.160156 695.777344 439.53125 696.789062 439.222656 C 697.804688 438.917969 706.78125 436.257812 707.578125 435.84375 C 708.375 435.429688 709.054688 414.976562 709.054688 414.976562 Z M 694.816406 428.65625 " fill-opacity="1" fill-rule="nonzero"/><path fill="#e5936f" d="M 703.253906 386.207031 C 708.210938 382.757812 712.734375 379.144531 714.507812 376.398438 C 719.242188 369.082031 726.414062 355.867188 728.058594 351.4375 C 729.703125 347.007812 733.335938 350.121094 733.933594 354.625 C 734.527344 359.128906 729.722656 368.6875 732.660156 370.28125 C 735.59375 371.875 747.820312 364.0625 752.402344 361.226562 C 756.980469 358.390625 762.410156 352.589844 764.5 357.144531 C 766.589844 361.703125 746.671875 375.984375 748.140625 376.78125 C 749.609375 377.578125 769.453125 365.535156 771.59375 368.597656 C 773.734375 371.660156 772.886719 374.621094 769.078125 376.738281 C 765.265625 378.851562 750.828125 385.84375 750.777344 387.335938 C 750.726562 388.828125 771.808594 382.328125 772.40625 386.835938 C 773 391.339844 769.921875 392.132812 764.496094 393.488281 C 760.144531 394.574219 750.226562 396.875 750.402344 398.535156 C 750.464844 399.164062 765.75 396.90625 765.746094 401.984375 C 765.746094 404.546875 764.277344 405.890625 756.375 406.28125 C 753.300781 406.433594 745.667969 405.851562 743.402344 406.523438 C 741.136719 407.195312 733.398438 410.402344 726.199219 412.1875 C 724.046875 412.71875 715.113281 417.664062 704.714844 423.679688 C 702.148438 425.167969 697.476562 427.09375 694.8125 428.65625 C 694.816406 428.65625 694.984375 391.953125 703.253906 386.207031 Z M 703.253906 386.207031 " fill-opacity="1" fill-rule="nonzero"/><path fill="#cf5d4c" d="M 726.324219 400.949219 C 731.070312 394.050781 736.105469 388.398438 732.546875 380.289062 C 731.472656 377.847656 732.828125 375.203125 733.90625 377.574219 C 737.695312 385.894531 736.472656 397.5 728.957031 403.410156 C 727.519531 404.542969 725.285156 402.457031 726.324219 400.949219 Z M 726.324219 400.949219 " fill-opacity="1" fill-rule="nonzero"/><path fill="#1a1a1a" d="M 501.359375 433.800781 C 501.050781 433.800781 500.746094 433.671875 500.523438 433.425781 C 484.953125 415.90625 485.648438 397.285156 485.683594 396.5 C 485.714844 395.882812 486.222656 395.414062 486.851562 395.4375 C 487.46875 395.464844 487.945312 395.988281 487.917969 396.605469 C 487.910156 396.789062 487.257812 415.132812 502.195312 431.941406 C 502.605469 432.402344 502.566406 433.109375 502.101562 433.519531 C 501.890625 433.707031 501.625 433.800781 501.359375 433.800781 Z M 501.359375 433.800781 " fill-opacity="1" fill-rule="nonzero"/><path fill="#e5936f" d="M 460.863281 327.925781 C 460.863281 327.925781 455.285156 331.800781 448.453125 336.496094 C 441.464844 341.304688 433.164062 346.972656 428.179688 350.214844 C 418.332031 356.628906 408.160156 359.453125 403.65625 354.328125 C 400.5 350.730469 401.984375 336.964844 403.152344 329.082031 C 403.640625 325.726562 403.078125 321.710938 403.078125 321.710938 C 403.078125 321.710938 410.519531 322.136719 414.664062 317.933594 C 415.148438 317.441406 415.527344 316.945312 415.792969 316.4375 C 418.332031 311.53125 417.28125 306.945312 417.28125 306.945312 L 435.910156 293.789062 L 457.9375 280.058594 C 457.9375 280.058594 447.714844 304.644531 451.539062 314.085938 C 455.363281 323.527344 460.863281 327.925781 460.863281 327.925781 Z M 460.863281 327.925781 " fill-opacity="1" fill-rule="nonzero"/><path fill="#ffffff" d="M 448.457031 336.492188 C 441.464844 341.304688 433.164062 346.972656 428.183594 350.214844 C 418.332031 356.628906 408.160156 359.453125 403.660156 354.328125 C 400.5 350.726562 401.988281 336.960938 403.152344 329.082031 C 406.792969 332.304688 419.824219 341.246094 448.457031 336.492188 Z M 448.457031 336.492188 " fill-opacity="1" fill-rule="nonzero"/><path fill="#1a1a1a" d="M 413.476562 251.351562 C 413.070312 251.46875 412.613281 251.367188 412.296875 251.046875 C 412.164062 250.910156 409.011719 247.722656 406.730469 243.117188 C 403.625 236.84375 403.664062 230.984375 406.84375 226.175781 C 407.210938 225.621094 407.953125 225.472656 408.503906 225.835938 C 409.054688 226.203125 409.207031 226.945312 408.84375 227.496094 C 402.285156 237.410156 413.875 249.234375 413.992188 249.355469 C 414.460938 249.824219 414.457031 250.582031 413.988281 251.046875 C 413.839844 251.195312 413.664062 251.296875 413.476562 251.351562 Z M 413.476562 251.351562 " fill-opacity="1" fill-rule="nonzero"/><path fill="#1a1a1a" d="M 412.5625 251.167969 C 411.289062 247.480469 408.070312 245.546875 407.578125 241.195312 C 406.859375 234.867188 410.148438 228.257812 415.632812 225.015625 C 418.785156 223.15625 422.445312 222.390625 426.03125 221.652344 C 429.339844 220.96875 432.648438 220.289062 435.957031 219.605469 C 437.976562 219.191406 440.078125 218.773438 442.074219 219.28125 C 444.949219 220.003906 447.277344 220.5 448.835938 223.015625 C 450.398438 225.535156 452.429688 228.550781 453.648438 232.253906 C 460.21875 230.300781 468.257812 235.410156 468.03125 243.039062 C 471.523438 245.746094 472.871094 251.421875 472.222656 254.109375 C 471.113281 258.710938 474.570312 258.867188 476.792969 262.316406 C 478.15625 264.433594 478.199219 266.320312 477.5625 268.710938 C 475.914062 274.914062 472.71875 280.949219 468.644531 285.75 C 464.886719 290.183594 452.558594 300.464844 452.558594 300.464844 C 443.078125 303.421875 421.625 277.113281 421.625 277.113281 C 420.761719 274.636719 419.894531 272.160156 419.027344 269.679688 C 417.085938 264.121094 415.144531 258.558594 413.199219 252.996094 C 412.984375 252.386719 412.773438 251.777344 412.5625 251.167969 Z M 412.5625 251.167969 " fill-opacity="1" fill-rule="nonzero"/><path fill="#e5936f" d="M 466.648438 277.703125 C 468.445312 292.167969 459.03125 293.632812 455.0625 293.269531 C 453.683594 293.140625 454.269531 291.847656 454.269531 291.847656 C 450.101562 301.652344 443.671875 307.488281 435.652344 309.628906 C 431.207031 310.820312 426.265625 310.867188 420.945312 309.8125 C 420.03125 309.640625 419.09375 309.417969 418.152344 309.175781 C 413.046875 307.84375 403.113281 303.40625 400.574219 297.675781 C 400.496094 297.503906 400.429688 297.332031 400.371094 297.160156 C 396.304688 285.851562 413.796875 247.238281 413.796875 247.238281 C 416.550781 245.242188 421.839844 244.605469 423.914062 245.050781 C 425.984375 245.5 431.46875 245.636719 434.371094 247.382812 C 435.921875 250.289062 438.875 257.480469 444.511719 260.523438 C 445.386719 260.996094 447.363281 262.242188 448.121094 262.882812 C 449.855469 264.363281 449.398438 265.957031 449.507812 268.234375 C 449.613281 270.417969 449.925781 271.5625 449.296875 273.652344 C 449.027344 274.554688 448.695312 275.539062 449.070312 276.402344 C 449.589844 277.59375 451.957031 278.472656 452.644531 278.226562 C 452.925781 278.125 453.136719 277.902344 453.339844 277.6875 C 461.699219 268.863281 466.210938 274.199219 466.648438 277.703125 Z M 466.648438 277.703125 " fill-opacity="1" fill-rule="nonzero"/><path fill="#cf5d4c" d="M 411.457031 277.777344 C 411.65625 277.117188 412.394531 276.710938 413.0625 276.917969 C 413.71875 277.125 414.375 277.328125 415.03125 277.535156 C 415.695312 277.742188 416.09375 278.46875 415.890625 279.140625 C 415.691406 279.804688 414.949219 280.210938 414.285156 280 C 413.628906 279.796875 412.972656 279.589844 412.316406 279.386719 C 411.652344 279.179688 411.253906 278.449219 411.457031 277.777344 Z M 411.457031 277.777344 " fill-opacity="1" fill-rule="nonzero"/><path fill="#1a1a1a" d="M 431.785156 251.589844 C 433.132812 252.789062 434.652344 253.765625 435.929688 255.035156 C 437.230469 256.324219 438.363281 257.773438 439.609375 259.113281 C 440.738281 260.320312 438.949219 262.179688 437.816406 260.960938 C 436.566406 259.625 435.4375 258.167969 434.132812 256.882812 C 432.847656 255.617188 431.335938 254.636719 429.988281 253.441406 C 428.75 252.339844 430.546875 250.488281 431.785156 251.589844 Z M 431.785156 251.589844 " fill-opacity="1" fill-rule="nonzero"/><path fill="#1a1a1a" d="M 414.894531 256.121094 C 415.257812 255.902344 415.5 255.503906 415.496094 255.050781 C 415.488281 254.371094 414.933594 253.820312 414.25 253.824219 C 414.089844 253.828125 411.847656 253.472656 408.320312 255.332031 C 407.710938 255.648438 407.484375 256.398438 407.800781 257.003906 C 408.121094 257.609375 408.871094 257.839844 409.472656 257.523438 C 412.453125 255.953125 414.234375 256.300781 414.269531 256.300781 C 414.5 256.296875 414.714844 256.234375 414.894531 256.121094 Z M 414.894531 256.121094 " fill-opacity="1" fill-rule="nonzero"/><path fill="#1a1a1a" d="M 452.058594 224.039062 C 451.699219 224.140625 451.296875 224.078125 450.980469 223.828125 C 441.398438 216.226562 421.417969 225.039062 421.21875 225.128906 C 420.625 225.390625 419.90625 225.128906 419.636719 224.523438 C 419.363281 223.921875 419.636719 223.210938 420.238281 222.941406 C 421.113281 222.550781 441.757812 213.453125 452.46875 221.949219 C 452.988281 222.359375 453.074219 223.113281 452.664062 223.632812 C 452.503906 223.835938 452.289062 223.972656 452.058594 224.039062 Z M 452.058594 224.039062 " fill-opacity="1" fill-rule="nonzero"/><path fill="#cf5d4c" d="M 432.953125 308.914062 C 424.65625 313.246094 419.144531 311.089844 411.058594 306.488281 C 415.265625 307.613281 423.636719 306.390625 430.511719 304.621094 C 435.957031 303.21875 441.160156 299.8125 444.570312 297.199219 C 447.035156 295.3125 443.125 303.601562 432.953125 308.914062 Z M 432.953125 308.914062 " fill-opacity="1" fill-rule="nonzero"/><path fill="#1a1a1a" d="M 431.226562 265.097656 C 431.667969 264.71875 432.167969 264.527344 432.703125 264.625 C 432.761719 264.628906 432.824219 264.632812 432.882812 264.640625 C 432.90625 264.640625 432.925781 264.632812 432.949219 264.636719 C 432.972656 264.640625 432.988281 264.652344 433.011719 264.65625 C 434.851562 264.96875 435.183594 267.539062 434.191406 268.890625 C 434.054688 269.226562 433.851562 269.519531 433.535156 269.695312 C 433.222656 269.867188 432.851562 269.925781 432.492188 269.882812 C 432.460938 269.894531 432.433594 269.910156 432.394531 269.914062 C 431.515625 270.019531 430.949219 269.480469 430.671875 268.71875 C 429.953125 267.632812 430.1875 265.996094 431.226562 265.097656 Z M 431.226562 265.097656 " fill-opacity="1" fill-rule="nonzero"/><path fill="#1a1a1a" d="M 406.140625 263.585938 C 406.976562 262.621094 408.460938 262.554688 409.363281 263.472656 C 409.445312 263.550781 409.515625 263.640625 409.578125 263.738281 C 409.796875 264.039062 409.90625 264.414062 409.863281 264.808594 C 409.859375 264.855469 409.855469 264.898438 409.847656 264.945312 C 409.84375 264.960938 409.84375 264.972656 409.839844 264.988281 C 409.6875 265.671875 409.515625 266.363281 409.054688 266.914062 C 408.175781 267.980469 406.589844 267.675781 405.863281 266.609375 C 405.234375 265.683594 405.425781 264.410156 406.140625 263.585938 Z M 406.140625 263.585938 " fill-opacity="1" fill-rule="nonzero"/><path fill="#ffffff" d="M 421.8125 285.4375 C 416.570312 285.929688 406.0625 283.78125 406.0625 283.78125 C 409.109375 303.941406 421.8125 285.4375 421.8125 285.4375 Z M 421.8125 285.4375 " fill-opacity="1" fill-rule="nonzero"/><path fill="#e5936f" d="M 677.261719 614.640625 C 670.699219 612.140625 653.195312 597.84375 649.445312 596.398438 C 645.691406 594.953125 621.9375 618.089844 620.6875 628.714844 C 619.4375 639.339844 654.445312 658.078125 658.195312 660.890625 C 661.945312 663.703125 686.324219 640.265625 687.886719 636.203125 C 689.453125 632.140625 677.261719 614.640625 677.261719 614.640625 Z M 677.261719 614.640625 " fill-opacity="1" fill-rule="nonzero"/><path fill="#ae5a40" d="M 740.367188 558.65625 C 710.390625 594.640625 700.703125 603.859375 693.515625 606.359375 C 686.328125 608.859375 679.449219 613.078125 677.261719 614.640625 C 675.074219 616.203125 675.386719 629.328125 674.449219 632.453125 C 673.511719 635.578125 665.386719 642.765625 658.507812 651.203125 C 651.632812 659.640625 652.257812 666.207031 656.007812 672.769531 C 659.757812 679.332031 680.597656 695.320312 681.507812 695.761719 C 682.417969 696.207031 727.582031 629.328125 735.398438 610.265625 C 743.210938 591.203125 740.367188 558.65625 740.367188 558.65625 Z M 740.367188 558.65625 " fill-opacity="1" fill-rule="nonzero"/><path fill="#1a1a1a" d="M 756.339844 554.011719 C 734.929688 553.074219 723.050781 578.703125 719.535156 587.375 C 716.019531 596.046875 713.675781 609.640625 708.515625 618.78125 C 703.359375 627.921875 688.121094 645.5 678.746094 655.109375 C 669.371094 664.71875 665.953125 685.746094 676.378906 691.664062 C 686.804688 697.585938 728.441406 633.3125 728.441406 633.3125 Z M 756.339844 554.011719 " fill-opacity="1" fill-rule="nonzero"/><path fill="#604040" d="M 756.339844 554.011719 C 737.117188 553.589844 725.082031 579.015625 719.457031 599.640625 C 713.832031 620.265625 712.066406 626.515625 702.945312 636.203125 C 693.828125 645.890625 678.511719 657.457031 673.824219 671.203125 C 669.136719 684.957031 675.699219 698.082031 691.953125 698.082031 C 708.207031 698.082031 718.519531 690.269531 725.394531 674.957031 C 732.273438 659.644531 743.523438 650.890625 753.214844 643.390625 C 762.902344 635.890625 772.28125 623.390625 778.21875 604.328125 C 784.15625 585.265625 777.90625 571.515625 773.53125 564.636719 C 769.152344 557.761719 761.796875 554.132812 756.339844 554.011719 Z M 756.339844 554.011719 " fill-opacity="1" fill-rule="nonzero"/><path fill="#e5936f" d="M 132.789062 614.640625 C 139.351562 612.140625 156.855469 597.84375 160.605469 596.398438 C 164.355469 594.953125 188.109375 618.089844 189.363281 628.714844 C 190.613281 639.339844 155.605469 658.078125 151.855469 660.890625 C 148.105469 663.703125 123.726562 640.265625 122.164062 636.203125 C 120.597656 632.140625 132.789062 614.640625 132.789062 614.640625 Z M 132.789062 614.640625 " fill-opacity="1" fill-rule="nonzero"/><path fill="#ae5a40" d="M 69.683594 558.65625 C 99.660156 594.640625 109.347656 603.859375 116.535156 606.359375 C 123.726562 608.859375 130.601562 613.078125 132.789062 614.640625 C 134.976562 616.203125 134.664062 629.328125 135.601562 632.453125 C 136.539062 635.578125 144.667969 642.765625 151.542969 651.203125 C 158.417969 659.640625 157.792969 666.207031 154.042969 672.769531 C 150.292969 679.332031 129.453125 695.320312 128.542969 695.761719 C 127.632812 696.207031 82.46875 629.328125 74.652344 610.265625 C 66.839844 591.203125 69.683594 558.65625 69.683594 558.65625 Z M 69.683594 558.65625 " fill-opacity="1" fill-rule="nonzero"/><path fill="#1a1a1a" d="M 53.710938 554.011719 C 75.121094 553.074219 87 578.703125 90.515625 587.375 C 94.03125 596.046875 96.375 609.640625 101.535156 618.78125 C 106.691406 627.921875 121.929688 645.5 131.304688 655.109375 C 140.679688 664.71875 144.097656 685.746094 133.671875 691.664062 C 123.246094 697.585938 81.609375 633.3125 81.609375 633.3125 Z M 53.710938 554.011719 " fill-opacity="1" fill-rule="nonzero"/><path fill="#604040" d="M 53.710938 554.011719 C 72.933594 553.589844 84.96875 579.015625 90.59375 599.640625 C 96.21875 620.265625 97.984375 626.515625 107.105469 636.203125 C 116.222656 645.890625 131.539062 657.457031 136.226562 671.203125 C 140.914062 684.957031 134.351562 698.082031 118.097656 698.082031 C 101.84375 698.082031 91.53125 690.269531 84.65625 674.957031 C 77.777344 659.644531 66.527344 650.890625 56.835938 643.390625 C 47.148438 635.890625 37.769531 623.390625 31.832031 604.328125 C 25.894531 585.265625 32.144531 571.515625 36.519531 564.636719 C 40.898438 557.761719 48.253906 554.132812 53.710938 554.011719 Z M 53.710938 554.011719 " fill-opacity="1" fill-rule="nonzero"/><path fill="#e2cfb9" d="M 615.695312 511.8125 L 615.296875 517.347656 L 614.746094 524.886719 L 614.472656 528.679688 L 614.4375 529.105469 C 610.621094 580.808594 606.039062 634.253906 604.757812 635.414062 C 603.546875 636.507812 556.363281 636.347656 507.230469 635.746094 C 503.304688 635.699219 499.371094 635.644531 495.433594 635.597656 C 448.660156 634.960938 403.304688 633.957031 397.246094 633.277344 C 396.953125 633.238281 396.75 633.207031 396.644531 633.175781 C 391.957031 631.75 349.472656 624.832031 349.472656 624.832031 C 349.472656 624.832031 350.183594 576.652344 352.066406 527.386719 C 352.246094 522.695312 352.4375 517.996094 352.636719 513.332031 C 354.605469 467.496094 357.640625 424.644531 362.089844 423.226562 C 362.527344 423.09375 363.4375 422.960938 364.785156 422.839844 C 377.433594 421.722656 428.496094 421.375 481.625 422.027344 C 481.636719 422.027344 481.636719 422.027344 481.648438 422.027344 C 488.996094 422.113281 496.378906 422.226562 503.714844 422.363281 C 530.617188 422.847656 556.746094 423.589844 577.382812 424.636719 C 588.0625 425.179688 619.210938 432.078125 619.804688 432.738281 C 620.765625 433.800781 618.644531 470.167969 615.695312 511.8125 Z M 615.695312 511.8125 " fill-opacity="1" fill-rule="nonzero"/><path fill="#bfaa9f" d="M 613.597656 433.285156 C 605.769531 433.816406 597.753906 433.25 589.902344 433.175781 C 586.554688 433.140625 557.457031 433.585938 523.015625 434.140625 C 518.179688 434.21875 513.242188 434.304688 508.25 434.382812 C 464.847656 435.089844 417.78125 435.882812 404.273438 436.074219 C 405.582031 444.171875 404.464844 482 402.742188 522.726562 C 402.535156 527.585938 402.320312 532.488281 402.109375 537.390625 C 400.226562 579.039062 397.972656 620.355469 397.253906 633.28125 C 396.953125 633.234375 396.757812 633.203125 396.644531 633.179688 C 391.957031 631.75 349.476562 624.839844 349.476562 624.839844 C 349.476562 624.839844 350.191406 576.652344 352.074219 527.390625 C 352.085938 526.976562 352.109375 526.546875 352.121094 526.121094 C 352.285156 521.851562 352.460938 517.574219 352.644531 513.328125 C 354.617188 467.503906 357.636719 424.640625 362.089844 423.230469 C 362.523438 423.09375 363.4375 422.964844 364.789062 422.84375 C 378.195312 425.957031 397.273438 430.535156 402.695312 432.582031 C 417.351562 432.011719 432.042969 431.777344 446.714844 431.476562 C 466.703125 431.074219 486.691406 430.828125 506.6875 430.695312 C 511.777344 430.660156 516.871094 430.636719 521.960938 430.625 C 524.707031 430.609375 527.460938 430.601562 530.203125 430.59375 C 544.027344 430.566406 557.851562 430.589844 571.667969 430.675781 C 578.574219 430.714844 585.484375 430.773438 592.390625 430.839844 C 599.457031 430.910156 606.671875 430.597656 613.699219 431.277344 C 615.027344 431.394531 614.863281 433.203125 613.597656 433.285156 Z M 613.597656 433.285156 " fill-opacity="1" fill-rule="nonzero"/><path fill="#ffffff" d="M 615.695312 511.8125 L 615.296875 517.347656 L 614.746094 524.886719 L 614.472656 528.679688 L 614.4375 529.105469 L 543.355469 532.363281 C 543.355469 532.363281 546.855469 533.730469 546.617188 538.476562 C 546.375 543.222656 535.796875 564.101562 531.109375 562.671875 C 526.421875 561.246094 513.085938 542.722656 513.085938 542.722656 L 507.230469 635.746094 C 503.304688 635.703125 499.371094 635.644531 495.433594 635.601562 L 502.785156 546.367188 C 502.785156 546.367188 493.332031 568.488281 492.972656 575.609375 C 492.972656 575.609375 483.597656 572.753906 484.019531 564.449219 C 484.441406 556.140625 498.941406 528.324219 498.941406 528.324219 L 491.761719 529.148438 C 491.761719 529.148438 481.304688 547.652344 479.03125 568.953125 C 477.59375 582.421875 479.777344 601.113281 479.777344 601.113281 C 479.777344 601.113281 462.320312 616.882812 458.820312 615.515625 C 455.320312 614.144531 458.089844 559.5625 483.394531 529.914062 C 483.394531 529.914062 405.136719 536.246094 401.800781 537.46875 C 398.964844 538.511719 362.765625 529.953125 352.066406 527.386719 C 352.246094 522.699219 352.4375 517.996094 352.636719 513.332031 C 362.347656 514.492188 399.445312 522.574219 402.027344 522.742188 C 404.980469 522.9375 481.117188 516.117188 481.117188 516.117188 C 481.117188 516.117188 468.367188 509.519531 469.734375 506.023438 C 471.101562 502.523438 480.371094 483.957031 489.746094 486.8125 C 499.121094 489.667969 507.46875 512.695312 507.46875 512.695312 C 507.46875 512.695312 509.75 433.328125 507.746094 431.335938 C 506.421875 430.007812 491.519531 425.160156 481.648438 422.027344 C 488.996094 422.117188 496.378906 422.230469 503.714844 422.363281 C 511.929688 425.101562 520.726562 428.542969 522.390625 431.164062 C 525.628906 436.289062 518.914062 521.605469 520.101562 521.664062 C 521.136719 521.71875 595.707031 513.902344 615.695312 511.8125 Z M 615.695312 511.8125 " fill-opacity="1" fill-rule="nonzero"/><path fill="#e4e9eb" d="M 402.742188 522.726562 C 402.535156 527.585938 402.320312 532.488281 402.109375 537.390625 C 401.972656 537.414062 401.878906 537.441406 401.804688 537.46875 C 398.964844 538.515625 362.785156 529.949219 352.074219 527.394531 L 352.0625 527.390625 C 352.085938 526.964844 352.097656 526.546875 352.117188 526.121094 C 352.28125 521.851562 352.457031 517.574219 352.640625 513.328125 C 362.347656 514.488281 399.441406 522.578125 402.03125 522.742188 C 402.15625 522.75 402.394531 522.75 402.742188 522.726562 Z M 402.742188 522.726562 " fill-opacity="1" fill-rule="nonzero"/><path fill="#ffffff" d="M 523.015625 434.140625 C 518.179688 434.21875 513.242188 434.304688 508.25 434.382812 C 508.121094 432.625 507.957031 431.542969 507.75 431.332031 C 507.589844 431.167969 507.214844 430.953125 506.683594 430.695312 C 502.847656 428.84375 490.304688 424.773438 481.648438 422.027344 C 489 422.121094 496.378906 422.222656 503.71875 422.367188 C 511.382812 424.914062 519.546875 428.082031 521.960938 430.625 C 522.140625 430.800781 522.277344 430.984375 522.394531 431.15625 C 522.671875 431.601562 522.871094 432.621094 523.015625 434.140625 Z M 523.015625 434.140625 " fill-opacity="1" fill-rule="nonzero"/><path fill="#e4e9eb" d="M 532.832031 545.949219 C 527.097656 541.230469 520.679688 537.234375 514.148438 533.675781 C 515.738281 532.207031 517.707031 530.503906 517.417969 528.289062 C 517.101562 525.855469 515.097656 523.359375 513.117188 522.03125 C 509.476562 519.589844 504.808594 520.171875 502.09375 523.238281 C 497.90625 517.234375 493.582031 511.097656 488.527344 505.800781 C 486.644531 503.824219 484.367188 501.554688 481.71875 500.675781 C 479.328125 499.882812 477.324219 500.734375 475.476562 502.089844 C 475.398438 502.101562 475.320312 502.101562 475.242188 502.132812 C 473.21875 502.9375 472.339844 505.125 472.839844 507.207031 C 473.484375 509.882812 476.261719 511.738281 478.222656 513.402344 C 482.078125 516.675781 486.125 519.703125 490.308594 522.535156 C 483.867188 525.53125 478.816406 530.691406 475.757812 537.210938 C 475.113281 538.585938 477.371094 539.320312 478.007812 537.953125 C 480.988281 531.578125 486.167969 526.828125 492.53125 524.03125 C 494.480469 525.296875 496.457031 526.527344 498.46875 527.695312 C 498.992188 528 499.507812 527.859375 499.863281 527.542969 C 500.261719 527.859375 500.820312 527.945312 501.292969 527.480469 C 501.527344 527.25 501.757812 527.007812 501.988281 526.773438 C 502.257812 526.734375 502.503906 526.59375 502.648438 526.296875 C 502.726562 526.140625 502.8125 525.996094 502.902344 525.847656 C 503.410156 525.332031 503.929688 524.828125 504.480469 524.363281 C 506.566406 522.597656 508.753906 523.339844 510.605469 524.984375 C 511.925781 526.15625 513.105469 527.304688 512.535156 529.210938 C 512.183594 530.390625 511.511719 531.542969 510.898438 532.6875 C 510.832031 532.746094 510.769531 532.8125 510.710938 532.890625 C 509.539062 534.460938 507.265625 537.566406 504.859375 536.546875 C 503.21875 535.847656 501.90625 534.097656 500.65625 532.886719 C 499.707031 531.964844 498.273438 533.242188 499.128906 534.269531 C 499.203125 534.359375 499.285156 534.457031 499.363281 534.550781 C 499.3125 534.765625 499.328125 535.003906 499.472656 535.257812 C 500.484375 537.03125 501.816406 538.863281 503.75 539.328125 C 503.851562 539.640625 504.066406 539.902344 504.449219 539.984375 C 507.636719 540.667969 510.085938 539.40625 511.914062 537.21875 C 515.453125 542.699219 518.644531 548.417969 522.605469 553.617188 C 524.535156 556.148438 526.742188 558.972656 529.347656 560.855469 C 531.496094 562.40625 533.265625 560.804688 534.707031 559.070312 C 536.199219 557.28125 537.984375 554.574219 537.921875 552.136719 C 537.851562 549.386719 534.734375 547.515625 532.832031 545.949219 Z M 532.832031 545.949219 " fill-opacity="1" fill-rule="nonzero"/><path fill="#e74854" d="M 488.433594 686.554688 C 488.433594 686.554688 455.035156 687.03125 409.027344 687.570312 C 397.582031 687.714844 385.375 687.855469 372.710938 687.984375 C 274.296875 689.078125 148.28125 690.058594 144.429688 688.140625 C 138.597656 685.222656 139.46875 592.308594 142.117188 575.09375 C 142.351562 573.605469 142.589844 572.683594 142.84375 572.433594 C 146.015625 569.261719 182.476562 559.75 190.402344 558.167969 C 198.328125 556.582031 469.410156 554.996094 475.753906 559.75 C 481.222656 563.855469 483.964844 567.453125 484.757812 573.730469 C 484.882812 574.730469 485.042969 575.378906 485.265625 575.601562 C 486.851562 577.1875 488.433594 686.554688 488.433594 686.554688 Z M 488.433594 686.554688 " fill-opacity="1" fill-rule="nonzero"/><path fill="#bb272d" d="M 484.757812 573.734375 C 429.511719 575 179.972656 576.0625 142.117188 575.097656 C 142.351562 573.605469 142.589844 572.6875 142.84375 572.433594 C 146.015625 569.261719 182.476562 559.753906 190.402344 558.167969 C 198.328125 556.582031 469.410156 554.996094 475.753906 559.753906 C 481.222656 563.855469 483.964844 567.457031 484.757812 573.734375 Z M 484.757812 573.734375 " fill-opacity="1" fill-rule="nonzero"/><path fill="#bb272d" d="M 409.027344 687.570312 C 397.582031 687.714844 385.375 687.855469 372.710938 687.984375 L 372.710938 570.847656 L 406 569.261719 Z M 409.027344 687.570312 " fill-opacity="1" fill-rule="nonzero"/><path fill="#fb9e95" d="M 369.539062 561.335938 C 369.539062 561.335938 281.855469 571.925781 274.785156 572.417969 L 274.421875 572.433594 C 271.25 572.433594 169.792969 567.675781 166.625 567.675781 C 163.453125 567.675781 160.28125 450.382812 165.039062 445.628906 C 169.792969 440.871094 255.398438 431.363281 260.15625 431.363281 C 264.910156 431.363281 367.953125 432.949219 369.539062 437.703125 C 369.585938 437.828125 369.617188 438.050781 369.664062 438.335938 C 371.046875 448.8125 369.539062 561.335938 369.539062 561.335938 Z M 369.539062 561.335938 " fill-opacity="1" fill-rule="nonzero"/><path fill="#e37067" d="M 369.667969 438.335938 C 349.777344 439.945312 297.523438 444.238281 281.046875 446.320312 C 262.535156 445.851562 244.019531 445.238281 225.5 444.710938 C 206.667969 443.574219 187.8125 442.910156 169.003906 442.867188 C 168.300781 442.867188 167.90625 443.304688 167.78125 443.824219 C 166.828125 444.472656 167.074219 446.304688 168.546875 446.371094 C 188.199219 447.25 207.882812 447.777344 227.566406 448.222656 C 243.570312 449.21875 259.554688 450.457031 275.535156 451.984375 C 274.425781 474.867188 274.421875 572.433594 274.421875 572.433594 L 274.789062 572.417969 C 281.859375 571.925781 369.539062 561.335938 369.539062 561.335938 C 369.539062 561.335938 371.046875 448.8125 369.667969 438.335938 Z M 369.667969 438.335938 " fill-opacity="1" fill-rule="nonzero"/><path fill="#e74854" d="M 320.542969 428.804688 C 319.859375 428.414062 319.171875 428.023438 318.488281 427.636719 C 320.03125 425.066406 319.601562 421.730469 317.664062 419.234375 C 314.832031 415.582031 310.066406 415.371094 305.734375 415.710938 C 307.160156 410.28125 310.214844 401.160156 302.222656 400.199219 C 298.964844 399.808594 295.40625 402.480469 292.886719 404.210938 C 290.261719 406.011719 287.90625 408.089844 285.742188 410.375 C 285.328125 405.027344 284.5625 399.726562 283.308594 394.496094 C 282.546875 391.308594 281.53125 384.429688 276.707031 385.269531 C 272.539062 385.996094 270.015625 392.664062 268.699219 396.039062 C 267.171875 399.960938 266.414062 404.019531 266.269531 408.148438 C 260.894531 401.34375 250.464844 389.957031 246.15625 398.214844 C 244.0625 402.226562 245.507812 408.28125 246.566406 412.390625 C 247.519531 416.082031 248.96875 419.558594 250.832031 422.820312 C 245.625 420.363281 238.878906 418.261719 237.09375 422.679688 C 235.921875 425.589844 238.648438 428.671875 240.441406 430.628906 C 243.089844 433.519531 246.234375 435.75 249.722656 437.484375 C 249.773438 438.183594 250.214844 438.839844 251.125 438.878906 C 264.046875 439.414062 276.980469 439.183594 289.875 438.140625 C 296.5 437.605469 303.109375 436.855469 309.6875 435.894531 C 313.882812 435.28125 318.519531 434.902344 320.976562 430.992188 C 321.40625 430.308594 321.300781 429.234375 320.542969 428.804688 Z M 320.542969 428.804688 " fill-opacity="1" fill-rule="nonzero"/><path fill="#e37067" d="M 272.246094 458.527344 C 273.71875 457.121094 271.484375 454.890625 270.011719 456.292969 C 252.226562 473.265625 234.789062 490.71875 217.90625 508.691406 C 203.003906 491.652344 188.675781 474.113281 174.941406 456.09375 C 173.878906 454.699219 171.472656 456.058594 172.546875 457.496094 C 186.277344 475.863281 200.71875 493.691406 215.785156 510.972656 C 200.9375 526.859375 186.523438 543.140625 172.742188 559.890625 C 171.605469 561.277344 173.539062 563.273438 174.742188 561.890625 C 188.933594 545.523438 203.34375 529.40625 218.070312 513.585938 C 233.246094 530.863281 249.046875 547.589844 265.429688 563.730469 C 266.878906 565.15625 269.117188 562.925781 267.664062 561.496094 C 251.230469 545.335938 235.410156 528.582031 220.1875 511.300781 C 237.046875 493.261719 254.332031 475.621094 272.246094 458.527344 Z M 272.246094 458.527344 " fill-opacity="0.5" fill-rule="nonzero"/><path fill="#7599c3" d="M 467.699219 600.546875 C 462.933594 595.945312 381.527344 599.671875 378.242188 602.957031 C 377.902344 603.296875 377.617188 604.46875 377.386719 606.289062 C 375.4375 621.640625 377.171875 683.515625 378.171875 688.171875 C 388.765625 689.0625 399.386719 689.671875 409.957031 690.734375 C 410.71875 690.671875 411.5 690.609375 412.296875 690.542969 C 427.859375 689.238281 449.464844 687.320312 449.464844 687.320312 C 449.464844 687.320312 472.476562 605.148438 467.699219 600.546875 Z M 467.699219 600.546875 " fill-opacity="1" fill-rule="nonzero"/><path fill="#f0e5dc" d="M 468.496094 591.339844 C 467.5 590.675781 466.28125 590.457031 465.1875 589.976562 C 463.59375 589.277344 462.257812 588.003906 461.488281 586.445312 C 460.703125 584.855469 460.503906 583.035156 459.796875 581.410156 C 458.640625 578.742188 456.128906 576.785156 453.339844 575.964844 C 450.550781 575.148438 447.515625 575.398438 444.757812 576.320312 C 442.441406 577.09375 440.210938 578.410156 438.898438 580.46875 C 437.089844 583.304688 437.1875 587.261719 434.71875 589.550781 C 432.816406 591.3125 429.941406 591.527344 427.761719 592.929688 C 426.042969 594.035156 424.734375 595.882812 422.753906 596.382812 C 419.398438 597.230469 416.335938 593.800781 412.878906 593.820312 C 410.355469 593.835938 408.121094 595.808594 407.265625 598.179688 C 406.414062 600.554688 406.742188 603.214844 407.597656 605.589844 L 468.015625 601.6875 C 469.308594 600.214844 470.371094 598.453125 470.609375 596.507812 C 470.847656 594.5625 470.128906 592.425781 468.496094 591.339844 Z M 468.496094 591.339844 " fill-opacity="1" fill-rule="nonzero"/><path fill="#464e7a" d="M 468.734375 600.6875 C 449.636719 602.191406 430.511719 603.265625 411.414062 604.6875 C 406.269531 602.960938 378.242188 602.957031 378.242188 602.957031 L 377.386719 606.289062 C 375.4375 621.640625 377.171875 683.515625 378.171875 688.171875 C 388.765625 689.0625 399.386719 689.671875 409.957031 690.734375 C 410.71875 690.671875 411.5 690.609375 412.296875 690.542969 C 412.527344 669.320312 413.011719 616.5 412.398438 606.695312 C 431.191406 605.847656 449.984375 604.320312 468.734375 602.867188 C 470.125 602.761719 470.136719 600.574219 468.734375 600.6875 Z M 468.734375 600.6875 " fill-opacity="1" fill-rule="nonzero"/><path fill="#464e7a" d="M 457.371094 659.601562 C 456.875 660.191406 456.328125 660.71875 455.75 661.210938 C 455.707031 661.222656 455.664062 661.222656 455.617188 661.242188 C 454.972656 661.535156 454.296875 661.84375 453.609375 662.15625 C 453.492188 661.386719 452.515625 660.773438 451.792969 661.496094 C 446.980469 666.304688 439.847656 663.886719 435.195312 660.15625 C 432.214844 657.761719 430.953125 655 431.324219 651.171875 C 431.375 650.652344 431.460938 650.136719 431.535156 649.617188 C 431.765625 648.488281 432.0625 647.359375 432.421875 646.269531 C 435.867188 635.777344 441.9375 624.421875 439.160156 613.425781 C 438.941406 611.414062 438.511719 609.40625 437.777344 607.402344 C 437.429688 606.457031 436.179688 606.582031 435.878906 607.285156 C 435.347656 607.421875 434.90625 608.003906 435.242188 608.644531 C 436.042969 610.183594 436.621094 611.761719 437.023438 613.363281 C 438.296875 625.128906 431.710938 636.097656 429.632812 647.683594 C 428.898438 650.4375 428.515625 653.230469 428.839844 656.054688 C 430.449219 670.042969 451.449219 669.988281 458.90625 661.140625 C 459.804688 660.074219 458.273438 658.53125 457.371094 659.601562 Z M 457.371094 659.601562 " fill-opacity="1" fill-rule="nonzero"/><g clip-path="url(#e3813c10d8)"><path fill="#67b5af" d="M 672.621094 690.40625 C 668.40625 694.621094 563.996094 711.679688 541.679688 713.332031 C 539.625 713.5 538.261719 713.515625 537.738281 713.394531 C 531.609375 711.863281 453.4375 691.9375 448.839844 685.808594 C 444.242188 679.679688 443.996094 575.453125 444.242188 573.933594 C 444.347656 573.273438 445.054688 572.570312 446.28125 571.851562 C 461.882812 562.59375 561.617188 549.304688 572.992188 547.878906 C 585.253906 546.347656 668.023438 570.867188 671.085938 573.933594 C 674.152344 577 677.21875 685.808594 672.621094 690.40625 Z M 672.621094 690.40625 " fill-opacity="1" fill-rule="nonzero"/></g><g clip-path="url(#43d3380e26)"><path fill="#3b8a80" d="M 541.679688 713.332031 C 539.625 713.503906 538.261719 713.515625 537.738281 713.394531 C 531.609375 711.863281 453.4375 691.941406 448.839844 685.808594 C 444.242188 679.679688 443.996094 575.453125 444.242188 573.933594 C 444.347656 573.277344 445.054688 572.570312 446.28125 571.851562 C 469.179688 577.277344 537.492188 593.613281 540.039062 596.15625 C 542.566406 598.683594 541.96875 683.742188 541.679688 713.332031 Z M 541.679688 713.332031 " fill-opacity="1" fill-rule="nonzero"/></g><path fill="#3b8a80" d="M 667.105469 574.230469 C 647.550781 574.285156 628.363281 579.171875 609.234375 582.683594 C 588.214844 586.539062 554.359375 592.835938 533.140625 595.390625 C 529.589844 595.816406 528.015625 603.488281 531.609375 603.054688 C 551.371094 600.652344 585.316406 592.597656 604.910156 589.097656 C 625.585938 585.40625 645.421875 579.3125 666.492188 578.53125 C 669.773438 578.410156 670.417969 574.222656 667.105469 574.230469 Z M 667.105469 574.230469 " fill-opacity="1" fill-rule="nonzero"/><path fill="#607cb0" d="M 512.929688 574.925781 C 511.179688 573.816406 509.457031 572.46875 508.640625 570.570312 C 507.03125 566.820312 509.757812 562.308594 513.496094 560.679688 C 517.234375 559.046875 521.550781 559.597656 525.511719 560.558594 C 518.949219 557.527344 513.933594 551.332031 512.339844 544.28125 C 511.308594 539.730469 511.84375 534.464844 515.148438 531.167969 C 518.3125 528.007812 523.1875 527.375 527.652344 527.496094 C 530.261719 527.566406 532.941406 527.855469 535.238281 529.085938 C 537.816406 530.464844 539.652344 532.882812 541.398438 535.222656 C 543.808594 538.449219 546.214844 541.671875 548.625 544.894531 C 549.445312 538.929688 551.027344 532.90625 554.546875 528.015625 C 558.066406 523.128906 563.8125 519.539062 569.828125 519.851562 C 571.914062 519.960938 574.011719 520.550781 575.707031 521.773438 C 578.265625 523.625 579.664062 526.746094 580.101562 529.875 C 580.539062 533 580.132812 536.175781 579.726562 539.308594 C 582.734375 537.863281 585.816406 536.390625 589.132812 536.0625 C 592.453125 535.734375 596.109375 536.777344 598.042969 539.496094 C 599.863281 542.058594 599.800781 545.5 599.199219 548.585938 C 602.570312 547.828125 606.519531 547.476562 609.085938 549.792969 C 611.6875 552.144531 611.6875 556.265625 610.703125 559.632812 C 608.742188 566.367188 603.53125 572.070312 597.007812 574.640625 C 590.480469 577.207031 582.78125 576.585938 576.753906 573 C 578.15625 575 577.40625 577.925781 575.6875 579.664062 C 573.964844 581.398438 571.535156 582.199219 569.171875 582.820312 C 566.375 583.554688 563.535156 584.117188 560.671875 584.503906 C 558.351562 584.816406 555.558594 584.824219 554.1875 582.925781 C 553.621094 582.144531 553.273438 581.027344 552.332031 580.804688 C 551.757812 580.667969 551.171875 580.9375 550.636719 581.183594 C 545.535156 583.550781 534.816406 586.847656 529.601562 583.304688 C 527.042969 581.570312 526.875 580.304688 523.496094 579.40625 C 519.757812 578.417969 516.207031 577 512.929688 574.925781 Z M 512.929688 574.925781 " fill-opacity="1" fill-rule="nonzero"/><path fill="#464e7a" d="M 587.167969 550.128906 C 584.074219 547.824219 581.640625 545.347656 577.777344 546.03125 C 573.859375 546.726562 571.027344 549.492188 568.460938 552.335938 C 567.820312 553.042969 567.675781 553.84375 567.828125 554.574219 C 560.921875 554.214844 553.042969 557.386719 549.136719 562.320312 C 545.101562 558.554688 539.503906 555.730469 533.980469 556.550781 C 528.40625 557.382812 524.964844 562.726562 527.371094 567.957031 C 528.785156 571.023438 532.316406 568.613281 530.972656 565.578125 C 528.941406 560.976562 538.035156 562 539.898438 562.734375 C 542.59375 563.796875 544.828125 565.566406 546.757812 567.699219 C 546.558594 569.265625 546.730469 570.910156 547.414062 572.609375 C 548.558594 575.457031 553.164062 574.355469 552.132812 571.308594 C 549.003906 562.058594 573.222656 553.152344 575.195312 566.894531 C 575.699219 570.394531 579.226562 571.855469 578.738281 568.386719 C 577.984375 563.023438 576.65625 556.917969 572.617188 555.484375 C 576.617188 551.378906 580.730469 549.640625 585.949219 553.628906 C 588.730469 555.753906 589.96875 552.21875 587.167969 550.128906 Z M 587.167969 550.128906 " fill-opacity="1" fill-rule="nonzero"/><path fill="#464e7a" d="M 563.699219 547.402344 C 562.285156 541.820312 554.167969 540.929688 549.472656 542.21875 C 544.390625 543.617188 540.839844 548.496094 542.515625 553.730469 C 543.324219 556.261719 547.296875 555.195312 546.511719 552.628906 C 545.585938 549.589844 547.710938 547.132812 550.621094 546.375 C 552.589844 545.859375 558.753906 545.703125 559.464844 548.566406 C 560.140625 551.308594 564.390625 550.148438 563.699219 547.402344 Z M 563.699219 547.402344 " fill-opacity="1" fill-rule="nonzero"/></svg>