<svg xmlns="http://www.w3.org/2000/svg" xmlns:xlink="http://www.w3.org/1999/xlink" width="1080" zoomAndPan="magnify" viewBox="0 0 810 809.999993" height="1080" preserveAspectRatio="xMidYMid meet" version="1.0"><defs><clipPath id="9d151a3f20"><path d="M 68 328 L 742 328 L 742 775.953125 L 68 775.953125 Z M 68 328 " clip-rule="nonzero"/></clipPath><clipPath id="f7b7434ea8"><path d="M 34 734 L 776 734 L 776 775.953125 L 34 775.953125 Z M 34 734 " clip-rule="nonzero"/></clipPath><clipPath id="bd355e5a7b"><path d="M 281 34.203125 L 530 34.203125 L 530 283 L 281 283 Z M 281 34.203125 " clip-rule="nonzero"/></clipPath></defs><path fill="#cd0000" d="M 182.8125 129.277344 L 627.304688 129.277344 C 627.945312 129.277344 628.585938 129.308594 629.226562 129.375 C 629.863281 129.4375 630.5 129.53125 631.128906 129.65625 C 631.757812 129.78125 632.382812 129.9375 632.996094 130.125 C 633.609375 130.308594 634.214844 130.527344 634.808594 130.773438 C 635.402344 131.015625 635.980469 131.292969 636.546875 131.59375 C 637.113281 131.898438 637.664062 132.226562 638.199219 132.585938 C 638.730469 132.941406 639.246094 133.324219 639.742188 133.730469 C 640.238281 134.136719 640.714844 134.570312 641.167969 135.023438 C 641.625 135.476562 642.054688 135.953125 642.460938 136.449219 C 642.867188 136.945312 643.25 137.460938 643.609375 137.996094 C 643.964844 138.527344 644.292969 139.078125 644.597656 139.644531 C 644.898438 140.210938 645.175781 140.792969 645.421875 141.386719 C 645.664062 141.980469 645.882812 142.582031 646.070312 143.199219 C 646.253906 143.8125 646.410156 144.433594 646.535156 145.0625 C 646.660156 145.695312 646.753906 146.328125 646.820312 146.96875 C 646.882812 147.605469 646.914062 148.246094 646.914062 148.890625 L 646.914062 175.039062 L 163.203125 175.039062 L 163.203125 148.890625 C 163.203125 148.246094 163.234375 147.605469 163.296875 146.96875 C 163.359375 146.328125 163.453125 145.695312 163.578125 145.0625 C 163.703125 144.433594 163.859375 143.8125 164.046875 143.199219 C 164.234375 142.582031 164.449219 141.980469 164.695312 141.386719 C 164.941406 140.792969 165.214844 140.210938 165.515625 139.644531 C 165.820312 139.078125 166.148438 138.527344 166.507812 137.996094 C 166.863281 137.460938 167.246094 136.945312 167.652344 136.449219 C 168.058594 135.953125 168.492188 135.476562 168.945312 135.023438 C 169.398438 134.570312 169.875 134.136719 170.371094 133.730469 C 170.867188 133.324219 171.382812 132.941406 171.917969 132.585938 C 172.449219 132.226562 173 131.898438 173.566406 131.59375 C 174.132812 131.292969 174.714844 131.015625 175.308594 130.773438 C 175.902344 130.527344 176.503906 130.308594 177.121094 130.125 C 177.734375 129.9375 178.355469 129.78125 178.984375 129.65625 C 179.617188 129.53125 180.25 129.4375 180.890625 129.375 C 181.527344 129.308594 182.167969 129.277344 182.8125 129.277344 Z M 182.8125 129.277344 " fill-opacity="1" fill-rule="nonzero"/><g clip-path="url(#9d151a3f20)"><path fill="#ffcd00" d="M 68.421875 328.726562 L 741.757812 328.726562 L 741.757812 775.664062 L 68.421875 775.664062 Z M 68.421875 328.726562 " fill-opacity="1" fill-rule="nonzero"/></g><g clip-path="url(#f7b7434ea8)"><path fill="#cd0000" d="M 34.429688 734.285156 L 775.621094 734.285156 L 775.621094 775.730469 L 34.429688 775.730469 Z M 34.429688 734.285156 " fill-opacity="1" fill-rule="nonzero"/></g><path fill="#ff641a" d="M 193.007812 175.234375 L 118.359375 387.6875 C 117.570312 389.726562 116.625 391.695312 115.53125 393.589844 C 114.4375 395.480469 113.207031 397.28125 111.835938 398.988281 C 110.46875 400.691406 108.976562 402.28125 107.363281 403.757812 C 105.75 405.234375 104.03125 406.578125 102.210938 407.789062 C 100.390625 409.003906 98.488281 410.070312 96.503906 410.992188 C 94.523438 411.910156 92.480469 412.675781 90.378906 413.28125 C 88.277344 413.890625 86.144531 414.332031 83.972656 414.613281 C 81.804688 414.890625 79.628906 415.003906 77.441406 414.949219 C 46.652344 414.949219 25.867188 386.1875 38.222656 360.300781 L 118.882812 186.609375 C 119.273438 185.765625 119.722656 184.953125 120.230469 184.171875 C 120.734375 183.390625 121.292969 182.652344 121.90625 181.949219 C 122.515625 181.25 123.175781 180.59375 123.878906 179.988281 C 124.585938 179.382812 125.328125 178.828125 126.113281 178.324219 C 126.894531 177.824219 127.710938 177.382812 128.558594 176.996094 C 129.40625 176.609375 130.273438 176.285156 131.167969 176.027344 C 132.058594 175.765625 132.964844 175.566406 133.886719 175.433594 C 134.808594 175.300781 135.734375 175.234375 136.664062 175.234375 Z M 193.007812 175.234375 " fill-opacity="1" fill-rule="nonzero"/><path fill="#d9f2ff" d="M 263.734375 175.234375 L 214.839844 383.898438 C 214.53125 385.027344 214.171875 386.144531 213.769531 387.246094 C 213.363281 388.347656 212.914062 389.429688 212.421875 390.492188 C 211.925781 391.554688 211.390625 392.597656 210.808594 393.617188 C 210.226562 394.636719 209.605469 395.628906 208.941406 396.59375 C 208.277344 397.5625 207.574219 398.5 206.835938 399.410156 C 206.09375 400.316406 205.316406 401.195312 204.5 402.039062 C 203.6875 402.882812 202.839844 403.691406 201.957031 404.464844 C 201.074219 405.238281 200.164062 405.972656 199.222656 406.671875 C 198.277344 407.367188 197.308594 408.027344 196.308594 408.644531 C 195.3125 409.261719 194.292969 409.835938 193.246094 410.367188 C 192.203125 410.898438 191.136719 411.386719 190.050781 411.828125 C 188.964844 412.273438 187.863281 412.667969 186.742188 413.019531 C 185.625 413.371094 184.492188 413.675781 183.347656 413.933594 C 182.203125 414.191406 181.050781 414.402344 179.890625 414.5625 C 178.726562 414.722656 177.5625 414.835938 176.390625 414.902344 C 175.21875 414.964844 174.046875 414.980469 172.875 414.949219 L 167.710938 414.949219 C 138.558594 414.949219 117.902344 388.800781 126.792969 363.632812 L 193.007812 175.234375 Z M 263.734375 175.234375 " fill-opacity="1" fill-rule="nonzero"/><path fill="#ff641a" d="M 334.332031 175.234375 L 310.40625 379.84375 C 310.210938 381.089844 309.957031 382.320312 309.648438 383.539062 C 309.339844 384.757812 308.976562 385.964844 308.558594 387.152344 C 308.144531 388.335938 307.671875 389.503906 307.148438 390.648438 C 306.625 391.792969 306.050781 392.910156 305.425781 394.003906 C 304.804688 395.097656 304.128906 396.15625 303.410156 397.191406 C 302.6875 398.222656 301.921875 399.21875 301.109375 400.179688 C 300.300781 401.140625 299.445312 402.066406 298.550781 402.949219 C 297.65625 403.835938 296.722656 404.675781 295.753906 405.476562 C 294.78125 406.277344 293.773438 407.03125 292.734375 407.742188 C 291.695312 408.449219 290.625 409.109375 289.527344 409.722656 C 288.425781 410.332031 287.300781 410.894531 286.152344 411.40625 C 285 411.914062 283.828125 412.371094 282.636719 412.773438 C 281.445312 413.179688 280.238281 413.527344 279.015625 413.820312 C 277.792969 414.117188 276.558594 414.355469 275.3125 414.535156 C 274.066406 414.71875 272.816406 414.84375 271.558594 414.914062 C 270.300781 414.980469 269.046875 414.992188 267.789062 414.949219 L 260.726562 414.949219 C 233.339844 414.949219 213.011719 391.9375 218.699219 367.425781 L 263.734375 175.234375 Z M 334.332031 175.234375 " fill-opacity="1" fill-rule="nonzero"/><path fill="#d9f2ff" d="M 405.058594 175.234375 L 405.058594 375.660156 C 404.992188 377.003906 404.863281 378.34375 404.667969 379.675781 C 404.46875 381.007812 404.210938 382.324219 403.886719 383.632812 C 403.558594 384.9375 403.171875 386.226562 402.722656 387.492188 C 402.269531 388.761719 401.757812 390.003906 401.1875 391.222656 C 400.613281 392.441406 399.984375 393.628906 399.292969 394.785156 C 398.605469 395.941406 397.863281 397.058594 397.0625 398.144531 C 396.265625 399.226562 395.414062 400.269531 394.515625 401.269531 C 393.613281 402.269531 392.667969 403.222656 391.671875 404.128906 C 390.679688 405.039062 389.644531 405.894531 388.566406 406.699219 C 387.488281 407.507812 386.375 408.257812 385.222656 408.957031 C 384.070312 409.652344 382.890625 410.292969 381.675781 410.875 C 380.460938 411.457031 379.222656 411.976562 377.957031 412.4375 C 376.691406 412.894531 375.410156 413.292969 374.105469 413.628906 C 372.800781 413.960938 371.484375 414.230469 370.15625 414.4375 C 368.824219 414.644531 367.488281 414.78125 366.144531 414.855469 C 364.800781 414.933594 363.457031 414.941406 362.113281 414.882812 L 354.136719 414.882812 C 328.578125 414.882812 308.378906 394.683594 311.386719 371.410156 L 334.332031 175.300781 Z M 405.058594 175.234375 " fill-opacity="1" fill-rule="nonzero"/><path fill="#ff641a" d="M 455.976562 414.949219 L 448.003906 414.949219 C 446.660156 415.007812 445.3125 414.996094 443.96875 414.921875 C 442.625 414.847656 441.289062 414.707031 439.960938 414.503906 C 438.628906 414.296875 437.3125 414.027344 436.007812 413.691406 C 434.707031 413.359375 433.421875 412.960938 432.15625 412.5 C 430.890625 412.042969 429.652344 411.519531 428.4375 410.9375 C 427.226562 410.359375 426.042969 409.71875 424.890625 409.023438 C 423.742188 408.324219 422.625 407.574219 421.546875 406.765625 C 420.46875 405.960938 419.433594 405.101562 418.441406 404.195312 C 417.449219 403.289062 416.5 402.335938 415.601562 401.332031 C 414.699219 400.332031 413.851562 399.292969 413.050781 398.207031 C 412.253906 397.125 411.507812 396.003906 410.820312 394.847656 C 410.132812 393.691406 409.5 392.503906 408.929688 391.289062 C 408.355469 390.070312 407.84375 388.828125 407.394531 387.558594 C 406.941406 386.289062 406.554688 385.003906 406.230469 383.695312 C 405.90625 382.390625 405.644531 381.070312 405.449219 379.742188 C 405.253906 378.410156 405.121094 377.070312 405.058594 375.726562 L 405.058594 175.234375 L 475.785156 175.234375 L 498.726562 371.347656 C 501.40625 394.75 481.535156 414.949219 455.976562 414.949219 Z M 455.976562 414.949219 " fill-opacity="1" fill-rule="nonzero"/><path fill="#d9f2ff" d="M 549.386719 414.949219 L 542.328125 414.949219 C 541.066406 414.996094 539.808594 414.984375 538.550781 414.917969 C 537.292969 414.851562 536.039062 414.726562 534.792969 414.546875 C 533.546875 414.367188 532.3125 414.128906 531.085938 413.835938 C 529.859375 413.542969 528.652344 413.195312 527.457031 412.792969 C 526.265625 412.390625 525.089844 411.933594 523.9375 411.425781 C 522.785156 410.914062 521.660156 410.355469 520.558594 409.742188 C 519.457031 409.132812 518.386719 408.472656 517.34375 407.761719 C 516.300781 407.054688 515.296875 406.300781 514.320312 405.5 C 513.347656 404.699219 512.414062 403.855469 511.515625 402.972656 C 510.621094 402.085938 509.765625 401.164062 508.953125 400.199219 C 508.140625 399.238281 507.375 398.238281 506.652344 397.207031 C 505.929688 396.175781 505.253906 395.113281 504.628906 394.019531 C 504.003906 392.925781 503.429688 391.804688 502.90625 390.660156 C 502.378906 389.515625 501.910156 388.347656 501.492188 387.160156 C 501.074219 385.96875 500.710938 384.765625 500.402344 383.542969 C 500.09375 382.324219 499.839844 381.089844 499.640625 379.84375 L 475.71875 175.234375 L 546.3125 175.234375 L 591.351562 367.425781 C 597.105469 392.003906 576.773438 414.949219 549.386719 414.949219 Z M 549.386719 414.949219 " fill-opacity="1" fill-rule="nonzero"/><path fill="#ff641a" d="M 642.402344 414.949219 L 637.238281 414.949219 C 636.066406 414.980469 634.894531 414.964844 633.722656 414.902344 C 632.554688 414.835938 631.386719 414.722656 630.226562 414.5625 C 629.0625 414.402344 627.910156 414.191406 626.765625 413.933594 C 625.621094 413.675781 624.492188 413.371094 623.371094 413.019531 C 622.253906 412.667969 621.152344 412.273438 620.066406 411.828125 C 618.980469 411.386719 617.914062 410.898438 616.867188 410.367188 C 615.824219 409.835938 614.800781 409.261719 613.804688 408.644531 C 612.808594 408.027344 611.835938 407.367188 610.894531 406.671875 C 609.953125 405.972656 609.039062 405.238281 608.15625 404.464844 C 607.277344 403.691406 606.429688 402.882812 605.613281 402.039062 C 604.800781 401.195312 604.023438 400.316406 603.28125 399.410156 C 602.539062 398.5 601.835938 397.5625 601.171875 396.59375 C 600.507812 395.628906 599.886719 394.636719 599.304688 393.617188 C 598.726562 392.597656 598.1875 391.554688 597.695312 390.492188 C 597.199219 389.429688 596.75 388.347656 596.347656 387.246094 C 595.941406 386.144531 595.585938 385.027344 595.273438 383.898438 L 546.378906 175.234375 L 617.105469 175.234375 L 683.320312 363.632812 C 692.210938 388.996094 671.554688 414.949219 642.402344 414.949219 Z M 642.402344 414.949219 " fill-opacity="1" fill-rule="nonzero"/><path fill="#d9f2ff" d="M 732.671875 414.949219 C 730.488281 415.003906 728.308594 414.890625 726.140625 414.613281 C 723.972656 414.332031 721.835938 413.890625 719.734375 413.28125 C 717.636719 412.675781 715.59375 411.910156 713.609375 410.992188 C 711.625 410.070312 709.722656 409.003906 707.902344 407.789062 C 706.082031 406.578125 704.367188 405.234375 702.753906 403.757812 C 701.140625 402.28125 699.648438 400.691406 698.277344 398.988281 C 696.90625 397.28125 695.675781 395.480469 694.582031 393.589844 C 693.488281 391.695312 692.546875 389.726562 691.753906 387.6875 L 617.105469 175.234375 L 673.453125 175.234375 C 674.382812 175.234375 675.308594 175.300781 676.226562 175.433594 C 677.148438 175.566406 678.054688 175.765625 678.949219 176.027344 C 679.839844 176.285156 680.710938 176.609375 681.558594 176.996094 C 682.402344 177.382812 683.21875 177.824219 684.003906 178.324219 C 684.785156 178.828125 685.53125 179.382812 686.234375 179.988281 C 686.9375 180.59375 687.597656 181.25 688.210938 181.949219 C 688.820312 182.652344 689.378906 183.390625 689.886719 184.171875 C 690.390625 184.953125 690.839844 185.765625 691.230469 186.609375 L 772.15625 360.300781 C 784.183594 386.1875 763.460938 414.949219 732.671875 414.949219 Z M 732.671875 414.949219 " fill-opacity="1" fill-rule="nonzero"/><g clip-path="url(#bd355e5a7b)"><path fill="#63ba00" d="M 529.058594 158.433594 C 529.058594 160.464844 529.007812 162.492188 528.90625 164.519531 C 528.808594 166.546875 528.660156 168.570312 528.460938 170.589844 C 528.261719 172.609375 528.011719 174.621094 527.714844 176.628906 C 527.417969 178.636719 527.070312 180.636719 526.675781 182.628906 C 526.277344 184.617188 525.835938 186.597656 525.339844 188.566406 C 524.847656 190.535156 524.308594 192.488281 523.71875 194.433594 C 523.128906 196.375 522.492188 198.300781 521.808594 200.210938 C 521.125 202.121094 520.394531 204.015625 519.617188 205.890625 C 518.839844 207.765625 518.019531 209.621094 517.152344 211.453125 C 516.285156 213.289062 515.371094 215.101562 514.414062 216.890625 C 513.457031 218.679688 512.457031 220.445312 511.414062 222.1875 C 510.371094 223.929688 509.285156 225.640625 508.160156 227.328125 C 507.03125 229.015625 505.863281 230.675781 504.65625 232.304688 C 503.445312 233.9375 502.199219 235.535156 500.910156 237.105469 C 499.625 238.671875 498.296875 240.210938 496.933594 241.714844 C 495.574219 243.21875 494.171875 244.6875 492.738281 246.121094 C 491.304688 247.554688 489.835938 248.957031 488.332031 250.316406 C 486.828125 251.679688 485.289062 253.007812 483.722656 254.292969 C 482.152344 255.582031 480.554688 256.828125 478.925781 258.039062 C 477.292969 259.246094 475.636719 260.414062 473.949219 261.542969 C 472.261719 262.671875 470.546875 263.757812 468.804688 264.800781 C 467.066406 265.84375 465.300781 266.84375 463.511719 267.800781 C 461.722656 268.757812 459.910156 269.667969 458.074219 270.535156 C 456.238281 271.402344 454.386719 272.226562 452.511719 273.003906 C 450.636719 273.78125 448.742188 274.507812 446.832031 275.195312 C 444.921875 275.878906 442.996094 276.511719 441.050781 277.101562 C 439.109375 277.691406 437.15625 278.234375 435.1875 278.726562 C 433.21875 279.21875 431.238281 279.664062 429.25 280.058594 C 427.257812 280.457031 425.257812 280.800781 423.253906 281.101562 C 421.246094 281.398438 419.230469 281.644531 417.210938 281.84375 C 415.191406 282.042969 413.167969 282.195312 411.140625 282.292969 C 409.113281 282.394531 407.085938 282.441406 405.058594 282.441406 C 403.027344 282.441406 401 282.394531 398.972656 282.292969 C 396.945312 282.195312 394.921875 282.042969 392.902344 281.84375 C 390.882812 281.644531 388.871094 281.398438 386.863281 281.101562 C 384.855469 280.800781 382.855469 280.457031 380.867188 280.058594 C 378.875 279.664062 376.894531 279.21875 374.929688 278.726562 C 372.960938 278.234375 371.003906 277.691406 369.0625 277.101562 C 367.121094 276.511719 365.195312 275.878906 363.28125 275.195312 C 361.371094 274.507812 359.480469 273.78125 357.605469 273.003906 C 355.730469 272.226562 353.875 271.402344 352.039062 270.535156 C 350.207031 269.667969 348.394531 268.757812 346.605469 267.800781 C 344.8125 266.84375 343.050781 265.84375 341.308594 264.800781 C 339.566406 263.757812 337.855469 262.671875 336.167969 261.542969 C 334.480469 260.414062 332.820312 259.246094 331.191406 258.039062 C 329.5625 256.828125 327.960938 255.582031 326.394531 254.292969 C 324.824219 253.007812 323.289062 251.679688 321.785156 250.316406 C 320.28125 248.957031 318.8125 247.554688 317.375 246.121094 C 315.941406 244.6875 314.542969 243.21875 313.179688 241.714844 C 311.816406 240.210938 310.492188 238.671875 309.203125 237.105469 C 307.917969 235.535156 306.667969 233.9375 305.460938 232.304688 C 304.25 230.675781 303.082031 229.015625 301.957031 227.328125 C 300.828125 225.640625 299.742188 223.929688 298.699219 222.1875 C 297.65625 220.445312 296.65625 218.679688 295.699219 216.890625 C 294.742188 215.101562 293.832031 213.289062 292.960938 211.453125 C 292.09375 209.621094 291.273438 207.765625 290.496094 205.890625 C 289.71875 204.015625 288.988281 202.121094 288.304688 200.210938 C 287.621094 198.300781 286.984375 196.375 286.398438 194.433594 C 285.808594 192.488281 285.265625 190.535156 284.773438 188.566406 C 284.28125 186.597656 283.835938 184.617188 283.441406 182.628906 C 283.042969 180.636719 282.695312 178.636719 282.398438 176.628906 C 282.101562 174.621094 281.851562 172.609375 281.65625 170.589844 C 281.457031 168.570312 281.304688 166.546875 281.207031 164.519531 C 281.105469 162.492188 281.058594 160.464844 281.058594 158.433594 C 281.058594 156.40625 281.105469 154.375 281.207031 152.347656 C 281.304688 150.324219 281.457031 148.300781 281.65625 146.28125 C 281.851562 144.257812 282.101562 142.246094 282.398438 140.238281 C 282.695312 138.230469 283.042969 136.230469 283.441406 134.242188 C 283.835938 132.25 284.28125 130.269531 284.773438 128.300781 C 285.265625 126.335938 285.808594 124.378906 286.398438 122.4375 C 286.984375 120.496094 287.621094 118.566406 288.304688 116.65625 C 288.988281 114.746094 289.71875 112.851562 290.496094 110.976562 C 291.273438 109.101562 292.09375 107.25 292.960938 105.414062 C 293.832031 103.578125 294.742188 101.765625 295.699219 99.976562 C 296.65625 98.1875 297.65625 96.421875 298.699219 94.679688 C 299.742188 92.941406 300.828125 91.226562 301.957031 89.539062 C 303.082031 87.851562 304.25 86.191406 305.460938 84.5625 C 306.667969 82.933594 307.917969 81.332031 309.203125 79.765625 C 310.492188 78.195312 311.816406 76.660156 313.179688 75.15625 C 314.542969 73.652344 315.941406 72.183594 317.375 70.746094 C 318.8125 69.3125 320.28125 67.914062 321.785156 66.550781 C 323.289062 65.1875 324.824219 63.863281 326.394531 62.574219 C 327.960938 61.285156 329.5625 60.039062 331.191406 58.828125 C 332.820312 57.621094 334.480469 56.453125 336.167969 55.324219 C 337.855469 54.199219 339.566406 53.113281 341.308594 52.070312 C 343.050781 51.027344 344.8125 50.027344 346.605469 49.070312 C 348.394531 48.113281 350.207031 47.199219 352.039062 46.332031 C 353.875 45.464844 355.730469 44.640625 357.605469 43.867188 C 359.480469 43.089844 361.371094 42.359375 363.28125 41.675781 C 365.195312 40.992188 367.121094 40.355469 369.0625 39.765625 C 371.003906 39.175781 372.960938 38.636719 374.929688 38.140625 C 376.894531 37.648438 378.875 37.203125 380.867188 36.808594 C 382.855469 36.414062 384.855469 36.066406 386.863281 35.769531 C 388.871094 35.46875 390.882812 35.222656 392.902344 35.023438 C 394.921875 34.824219 396.945312 34.675781 398.972656 34.574219 C 401 34.476562 403.027344 34.425781 405.058594 34.425781 C 407.085938 34.425781 409.113281 34.476562 411.140625 34.574219 C 413.167969 34.675781 415.191406 34.824219 417.210938 35.023438 C 419.230469 35.222656 421.246094 35.46875 423.253906 35.769531 C 425.257812 36.066406 427.257812 36.414062 429.25 36.808594 C 431.238281 37.203125 433.21875 37.648438 435.1875 38.140625 C 437.15625 38.636719 439.109375 39.175781 441.050781 39.765625 C 442.996094 40.355469 444.921875 40.992188 446.832031 41.675781 C 448.742188 42.359375 450.636719 43.089844 452.511719 43.867188 C 454.386719 44.640625 456.238281 45.464844 458.074219 46.332031 C 459.910156 47.199219 461.722656 48.113281 463.511719 49.070312 C 465.300781 50.027344 467.066406 51.027344 468.804688 52.070312 C 470.546875 53.113281 472.261719 54.199219 473.949219 55.324219 C 475.636719 56.453125 477.292969 57.621094 478.925781 58.828125 C 480.554688 60.039062 482.152344 61.285156 483.722656 62.574219 C 485.289062 63.863281 486.828125 65.1875 488.332031 66.550781 C 489.835938 67.914062 491.304688 69.3125 492.738281 70.746094 C 494.171875 72.183594 495.574219 73.652344 496.933594 75.15625 C 498.296875 76.660156 499.625 78.195312 500.910156 79.765625 C 502.199219 81.332031 503.445312 82.933594 504.65625 84.5625 C 505.863281 86.191406 507.03125 87.851562 508.160156 89.539062 C 509.285156 91.226562 510.371094 92.941406 511.414062 94.679688 C 512.460938 96.421875 513.460938 98.1875 514.414062 99.976562 C 515.371094 101.765625 516.285156 103.578125 517.152344 105.414062 C 518.019531 107.25 518.839844 109.101562 519.617188 110.976562 C 520.394531 112.851562 521.125 114.746094 521.808594 116.65625 C 522.492188 118.566406 523.128906 120.496094 523.71875 122.4375 C 524.308594 124.378906 524.847656 126.335938 525.339844 128.300781 C 525.835938 130.269531 526.277344 132.25 526.675781 134.242188 C 527.070312 136.230469 527.417969 138.230469 527.714844 140.238281 C 528.011719 142.246094 528.261719 144.257812 528.460938 146.28125 C 528.660156 148.300781 528.808594 150.324219 528.90625 152.347656 C 529.007812 154.375 529.058594 156.40625 529.058594 158.433594 Z M 529.058594 158.433594 " fill-opacity="1" fill-rule="nonzero"/></g><path fill="#d9f2ff" d="M 394.730469 88.226562 C 394.300781 88.226562 393.875 88.269531 393.453125 88.351562 C 393.035156 88.433594 392.625 88.558594 392.226562 88.722656 C 391.832031 88.886719 391.453125 89.089844 391.097656 89.328125 C 390.742188 89.566406 390.410156 89.835938 390.105469 90.140625 C 389.804688 90.445312 389.53125 90.773438 389.292969 91.132812 C 389.054688 91.488281 388.855469 91.863281 388.691406 92.261719 C 388.527344 92.65625 388.402344 93.066406 388.320312 93.488281 C 388.234375 93.910156 388.191406 94.332031 388.191406 94.761719 L 388.191406 121.5 C 388.1875 122.457031 388.109375 123.410156 387.960938 124.359375 C 387.808594 125.304688 387.589844 126.238281 387.296875 127.148438 C 387.003906 128.0625 386.644531 128.949219 386.21875 129.808594 C 385.792969 130.667969 385.304688 131.488281 384.75 132.273438 C 384.199219 133.058594 383.589844 133.796875 382.925781 134.488281 C 382.261719 135.179688 381.550781 135.816406 380.789062 136.398438 C 380.027344 136.980469 379.226562 137.503906 378.386719 137.964844 C 377.546875 138.425781 376.675781 138.820312 375.773438 139.148438 L 375.773438 94.761719 C 375.773438 94.332031 375.730469 93.910156 375.648438 93.488281 C 375.5625 93.066406 375.441406 92.65625 375.277344 92.261719 C 375.113281 91.863281 374.910156 91.488281 374.671875 91.132812 C 374.433594 90.773438 374.164062 90.445312 373.859375 90.140625 C 373.554688 89.835938 373.226562 89.566406 372.867188 89.328125 C 372.511719 89.089844 372.132812 88.886719 371.738281 88.722656 C 371.339844 88.558594 370.933594 88.433594 370.511719 88.351562 C 370.089844 88.269531 369.664062 88.226562 369.238281 88.226562 C 368.808594 88.226562 368.382812 88.269531 367.960938 88.351562 C 367.539062 88.433594 367.132812 88.558594 366.734375 88.722656 C 366.339844 88.886719 365.960938 89.089844 365.605469 89.328125 C 365.25 89.566406 364.917969 89.835938 364.613281 90.140625 C 364.3125 90.445312 364.039062 90.773438 363.800781 91.132812 C 363.5625 91.488281 363.363281 91.863281 363.199219 92.261719 C 363.035156 92.65625 362.910156 93.066406 362.824219 93.488281 C 362.742188 93.910156 362.699219 94.332031 362.699219 94.761719 L 362.699219 139.148438 C 361.800781 138.820312 360.933594 138.425781 360.09375 137.964844 C 359.253906 137.5 358.457031 136.980469 357.695312 136.394531 C 356.9375 135.8125 356.226562 135.171875 355.566406 134.480469 C 354.902344 133.789062 354.296875 133.050781 353.75 132.265625 C 353.199219 131.480469 352.714844 130.660156 352.289062 129.800781 C 351.867188 128.945312 351.507812 128.058594 351.222656 127.144531 C 350.933594 126.230469 350.714844 125.300781 350.566406 124.355469 C 350.421875 123.410156 350.347656 122.457031 350.347656 121.5 L 350.347656 94.761719 C 350.34375 94.332031 350.304688 93.910156 350.21875 93.488281 C 350.136719 93.066406 350.011719 92.65625 349.847656 92.261719 C 349.683594 91.863281 349.484375 91.488281 349.242188 91.132812 C 349.003906 90.773438 348.734375 90.445312 348.429688 90.140625 C 348.128906 89.835938 347.796875 89.566406 347.441406 89.328125 C 347.082031 89.089844 346.707031 88.886719 346.308594 88.722656 C 345.914062 88.558594 345.503906 88.433594 345.085938 88.351562 C 344.664062 88.269531 344.238281 88.226562 343.808594 88.226562 C 343.378906 88.226562 342.953125 88.269531 342.535156 88.351562 C 342.113281 88.433594 341.703125 88.558594 341.308594 88.722656 C 340.910156 88.886719 340.535156 89.089844 340.175781 89.328125 C 339.820312 89.566406 339.492188 89.835938 339.1875 90.140625 C 338.882812 90.445312 338.613281 90.773438 338.375 91.132812 C 338.136719 91.488281 337.933594 91.863281 337.769531 92.261719 C 337.605469 92.65625 337.480469 93.066406 337.398438 93.488281 C 337.3125 93.910156 337.273438 94.332031 337.273438 94.761719 L 337.273438 121.5 C 337.273438 122.410156 337.308594 123.316406 337.386719 124.226562 C 337.464844 125.132812 337.578125 126.035156 337.734375 126.929688 C 337.886719 127.828125 338.078125 128.714844 338.308594 129.597656 C 338.539062 130.476562 338.804688 131.34375 339.109375 132.203125 C 339.414062 133.0625 339.753906 133.902344 340.128906 134.730469 C 340.503906 135.5625 340.917969 136.371094 341.363281 137.164062 C 341.808594 137.960938 342.285156 138.730469 342.796875 139.484375 C 343.308594 140.238281 343.851562 140.96875 344.425781 141.671875 C 344.996094 142.378906 345.601562 143.058594 346.230469 143.714844 C 346.863281 144.371094 347.523438 144.996094 348.207031 145.59375 C 348.894531 146.195312 349.601562 146.761719 350.335938 147.300781 C 351.070312 147.839844 351.824219 148.34375 352.601562 148.816406 C 353.378906 149.292969 354.175781 149.730469 354.988281 150.136719 C 355.804688 150.542969 356.632812 150.914062 357.480469 151.246094 C 358.328125 151.582031 359.183594 151.878906 360.054688 152.140625 C 360.929688 152.402344 361.808594 152.625 362.699219 152.8125 L 362.699219 222.039062 C 362.699219 222.46875 362.742188 222.894531 362.824219 223.316406 C 362.910156 223.734375 363.035156 224.144531 363.199219 224.542969 C 363.363281 224.9375 363.5625 225.316406 363.800781 225.671875 C 364.039062 226.027344 364.3125 226.359375 364.613281 226.664062 C 364.917969 226.964844 365.25 227.238281 365.605469 227.476562 C 365.960938 227.714844 366.339844 227.914062 366.734375 228.078125 C 367.132812 228.242188 367.539062 228.367188 367.960938 228.453125 C 368.382812 228.535156 368.808594 228.578125 369.238281 228.578125 C 369.664062 228.578125 370.089844 228.535156 370.511719 228.453125 C 370.933594 228.367188 371.339844 228.242188 371.738281 228.078125 C 372.132812 227.914062 372.511719 227.714844 372.867188 227.476562 C 373.226562 227.238281 373.554688 226.964844 373.859375 226.664062 C 374.164062 226.359375 374.433594 226.027344 374.671875 225.671875 C 374.910156 225.316406 375.113281 224.9375 375.277344 224.542969 C 375.441406 224.144531 375.5625 223.734375 375.648438 223.316406 C 375.730469 222.894531 375.773438 222.46875 375.773438 222.039062 L 375.773438 152.8125 C 376.664062 152.625 377.546875 152.402344 378.417969 152.140625 C 379.292969 151.882812 380.152344 151.582031 381 151.25 C 381.84375 150.914062 382.675781 150.542969 383.492188 150.140625 C 384.308594 149.734375 385.105469 149.292969 385.882812 148.820312 C 386.660156 148.347656 387.417969 147.84375 388.152344 147.304688 C 388.886719 146.765625 389.597656 146.199219 390.285156 145.601562 C 390.96875 145 391.628906 144.375 392.261719 143.71875 C 392.894531 143.066406 393.5 142.386719 394.074219 141.679688 C 394.648438 140.972656 395.195312 140.242188 395.707031 139.492188 C 396.21875 138.738281 396.699219 137.964844 397.144531 137.171875 C 397.59375 136.378906 398.003906 135.566406 398.382812 134.738281 C 398.761719 133.910156 399.101562 133.066406 399.40625 132.207031 C 399.714844 131.351562 399.980469 130.480469 400.214844 129.601562 C 400.445312 128.71875 400.636719 127.832031 400.792969 126.933594 C 400.949219 126.035156 401.066406 125.132812 401.144531 124.226562 C 401.226562 123.320312 401.265625 122.410156 401.265625 121.5 L 401.265625 94.761719 C 401.265625 94.332031 401.222656 93.910156 401.140625 93.488281 C 401.058594 93.066406 400.933594 92.65625 400.769531 92.261719 C 400.605469 91.863281 400.402344 91.488281 400.164062 91.132812 C 399.925781 90.773438 399.65625 90.445312 399.351562 90.140625 C 399.046875 89.835938 398.71875 89.566406 398.359375 89.328125 C 398.003906 89.089844 397.628906 88.886719 397.230469 88.722656 C 396.835938 88.558594 396.425781 88.433594 396.003906 88.351562 C 395.582031 88.269531 395.160156 88.226562 394.730469 88.226562 Z M 394.730469 88.226562 " fill-opacity="1" fill-rule="nonzero"/><path fill="#d9f2ff" d="M 472.84375 120.847656 C 472.84375 102.871094 460.554688 88.160156 445.453125 88.160156 C 430.355469 88.160156 418.128906 102.871094 418.128906 120.847656 C 418.042969 122.535156 418.089844 124.21875 418.273438 125.902344 C 418.453125 127.582031 418.769531 129.238281 419.214844 130.871094 C 419.65625 132.503906 420.230469 134.089844 420.925781 135.628906 C 421.625 137.171875 422.4375 138.648438 423.371094 140.058594 C 424.300781 141.46875 425.339844 142.796875 426.484375 144.042969 C 427.625 145.292969 428.859375 146.4375 430.1875 147.488281 C 431.511719 148.539062 432.914062 149.476562 434.390625 150.304688 C 435.863281 151.132812 437.394531 151.835938 438.984375 152.421875 L 438.984375 222.039062 C 438.984375 222.46875 439.023438 222.894531 439.109375 223.316406 C 439.191406 223.734375 439.316406 224.144531 439.480469 224.542969 C 439.644531 224.9375 439.847656 225.316406 440.085938 225.671875 C 440.324219 226.027344 440.59375 226.359375 440.898438 226.664062 C 441.199219 226.964844 441.53125 227.238281 441.886719 227.476562 C 442.246094 227.714844 442.621094 227.914062 443.019531 228.078125 C 443.414062 228.242188 443.824219 228.367188 444.242188 228.453125 C 444.664062 228.535156 445.089844 228.578125 445.519531 228.578125 C 445.949219 228.578125 446.375 228.535156 446.792969 228.453125 C 447.214844 228.367188 447.625 228.242188 448.019531 228.078125 C 448.417969 227.914062 448.792969 227.714844 449.152344 227.476562 C 449.507812 227.238281 449.835938 226.964844 450.140625 226.664062 C 450.445312 226.359375 450.714844 226.027344 450.953125 225.671875 C 451.191406 225.316406 451.394531 224.9375 451.558594 224.542969 C 451.722656 224.144531 451.847656 223.734375 451.929688 223.316406 C 452.015625 222.894531 452.054688 222.46875 452.054688 222.039062 L 452.054688 152.421875 C 453.640625 151.832031 455.167969 151.125 456.640625 150.296875 C 458.113281 149.46875 459.507812 148.527344 460.832031 147.476562 C 462.15625 146.425781 463.386719 145.277344 464.527344 144.03125 C 465.664062 142.785156 466.699219 141.453125 467.628906 140.042969 C 468.558594 138.632812 469.371094 137.15625 470.066406 135.617188 C 470.757812 134.078125 471.328125 132.492188 471.769531 130.863281 C 472.214844 129.230469 472.523438 127.578125 472.703125 125.898438 C 472.882812 124.214844 472.929688 122.535156 472.84375 120.847656 Z M 445.453125 140.457031 C 437.675781 140.457031 431.136719 131.5 431.136719 120.847656 C 431.136719 110.191406 437.675781 101.234375 445.453125 101.234375 C 453.234375 101.234375 459.769531 110.191406 459.769531 120.847656 C 459.769531 131.5 453.234375 140.390625 445.453125 140.390625 Z M 445.453125 140.457031 " fill-opacity="1" fill-rule="nonzero"/><path fill="#f03800" d="M 138.753906 489.796875 L 264.324219 489.796875 L 264.324219 734.285156 L 138.753906 734.285156 Z M 138.753906 489.796875 " fill-opacity="1" fill-rule="nonzero"/><path fill="#d9f2ff" d="M 334.917969 489.796875 L 671.425781 489.796875 L 671.425781 668.71875 L 334.917969 668.71875 Z M 334.917969 489.796875 " fill-opacity="1" fill-rule="nonzero"/><path fill="#b6ebfe" d="M 389.890625 580.074219 C 389.25 580.058594 388.625 579.953125 388.015625 579.753906 C 387.40625 579.554688 386.839844 579.273438 386.3125 578.90625 C 385.789062 578.539062 385.324219 578.105469 384.925781 577.601562 C 384.527344 577.101562 384.210938 576.550781 383.976562 575.957031 C 383.738281 575.359375 383.59375 574.742188 383.535156 574.105469 C 383.480469 573.464844 383.519531 572.832031 383.648438 572.203125 C 383.78125 571.578125 384 570.980469 384.304688 570.417969 C 384.613281 569.855469 384.992188 569.347656 385.449219 568.898438 L 414.46875 539.871094 C 414.773438 539.570312 415.101562 539.300781 415.460938 539.066406 C 415.816406 538.828125 416.191406 538.628906 416.585938 538.464844 C 416.980469 538.300781 417.386719 538.179688 417.808594 538.097656 C 418.226562 538.011719 418.652344 537.972656 419.078125 537.972656 C 419.507812 537.972656 419.929688 538.011719 420.347656 538.097656 C 420.769531 538.179688 421.175781 538.300781 421.570312 538.464844 C 421.964844 538.628906 422.34375 538.828125 422.699219 539.066406 C 423.054688 539.300781 423.382812 539.570312 423.6875 539.871094 C 423.992188 540.175781 424.265625 540.507812 424.507812 540.867188 C 424.75 541.222656 424.953125 541.601562 425.117188 542 C 425.285156 542.398438 425.410156 542.808594 425.492188 543.230469 C 425.578125 543.65625 425.621094 544.082031 425.621094 544.515625 C 425.621094 544.945312 425.578125 545.371094 425.492188 545.796875 C 425.410156 546.21875 425.285156 546.628906 425.117188 547.027344 C 424.953125 547.425781 424.75 547.804688 424.507812 548.164062 C 424.265625 548.519531 423.992188 548.851562 423.6875 549.15625 L 394.664062 578.113281 C 394.035156 578.753906 393.308594 579.246094 392.480469 579.585938 C 391.652344 579.925781 390.789062 580.089844 389.890625 580.074219 Z M 389.890625 580.074219 " fill-opacity="1" fill-rule="nonzero"/><path fill="#b6ebfe" d="M 391.527344 620.800781 C 390.65625 620.804688 389.820312 620.644531 389.015625 620.316406 C 388.210938 619.988281 387.503906 619.515625 386.886719 618.90625 C 386.585938 618.601562 386.316406 618.273438 386.078125 617.917969 C 385.839844 617.5625 385.640625 617.183594 385.480469 616.789062 C 385.316406 616.394531 385.191406 615.988281 385.109375 615.566406 C 385.027344 615.148438 384.984375 614.726562 384.984375 614.296875 C 384.984375 613.871094 385.027344 613.445312 385.109375 613.027344 C 385.191406 612.605469 385.316406 612.199219 385.480469 611.804688 C 385.640625 611.410156 385.839844 611.035156 386.078125 610.675781 C 386.316406 610.320312 386.585938 609.992188 386.886719 609.6875 L 454.671875 541.507812 C 454.976562 541.203125 455.308594 540.933594 455.664062 540.699219 C 456.023438 540.460938 456.398438 540.261719 456.796875 540.101562 C 457.195312 539.9375 457.605469 539.816406 458.023438 539.734375 C 458.445312 539.652344 458.871094 539.613281 459.300781 539.613281 C 459.730469 539.613281 460.152344 539.660156 460.574219 539.742188 C 460.996094 539.828125 461.402344 539.953125 461.800781 540.121094 C 462.195312 540.285156 462.570312 540.488281 462.925781 540.730469 C 463.28125 540.96875 463.613281 541.242188 463.914062 541.546875 C 464.214844 541.851562 464.484375 542.179688 464.722656 542.539062 C 464.960938 542.894531 465.160156 543.273438 465.324219 543.671875 C 465.488281 544.066406 465.609375 544.476562 465.691406 544.898438 C 465.773438 545.320312 465.816406 545.742188 465.8125 546.171875 C 465.8125 546.601562 465.769531 547.027344 465.683594 547.449219 C 465.597656 547.867188 465.472656 548.277344 465.308594 548.671875 C 465.144531 549.070312 464.941406 549.445312 464.703125 549.800781 C 464.464844 550.15625 464.191406 550.488281 463.886719 550.789062 L 396.101562 618.578125 C 395.519531 619.242188 394.832031 619.769531 394.039062 620.152344 C 393.246094 620.539062 392.40625 620.753906 391.527344 620.800781 Z M 391.527344 620.800781 " fill-opacity="1" fill-rule="nonzero"/></svg>