<svg width="35" height="33" viewBox="0 0 35 33" fill="none" xmlns="http://www.w3.org/2000/svg">
<path d="M17.5 31.1883L3.32538 15.7537C3.32537 15.7537 3.32537 15.7537 3.32536 15.7537C1.8448 14.1414 1 11.938 1 9.62452C1 4.77945 4.58802 1 8.83884 1C10.889 1 12.8744 1.88605 14.3524 3.49535C14.3524 3.49535 14.3524 3.49536 14.3524 3.49537L16.7635 6.12085C16.9528 6.32707 17.22 6.44445 17.5 6.44445C17.78 6.44445 18.0472 6.32707 18.2365 6.12085L20.6476 3.49536C20.6476 3.49536 20.6476 3.49535 20.6476 3.49535C22.1256 1.88605 24.111 1 26.1611 1C30.4119 1 34 4.77946 34 9.62452C34 11.9381 33.1552 14.1415 31.6746 15.7537L17.5 31.1883Z" stroke="black" stroke-width="2" stroke-linecap="round" stroke-linejoin="round"/>
</svg>
