<svg xmlns="http://www.w3.org/2000/svg" xmlns:xlink="http://www.w3.org/1999/xlink" width="1400" zoomAndPan="magnify" viewBox="0 0 1050 562.499983" height="750" preserveAspectRatio="xMidYMid meet" version="1.0"><defs><clipPath id="cc338ba1ca"><path d="M 0.464844 0 L 1049.53125 0 L 1049.53125 562 L 0.464844 562 Z M 0.464844 0 " clip-rule="nonzero"/></clipPath><clipPath id="fb72277e6a"><path d="M 731 515 L 860.429688 515 L 860.429688 528 L 731 528 Z M 731 515 " clip-rule="nonzero"/></clipPath><clipPath id="e8e33a993b"><path d="M 635 536 L 730 536 L 730 548.683594 L 635 548.683594 Z M 635 536 " clip-rule="nonzero"/></clipPath></defs><g clip-path="url(#cc338ba1ca)"><path fill="#ffffff" d="M 0.464844 0 L 1049.535156 0 L 1049.535156 562 L 0.464844 562 Z M 0.464844 0 " fill-opacity="1" fill-rule="nonzero"/><path fill="#ffffff" d="M 0.464844 0 L 1049.535156 0 L 1049.535156 562 L 0.464844 562 Z M 0.464844 0 " fill-opacity="1" fill-rule="nonzero"/></g><path fill="#432d6e" d="M 656.753906 523.109375 C 656.753906 528.816406 577.617188 533.433594 479.984375 533.433594 C 382.355469 533.433594 303.214844 528.816406 303.214844 523.109375 C 303.214844 517.40625 382.355469 512.789062 479.984375 512.789062 C 577.617188 512.789062 656.753906 517.40625 656.753906 523.109375 Z M 656.753906 523.109375 " fill-opacity="1" fill-rule="nonzero"/><path fill="#8ebc5f" d="M 626.132812 512.296875 C 625.71875 512.621094 625.289062 512.921875 624.859375 513.207031 C 626.34375 513.597656 627.878906 514 629.089844 514.964844 C 630.285156 515.914062 631.066406 517.582031 630.535156 519.015625 C 630.128906 520.082031 629.101562 521.070312 628.019531 521.398438 C 627.839844 521.449219 626.148438 521.488281 623.320312 521.554688 L 623.257812 521.554688 C 608.234375 521.839844 562.011719 522.113281 545.386719 521.382812 C 530 520.734375 525.703125 505.902344 525.523438 500.941406 C 525.378906 499.070312 525.714844 496.710938 526.890625 495.121094 C 528.347656 493.089844 530.964844 492.253906 533.4375 491.980469 C 537.5625 491.511719 541.820312 492.292969 545.503906 494.183594 C 543.199219 491.789062 543.453125 487.585938 545.660156 485.117188 C 549.441406 480.84375 557.363281 481.476562 561.308594 487.046875 C 561.140625 480.894531 563.664062 474.710938 567.921875 470.128906 C 573.152344 464.503906 585.820312 462.917969 589.957031 473.582031 C 591.503906 477.597656 591.660156 481.023438 591.15625 483.464844 C 594.78125 477.574219 604.265625 472.859375 609.132812 475.820312 C 611.125 477.046875 612.128906 479.46875 612.230469 481.8125 C 612.335938 484.140625 611.671875 486.445312 611.019531 488.6875 C 632.179688 483.695312 639.394531 502.273438 626.132812 512.296875 Z M 626.132812 512.296875 " fill-opacity="1" fill-rule="nonzero"/><path fill="#ffffff" d="M 589.957031 473.582031 C 590.871094 475.953125 591.519531 478.710938 591.402344 481.394531 C 590.609375 481.902344 589.839844 482.476562 589.113281 483.085938 C 589.425781 480.390625 587.835938 477.695312 585.546875 476.210938 C 581.171875 473.386719 572.855469 473.921875 566.957031 479.453125 C 564.039062 482.203125 562.0625 485.9375 561.449219 489.898438 C 559.378906 486.863281 555.515625 485.144531 551.871094 485.664062 C 548.472656 486.148438 545.4375 488.53125 544.109375 491.683594 C 543.527344 489.453125 544.097656 486.863281 545.660156 485.117188 C 549.441406 480.84375 557.363281 481.476562 561.308594 487.046875 C 561.140625 480.894531 563.664062 474.710938 567.921875 470.128906 C 573.152344 464.503906 585.820312 462.917969 589.957031 473.582031 Z M 589.957031 473.582031 " fill-opacity="0.4" fill-rule="nonzero"/><path fill="#ffffff" d="M 626.132812 512.296875 C 632.105469 505.316406 629.664062 494.625 621.433594 490.847656 C 617.515625 489.0625 612.503906 488.765625 608.742188 490.875 C 610.539062 488.007812 609.796875 483.984375 607.441406 481.5625 C 604.628906 478.65625 599.503906 477.488281 594.1875 479.871094 C 597.78125 476.527344 605 473.304688 609.132812 475.820312 C 611.125 477.046875 612.128906 479.46875 612.230469 481.8125 C 612.335938 484.140625 611.671875 486.445312 611.019531 488.6875 C 632.277344 483.671875 639.363281 502.292969 626.132812 512.296875 Z M 626.132812 512.296875 " fill-opacity="0.4" fill-rule="nonzero"/><path fill="#6b9b3c" d="M 624.117188 520.082031 C 623.917969 520.632812 623.617188 521.132812 623.253906 521.558594 C 608.234375 521.84375 562.003906 522.109375 545.382812 521.382812 C 530 520.730469 525.710938 505.90625 525.523438 500.9375 C 525.507812 500.773438 525.507812 500.601562 525.507812 500.425781 C 527.257812 498.238281 530.96875 496.808594 534.851562 497.570312 C 545.15625 499.632812 547.113281 511.792969 555.714844 514.136719 C 558.527344 514.902344 561.894531 514.164062 563.554688 511.773438 C 565.171875 509.457031 564.871094 506.28125 566.121094 503.742188 C 567.632812 500.664062 571.625 499.046875 574.863281 500.226562 C 578.089844 501.386719 580.128906 505.179688 579.328125 508.519531 C 580.855469 504.964844 582.429688 501.351562 585.042969 498.523438 C 587.671875 495.683594 591.609375 493.757812 595.386719 494.542969 C 599.164062 495.320312 602.203125 499.511719 600.890625 503.140625 C 602.605469 499.3125 607.957031 497.660156 611.523438 499.875 C 615.085938 502.078125 616 507.605469 613.335938 510.847656 C 616.050781 511.199219 618.875 511.574219 621.164062 513.074219 C 623.464844 514.5625 625.066406 517.503906 624.117188 520.082031 Z M 624.117188 520.082031 " fill-opacity="1" fill-rule="nonzero"/><g clip-path="url(#fb72277e6a)"><path fill="#432d6e" d="M 860.429688 521.460938 C 860.429688 525.007812 831.601562 527.875 796.042969 527.875 C 760.480469 527.875 731.65625 525.007812 731.65625 521.460938 C 731.65625 517.917969 760.480469 515.050781 796.042969 515.050781 C 831.601562 515.050781 860.429688 517.917969 860.429688 521.460938 Z M 860.429688 521.460938 " fill-opacity="1" fill-rule="nonzero"/></g><path fill="#432d6e" d="M 327.109375 521.515625 C 327.109375 524.515625 311.242188 526.945312 291.667969 526.945312 C 272.09375 526.945312 256.226562 524.515625 256.226562 521.515625 C 256.226562 518.515625 272.09375 516.089844 291.667969 516.089844 C 311.242188 516.089844 327.109375 518.515625 327.109375 521.515625 Z M 327.109375 521.515625 " fill-opacity="1" fill-rule="nonzero"/><path fill="#eeebff" d="M 559.652344 388.898438 L 559.652344 510.933594 C 559.652344 517.351562 554.453125 522.558594 548.035156 522.558594 L 510.101562 522.558594 C 503.683594 522.558594 498.480469 517.351562 498.480469 510.933594 L 498.480469 389.683594 C 518.542969 392.949219 539.253906 392.773438 559.652344 388.898438 Z M 559.652344 388.898438 " fill-opacity="1" fill-rule="nonzero"/><path fill="#dcd9fc" d="M 559.652344 388.898438 L 559.652344 510.933594 C 559.652344 517.355469 554.453125 522.558594 548.035156 522.558594 L 547.835938 522.558594 C 547.921875 522.03125 547.960938 521.480469 547.960938 520.929688 L 547.960938 454.503906 C 547.960938 426.707031 526.644531 403.796875 498.972656 401.230469 C 498.808594 401.214844 498.644531 401.199219 498.480469 401.183594 L 498.480469 389.683594 C 518.542969 392.949219 539.253906 392.773438 559.652344 388.898438 Z M 559.652344 388.898438 " fill-opacity="1" fill-rule="nonzero"/><path fill="#eeebff" d="M 680.199219 128.207031 C 632.058594 43.414062 524.332031 13.726562 439.570312 61.882812 C 388.003906 91.183594 356.8125 142.554688 351.144531 197.40625 C 350.78125 200.9375 350.519531 204.476562 350.382812 208.015625 C 350.332031 208.855469 350.308594 209.695312 350.28125 210.53125 C 350.082031 217.777344 350.320312 225.058594 351.007812 232.328125 C 353.308594 256.335938 360.589844 280.257812 373.269531 302.59375 C 421.410156 387.382812 529.136719 417.074219 613.898438 368.914062 C 666.730469 338.902344 698.171875 285.726562 702.6875 229.386719 C 705.488281 194.851562 698.074219 159.699219 680.199219 128.207031 Z M 477.730469 333.496094 L 477.71875 333.496094 C 427.292969 312.601562 397.03125 262.660156 398.984375 210.65625 C 400.613281 167.878906 423.675781 126.902344 463.625 104.222656 C 524.996094 69.351562 603.015625 90.847656 637.875 152.238281 C 650.132812 173.824219 655.421875 197.46875 654.460938 220.566406 C 650.78125 309.476562 559.917969 367.542969 477.730469 333.496094 Z M 477.730469 333.496094 " fill-opacity="1" fill-rule="nonzero"/><path fill="#ffffff" d="M 680.199219 128.207031 C 632.058594 43.414062 524.332031 13.726562 439.570312 61.882812 C 388.003906 91.183594 356.8125 142.554688 351.144531 197.40625 C 350.78125 200.9375 350.519531 204.476562 350.382812 208.015625 C 350.332031 208.855469 350.308594 209.695312 350.28125 210.53125 C 350.183594 214.199219 350.195312 217.886719 350.332031 221.566406 C 350.34375 221.253906 350.371094 220.953125 350.382812 220.640625 C 350.519531 217.101562 350.78125 213.558594 351.144531 210.03125 C 356.8125 155.179688 388.003906 103.808594 439.570312 74.507812 C 524.332031 26.347656 632.058594 56.039062 680.199219 140.832031 C 694.148438 165.402344 702.023438 192.628906 703.152344 221.34375 C 703.425781 213.335938 696.230469 156.445312 680.199219 128.207031 Z M 680.199219 128.207031 " fill-opacity="0.6" fill-rule="nonzero"/><path fill="#dcd9fc" d="M 702.6875 229.386719 C 697.996094 229.148438 694.796875 230.324219 692.957031 232.816406 C 673.296875 259.339844 675.082031 341.429688 629.480469 348.597656 C 608.957031 351.824219 594.863281 341.601562 585.46875 328.953125 C 576.390625 316.730469 571.710938 302.242188 569.859375 295.410156 L 616.25 257.636719 C 620.15625 269.167969 621.046875 273.023438 622.179688 277.53125 C 627.984375 258.550781 639.769531 235.472656 654.460938 220.566406 C 661.738281 213.171875 670.34375 207.003906 680.363281 203.664062 C 680.363281 203.664062 692.269531 197.480469 702.335938 197.21875 C 703.4375 207.964844 703.550781 218.738281 702.6875 229.386719 Z M 702.6875 229.386719 " fill-opacity="1" fill-rule="nonzero"/><path fill="#dcd9fc" d="M 496.441406 296.0625 C 494.390625 303.628906 488.851562 320.621094 477.730469 333.496094 L 477.71875 333.496094 C 468.414062 344.253906 455.195312 352.148438 436.820312 349.261719 C 391.21875 342.089844 392.996094 259.988281 373.347656 233.476562 C 370.40625 229.511719 364.027344 228.886719 353.660156 232 C 352.847656 232.238281 351.972656 232.351562 351.007812 232.328125 C 350.320312 225.058594 350.082031 217.777344 350.28125 210.53125 C 352.871094 210.105469 354.535156 209.667969 354.535156 209.667969 C 354.511719 209.65625 354.496094 209.65625 354.472656 209.644531 C 353.007812 209.105469 351.644531 208.554688 350.382812 208.015625 C 350.519531 204.476562 350.78125 200.9375 351.144531 197.40625 C 353.121094 198.296875 355.910156 198.769531 360.113281 198.109375 C 370.71875 196.429688 385.929688 204.328125 385.929688 204.328125 C 390.582031 205.878906 394.933594 208.042969 398.984375 210.65625 C 430.429688 230.902344 444.125 278.21875 444.125 278.21875 C 444.125 278.21875 445.210938 272.578125 450.054688 258.300781 Z M 496.441406 296.0625 " fill-opacity="1" fill-rule="nonzero"/><path fill="#432d6e" d="M 589.863281 326.566406 C 528.582031 361.382812 450.574219 340.074219 415.597656 278.535156 C 380.742188 217.136719 402.242188 139.101562 463.621094 104.222656 C 524.988281 69.355469 603.019531 90.851562 637.875 152.25 C 672.796875 213.75 651.109375 291.800781 589.863281 326.566406 Z M 589.863281 326.566406 " fill-opacity="1" fill-rule="nonzero"/><path fill="#ffc2ab" d="M 594.703125 167.644531 C 594.703125 168.609375 594.613281 169.570312 594.4375 170.519531 C 594.265625 171.46875 594.003906 172.390625 593.660156 173.285156 C 593.320312 174.175781 592.898438 175.027344 592.402344 175.832031 C 591.902344 176.636719 591.335938 177.378906 590.703125 178.066406 C 590.070312 178.75 589.378906 179.359375 588.632812 179.898438 C 587.890625 180.433594 587.101562 180.890625 586.273438 181.257812 C 585.445312 181.628906 584.59375 181.910156 583.714844 182.097656 C 582.835938 182.285156 581.945312 182.382812 581.050781 182.382812 C 580.152344 182.382812 579.265625 182.285156 578.386719 182.097656 C 577.507812 181.910156 576.652344 181.628906 575.824219 181.257812 C 574.996094 180.890625 574.210938 180.433594 573.464844 179.898438 C 572.71875 179.359375 572.03125 178.75 571.398438 178.066406 C 570.761719 177.378906 570.199219 176.636719 569.699219 175.832031 C 569.203125 175.027344 568.78125 174.175781 568.4375 173.285156 C 568.09375 172.390625 567.835938 171.46875 567.660156 170.519531 C 567.484375 169.570312 567.398438 168.609375 567.398438 167.644531 C 567.398438 166.675781 567.484375 165.71875 567.660156 164.769531 C 567.835938 163.820312 568.09375 162.898438 568.4375 162.003906 C 568.78125 161.109375 569.203125 160.261719 569.699219 159.457031 C 570.199219 158.652344 570.761719 157.90625 571.398438 157.222656 C 572.03125 156.539062 572.71875 155.925781 573.464844 155.390625 C 574.210938 154.851562 574.996094 154.398438 575.824219 154.027344 C 576.652344 153.65625 577.507812 153.378906 578.386719 153.1875 C 579.265625 153 580.152344 152.90625 581.050781 152.90625 C 581.945312 152.90625 582.835938 153 583.714844 153.1875 C 584.59375 153.378906 585.445312 153.65625 586.273438 154.027344 C 587.101562 154.398438 587.890625 154.851562 588.632812 155.390625 C 589.378906 155.925781 590.070312 156.539062 590.703125 157.222656 C 591.335938 157.90625 591.902344 158.652344 592.402344 159.457031 C 592.898438 160.261719 593.320312 161.109375 593.660156 162.003906 C 594.003906 162.898438 594.265625 163.820312 594.4375 164.769531 C 594.613281 165.71875 594.703125 166.675781 594.703125 167.644531 Z M 594.703125 167.644531 " fill-opacity="1" fill-rule="nonzero"/><path fill="#fd8169" d="M 589.796875 167.644531 C 589.796875 168.277344 589.738281 168.902344 589.625 169.523438 C 589.507812 170.144531 589.339844 170.746094 589.117188 171.332031 C 588.890625 171.914062 588.617188 172.46875 588.289062 172.996094 C 587.964844 173.523438 587.59375 174.007812 587.179688 174.457031 C 586.765625 174.902344 586.316406 175.304688 585.828125 175.65625 C 585.339844 176.003906 584.828125 176.300781 584.285156 176.542969 C 583.746094 176.785156 583.1875 176.96875 582.613281 177.09375 C 582.035156 177.214844 581.457031 177.277344 580.871094 177.277344 C 580.285156 177.277344 579.703125 177.214844 579.128906 177.09375 C 578.554688 176.96875 577.996094 176.785156 577.453125 176.542969 C 576.914062 176.300781 576.398438 176.007812 575.910156 175.65625 C 575.425781 175.304688 574.972656 174.902344 574.558594 174.457031 C 574.144531 174.007812 573.773438 173.523438 573.449219 172.996094 C 573.125 172.46875 572.847656 171.914062 572.625 171.332031 C 572.402344 170.746094 572.230469 170.144531 572.117188 169.523438 C 572.003906 168.902344 571.945312 168.277344 571.945312 167.644531 C 571.945312 167.011719 572.003906 166.382812 572.117188 165.765625 C 572.230469 165.144531 572.402344 164.539062 572.625 163.957031 C 572.847656 163.371094 573.125 162.816406 573.449219 162.289062 C 573.773438 161.765625 574.144531 161.277344 574.558594 160.832031 C 574.972656 160.382812 575.425781 159.984375 575.910156 159.632812 C 576.398438 159.28125 576.914062 158.984375 577.453125 158.742188 C 577.996094 158.5 578.554688 158.316406 579.128906 158.195312 C 579.703125 158.070312 580.285156 158.007812 580.871094 158.007812 C 581.457031 158.007812 582.035156 158.070312 582.613281 158.195312 C 583.1875 158.316406 583.746094 158.5 584.285156 158.742188 C 584.828125 158.984375 585.339844 159.28125 585.828125 159.632812 C 586.316406 159.984375 586.765625 160.382812 587.179688 160.832031 C 587.59375 161.277344 587.964844 161.765625 588.289062 162.289062 C 588.617188 162.816406 588.890625 163.371094 589.117188 163.957031 C 589.339844 164.539062 589.507812 165.144531 589.625 165.765625 C 589.738281 166.382812 589.796875 167.011719 589.796875 167.644531 Z M 589.796875 167.644531 " fill-opacity="1" fill-rule="nonzero"/><path fill="#ffc2ab" d="M 503.054688 167.644531 C 503.054688 168.609375 502.964844 169.570312 502.792969 170.519531 C 502.617188 171.46875 502.359375 172.390625 502.015625 173.285156 C 501.671875 174.175781 501.25 175.027344 500.753906 175.832031 C 500.253906 176.636719 499.6875 177.378906 499.054688 178.066406 C 498.421875 178.75 497.730469 179.359375 496.988281 179.898438 C 496.242188 180.433594 495.453125 180.890625 494.625 181.257812 C 493.796875 181.628906 492.945312 181.910156 492.066406 182.097656 C 491.1875 182.285156 490.300781 182.382812 489.402344 182.382812 C 488.507812 182.382812 487.617188 182.285156 486.738281 182.097656 C 485.859375 181.910156 485.007812 181.628906 484.179688 181.257812 C 483.351562 180.890625 482.5625 180.433594 481.820312 179.898438 C 481.074219 179.359375 480.382812 178.75 479.75 178.066406 C 479.117188 177.378906 478.550781 176.636719 478.050781 175.832031 C 477.554688 175.027344 477.132812 174.175781 476.789062 173.285156 C 476.449219 172.390625 476.1875 171.46875 476.011719 170.519531 C 475.839844 169.570312 475.75 168.609375 475.75 167.644531 C 475.75 166.675781 475.839844 165.71875 476.011719 164.769531 C 476.1875 163.820312 476.449219 162.898438 476.789062 162.003906 C 477.132812 161.109375 477.554688 160.261719 478.050781 159.457031 C 478.550781 158.652344 479.117188 157.90625 479.75 157.222656 C 480.382812 156.539062 481.074219 155.925781 481.820312 155.390625 C 482.5625 154.851562 483.351562 154.398438 484.179688 154.027344 C 485.007812 153.65625 485.859375 153.378906 486.738281 153.1875 C 487.617188 153 488.507812 152.90625 489.402344 152.90625 C 490.300781 152.90625 491.1875 153 492.066406 153.1875 C 492.945312 153.378906 493.796875 153.65625 494.625 154.027344 C 495.453125 154.398438 496.242188 154.851562 496.988281 155.390625 C 497.730469 155.925781 498.421875 156.539062 499.054688 157.222656 C 499.6875 157.90625 500.253906 158.652344 500.753906 159.457031 C 501.25 160.261719 501.671875 161.109375 502.015625 162.003906 C 502.359375 162.898438 502.617188 163.820312 502.792969 164.769531 C 502.964844 165.71875 503.054688 166.675781 503.054688 167.644531 Z M 503.054688 167.644531 " fill-opacity="1" fill-rule="nonzero"/><path fill="#fd8169" d="M 498.148438 167.644531 C 498.148438 168.277344 498.09375 168.902344 497.976562 169.523438 C 497.863281 170.144531 497.695312 170.746094 497.46875 171.332031 C 497.246094 171.914062 496.96875 172.46875 496.644531 172.996094 C 496.320312 173.523438 495.949219 174.007812 495.535156 174.457031 C 495.121094 174.902344 494.667969 175.304688 494.183594 175.65625 C 493.695312 176.003906 493.179688 176.300781 492.640625 176.542969 C 492.097656 176.785156 491.539062 176.96875 490.964844 177.09375 C 490.390625 177.214844 489.808594 177.277344 489.222656 177.277344 C 488.636719 177.277344 488.058594 177.214844 487.484375 177.09375 C 486.910156 176.96875 486.351562 176.785156 485.808594 176.542969 C 485.265625 176.300781 484.753906 176.007812 484.265625 175.65625 C 483.777344 175.304688 483.328125 174.902344 482.914062 174.457031 C 482.5 174.007812 482.128906 173.523438 481.804688 172.996094 C 481.476562 172.46875 481.203125 171.914062 480.980469 171.332031 C 480.753906 170.746094 480.585938 170.144531 480.472656 169.523438 C 480.355469 168.902344 480.300781 168.277344 480.300781 167.644531 C 480.300781 167.011719 480.355469 166.382812 480.472656 165.765625 C 480.585938 165.144531 480.753906 164.539062 480.980469 163.957031 C 481.203125 163.371094 481.476562 162.816406 481.804688 162.289062 C 482.128906 161.765625 482.5 161.277344 482.914062 160.832031 C 483.328125 160.382812 483.777344 159.984375 484.265625 159.632812 C 484.753906 159.28125 485.265625 158.984375 485.808594 158.742188 C 486.351562 158.5 486.910156 158.316406 487.484375 158.195312 C 488.058594 158.070312 488.636719 158.007812 489.222656 158.007812 C 489.808594 158.007812 490.390625 158.070312 490.964844 158.195312 C 491.539062 158.316406 492.097656 158.5 492.640625 158.742188 C 493.179688 158.984375 493.695312 159.28125 494.183594 159.632812 C 494.667969 159.984375 495.121094 160.382812 495.535156 160.832031 C 495.949219 161.277344 496.320312 161.765625 496.644531 162.289062 C 496.96875 162.816406 497.246094 163.371094 497.46875 163.957031 C 497.695312 164.539062 497.863281 165.144531 497.976562 165.765625 C 498.09375 166.382812 498.148438 167.011719 498.148438 167.644531 Z M 498.148438 167.644531 " fill-opacity="1" fill-rule="nonzero"/><path fill="#fd8169" d="M 612.878906 253.246094 C 612.878906 253.246094 594.441406 224.800781 560.8125 219.695312 C 544.601562 217.234375 526.601562 217.546875 510.054688 219.160156 C 472.015625 222.875 453.625 253.246094 453.625 253.246094 L 422.585938 306.460938 C 423.914062 307.609375 425.082031 308.871094 426.222656 310.21875 C 430.417969 307.722656 436.464844 310.574219 435.742188 316.734375 C 440.070312 317.957031 441.492188 322.390625 439.859375 326.078125 C 467.023438 339.429688 506.804688 351.800781 526.847656 351.800781 C 546.179688 351.800781 565.769531 346.929688 583.785156 336.695312 C 595.007812 330.328125 628.410156 311.996094 636.558594 302.882812 Z M 612.878906 253.246094 " fill-opacity="1" fill-rule="nonzero"/><path fill="#f9634e" d="M 612.886719 268.222656 L 612.886719 313.238281 C 575.371094 355.265625 512.476562 364.351562 464.300781 333.46875 C 476.71875 337.925781 490.101562 340.339844 504.058594 340.339844 C 552.960938 340.339844 594.925781 310.613281 612.886719 268.222656 Z M 612.886719 268.222656 " fill-opacity="1" fill-rule="nonzero"/><path fill="#ffffff" d="M 556.636719 219.546875 C 555.179688 236.589844 547.351562 253.046875 535.457031 253.046875 C 523.441406 253.046875 515.570312 236.265625 514.242188 219.054688 C 528.039062 217.347656 543.066406 217.515625 556.636719 219.546875 Z M 556.636719 219.546875 " fill-opacity="1" fill-rule="nonzero"/><path fill="#ffc2ab" d="M 549.238281 217.886719 L 549.238281 218.003906 C 549.238281 233.539062 543.066406 246.128906 535.464844 246.128906 C 527.863281 246.128906 521.707031 233.539062 521.707031 218.003906 L 521.707031 217.898438 C 526.015625 219.734375 530.648438 220.738281 535.464844 220.738281 C 540.296875 220.738281 544.929688 219.734375 549.238281 217.886719 Z M 549.238281 217.886719 " fill-opacity="1" fill-rule="nonzero"/><path fill="#fd8169" d="M 549.238281 217.886719 L 549.238281 218.003906 C 549.238281 232.652344 543.757812 244.671875 536.753906 246 C 538.105469 244.40625 539.3125 241.230469 540.324219 237.675781 C 542.253906 230.898438 537.070312 224.339844 530.027344 224.371094 C 529.976562 224.371094 529.929688 224.371094 529.882812 224.371094 C 527.175781 224.371094 524.53125 224.058594 521.96875 223.445312 C 521.796875 221.6875 521.707031 219.863281 521.707031 218.003906 L 521.707031 217.898438 C 526.015625 219.734375 530.648438 220.738281 535.464844 220.738281 C 540.296875 220.738281 544.929688 219.734375 549.238281 217.886719 Z M 549.238281 217.886719 " fill-opacity="1" fill-rule="nonzero"/><path fill="#ffc2ab" d="M 577.96875 167.644531 C 577.96875 169.382812 577.902344 171.117188 577.765625 172.847656 C 577.628906 174.578125 577.421875 176.296875 577.152344 178 C 576.878906 179.707031 576.542969 181.390625 576.140625 183.054688 C 575.734375 184.71875 575.265625 186.355469 574.734375 187.960938 C 574.199219 189.570312 573.605469 191.140625 572.949219 192.671875 C 572.292969 194.207031 571.578125 195.695312 570.804688 197.140625 C 570.03125 198.589844 569.203125 199.984375 568.320312 201.328125 C 567.4375 202.671875 566.503906 203.957031 565.519531 205.1875 C 564.535156 206.417969 563.507812 207.585938 562.429688 208.6875 C 561.355469 209.789062 560.238281 210.824219 559.082031 211.792969 C 557.921875 212.757812 556.730469 213.652344 555.503906 214.46875 C 554.277344 215.289062 553.019531 216.03125 551.734375 216.699219 C 550.449219 217.363281 549.136719 217.949219 547.804688 218.453125 C 546.472656 218.957031 545.125 219.378906 543.761719 219.71875 C 542.394531 220.058594 541.019531 220.3125 539.636719 220.484375 C 538.25 220.65625 536.863281 220.738281 535.46875 220.738281 C 534.078125 220.738281 532.6875 220.65625 531.304688 220.484375 C 529.917969 220.3125 528.542969 220.058594 527.179688 219.71875 C 525.8125 219.378906 524.464844 218.957031 523.132812 218.453125 C 521.800781 217.949219 520.492188 217.363281 519.207031 216.699219 C 517.921875 216.03125 516.664062 215.289062 515.4375 214.46875 C 514.207031 213.652344 513.015625 212.757812 511.859375 211.792969 C 510.699219 210.824219 509.585938 209.789062 508.507812 208.6875 C 507.433594 207.585938 506.402344 206.417969 505.417969 205.1875 C 504.433594 203.957031 503.5 202.671875 502.617188 201.328125 C 501.734375 199.984375 500.90625 198.589844 500.132812 197.140625 C 499.359375 195.695312 498.644531 194.207031 497.988281 192.671875 C 497.332031 191.140625 496.738281 189.570312 496.207031 187.960938 C 495.671875 186.355469 495.203125 184.71875 494.800781 183.054688 C 494.398438 181.390625 494.058594 179.707031 493.789062 178 C 493.515625 176.296875 493.3125 174.578125 493.175781 172.847656 C 493.039062 171.117188 492.972656 169.382812 492.96875 167.644531 C 492.972656 165.90625 493.039062 164.167969 493.175781 162.4375 C 493.3125 160.707031 493.515625 158.992188 493.789062 157.285156 C 494.058594 155.578125 494.398438 153.894531 494.800781 152.230469 C 495.203125 150.566406 495.671875 148.929688 496.207031 147.324219 C 496.738281 145.71875 497.332031 144.148438 497.988281 142.613281 C 498.644531 141.082031 499.359375 139.589844 500.132812 138.144531 C 500.90625 136.699219 501.734375 135.304688 502.617188 133.960938 C 503.5 132.613281 504.433594 131.328125 505.417969 130.097656 C 506.402344 128.867188 507.433594 127.703125 508.507812 126.597656 C 509.585938 125.496094 510.703125 124.460938 511.859375 123.496094 C 513.015625 122.527344 514.207031 121.636719 515.4375 120.816406 C 516.664062 119.996094 517.921875 119.253906 519.207031 118.589844 C 520.492188 117.921875 521.800781 117.339844 523.132812 116.832031 C 524.464844 116.328125 525.8125 115.90625 527.179688 115.566406 C 528.542969 115.226562 529.917969 114.972656 531.304688 114.800781 C 532.6875 114.632812 534.078125 114.546875 535.46875 114.546875 C 536.863281 114.546875 538.25 114.632812 539.636719 114.800781 C 541.019531 114.972656 542.394531 115.226562 543.761719 115.566406 C 545.125 115.90625 546.472656 116.328125 547.804688 116.832031 C 549.136719 117.339844 550.449219 117.921875 551.734375 118.589844 C 553.019531 119.253906 554.277344 119.996094 555.503906 120.816406 C 556.730469 121.636719 557.921875 122.527344 559.082031 123.496094 C 560.238281 124.460938 561.355469 125.496094 562.429688 126.597656 C 563.507812 127.703125 564.535156 128.867188 565.519531 130.097656 C 566.503906 131.328125 567.4375 132.613281 568.320312 133.960938 C 569.203125 135.304688 570.03125 136.699219 570.804688 138.144531 C 571.578125 139.589844 572.292969 141.082031 572.949219 142.613281 C 573.605469 144.148438 574.199219 145.71875 574.734375 147.324219 C 575.265625 148.929688 575.734375 150.566406 576.140625 152.230469 C 576.542969 153.894531 576.878906 155.578125 577.152344 157.285156 C 577.421875 158.992188 577.628906 160.707031 577.765625 162.4375 C 577.902344 164.167969 577.96875 165.90625 577.96875 167.644531 Z M 577.96875 167.644531 " fill-opacity="1" fill-rule="nonzero"/><path fill="#031230" d="M 546.117188 202.625 L 546.117188 202.628906 C 544.746094 204.097656 540.351562 201.335938 535.136719 201.335938 C 528.828125 201.335938 523.707031 205.386719 523.707031 201.070312 C 523.707031 198.492188 528.824219 193.261719 535.132812 193.261719 C 542.726562 193.261719 548.1875 200.402344 546.117188 202.625 Z M 546.117188 202.625 " fill-opacity="1" fill-rule="nonzero"/><path fill="#031230" d="M 564.429688 170.691406 C 564.429688 175.269531 560.71875 178.976562 556.136719 178.976562 C 551.5625 178.976562 547.851562 175.269531 547.851562 170.691406 C 547.851562 166.105469 551.5625 162.398438 556.136719 162.398438 C 560.71875 162.398438 564.429688 166.105469 564.429688 170.691406 Z M 564.429688 170.691406 " fill-opacity="1" fill-rule="nonzero"/><path fill="#ffffff" d="M 561.644531 172.683594 C 561.644531 174.121094 560.480469 175.285156 559.042969 175.285156 C 557.605469 175.285156 556.441406 174.121094 556.441406 172.683594 C 556.441406 171.246094 557.605469 170.082031 559.042969 170.082031 C 560.480469 170.082031 561.644531 171.246094 561.644531 172.683594 Z M 561.644531 172.683594 " fill-opacity="1" fill-rule="nonzero"/><path fill="#fd8169" d="M 539.824219 179.910156 C 538.488281 181.472656 537.398438 183.007812 535.144531 183.007812 C 532.695312 183.007812 531.34375 181.621094 529.828125 179.910156 C 529.359375 179.378906 528.632812 179.398438 528.765625 179.425781 C 527.847656 179.425781 527.164062 180.285156 527.375 181.175781 C 528.203125 184.707031 531.371094 187.335938 535.144531 187.335938 C 538.929688 187.335938 542.089844 184.707031 542.914062 181.175781 C 543.125 180.285156 542.441406 179.425781 541.527344 179.425781 C 541.183594 179.46875 540.402344 179.242188 539.824219 179.910156 Z M 539.824219 179.910156 " fill-opacity="1" fill-rule="nonzero"/><path fill="#031230" d="M 504.0625 159.382812 C 501.855469 159.382812 500.710938 156.691406 502.292969 155.109375 C 508.351562 149.050781 518.203125 149.046875 524.253906 155.097656 C 525.230469 156.074219 525.230469 157.660156 524.253906 158.636719 C 523.277344 159.613281 521.695312 159.613281 520.71875 158.636719 C 516.617188 154.535156 509.9375 154.539062 505.832031 158.648438 C 505.34375 159.136719 504.703125 159.382812 504.0625 159.382812 Z M 504.0625 159.382812 " fill-opacity="1" fill-rule="nonzero"/><path fill="#031230" d="M 547.636719 159.382812 C 545.429688 159.382812 544.289062 156.691406 545.871094 155.109375 C 551.925781 149.050781 561.78125 149.046875 567.832031 155.097656 C 568.808594 156.074219 568.808594 157.660156 567.832031 158.636719 C 566.855469 159.613281 565.269531 159.613281 564.292969 158.636719 C 560.191406 154.535156 553.515625 154.539062 549.40625 158.648438 C 548.917969 159.136719 548.277344 159.382812 547.636719 159.382812 Z M 547.636719 159.382812 " fill-opacity="1" fill-rule="nonzero"/><path fill="#031230" d="M 521.546875 170.691406 C 521.546875 175.269531 517.839844 178.976562 513.253906 178.976562 C 508.679688 178.976562 504.972656 175.269531 504.972656 170.691406 C 504.972656 166.105469 508.679688 162.398438 513.253906 162.398438 C 517.839844 162.398438 521.546875 166.105469 521.546875 170.691406 Z M 521.546875 170.691406 " fill-opacity="1" fill-rule="nonzero"/><path fill="#ffffff" d="M 519.625 171.3125 C 519.625 172.75 518.460938 173.917969 517.023438 173.917969 C 515.585938 173.917969 514.421875 172.75 514.421875 171.3125 C 514.421875 169.875 515.585938 168.710938 517.023438 168.710938 C 518.460938 168.710938 519.625 169.875 519.625 171.3125 Z M 519.625 171.3125 " fill-opacity="1" fill-rule="nonzero"/><path fill="#432d6e" d="M 615 531.109375 C 615.195312 535.238281 594.578125 539.3125 568.949219 540.21875 C 543.316406 541.128906 522.382812 538.527344 522.1875 534.402344 C 521.992188 530.28125 542.605469 526.207031 568.238281 525.296875 C 593.867188 524.390625 614.804688 526.992188 615 531.109375 Z M 615 531.109375 " fill-opacity="1" fill-rule="nonzero"/><g clip-path="url(#e8e33a993b)"><path fill="#432d6e" d="M 729.230469 542.183594 C 729.390625 545.527344 708.4375 548.308594 682.425781 548.40625 C 656.417969 548.503906 635.207031 545.878906 635.046875 542.539062 C 634.886719 539.199219 655.84375 536.417969 681.851562 536.320312 C 707.859375 536.222656 729.074219 538.847656 729.230469 542.183594 Z M 729.230469 542.183594 " fill-opacity="1" fill-rule="nonzero"/></g><path fill="#432d6e" d="M 756.710938 517.679688 C 756.710938 520.382812 742.472656 522.570312 724.910156 522.570312 C 707.347656 522.570312 693.113281 520.382812 693.113281 517.679688 C 693.113281 514.976562 707.347656 512.789062 724.910156 512.789062 C 742.472656 512.789062 756.710938 514.976562 756.710938 517.679688 Z M 756.710938 517.679688 " fill-opacity="1" fill-rule="nonzero"/><path fill="#9d47ff" d="M 832.71875 404.167969 C 840.0625 409.152344 840.457031 441.691406 831.945312 443.5 C 826.214844 444.71875 808.566406 443.5 808.566406 443.5 C 808.566406 443.5 811.230469 501.957031 808.566406 518.671875 C 807.722656 523.957031 765.625 523.128906 764.820312 518.671875 C 762.113281 503.617188 764.820312 443.5 764.820312 443.5 C 764.820312 443.5 686.589844 447.949219 669.429688 437.914062 C 660.035156 432.417969 665.527344 409.03125 668.316406 399.957031 C 679.023438 365.160156 716.253906 300.398438 736.628906 271.355469 C 743.433594 261.660156 789.472656 265.445312 785.929688 276.75 C 775.492188 310.035156 718.992188 401.359375 718.992188 401.359375 L 764.820312 401.359375 C 764.820312 401.359375 764.597656 372.453125 766.511719 364.070312 C 768.949219 353.402344 815.03125 352.265625 817.871094 362.832031 C 820.085938 371.078125 808.566406 401.359375 808.566406 401.359375 C 808.566406 401.359375 827.242188 400.449219 832.71875 404.167969 Z M 832.71875 404.167969 " fill-opacity="1" fill-rule="nonzero"/><path fill="#bd83ff" d="M 843.691406 404.167969 C 851.039062 409.152344 851.429688 441.691406 842.921875 443.5 C 837.1875 444.71875 819.539062 443.5 819.539062 443.5 C 819.539062 443.5 822.203125 501.957031 819.539062 518.671875 C 818.695312 523.957031 776.597656 523.128906 775.796875 518.671875 C 773.085938 503.617188 775.796875 443.5 775.796875 443.5 C 775.796875 443.5 697.5625 447.949219 680.40625 437.914062 C 671.011719 432.417969 676.5 409.03125 679.292969 399.957031 C 689.996094 365.160156 727.226562 300.398438 747.605469 271.355469 C 754.40625 261.660156 795.8125 267.542969 792.269531 278.847656 C 781.835938 312.132812 729.96875 401.359375 729.96875 401.359375 L 775.796875 401.359375 C 775.796875 401.359375 775.570312 372.453125 777.488281 364.070312 C 779.925781 353.402344 816.699219 352.339844 819.539062 362.902344 C 821.753906 371.148438 819.539062 401.359375 819.539062 401.359375 C 819.539062 401.359375 838.214844 400.449219 843.691406 404.167969 Z M 843.691406 404.167969 " fill-opacity="1" fill-rule="nonzero"/><path fill="#9d47ff" d="M 362.492188 404.167969 C 369.835938 409.152344 370.230469 441.691406 361.71875 443.5 C 355.984375 444.71875 338.335938 443.5 338.335938 443.5 C 338.335938 443.5 341.003906 501.957031 338.335938 518.671875 C 337.496094 523.957031 295.394531 523.128906 294.59375 518.671875 C 291.882812 503.617188 294.59375 443.5 294.59375 443.5 C 294.59375 443.5 216.359375 447.949219 199.203125 437.914062 C 189.808594 432.417969 195.296875 409.03125 198.089844 399.957031 C 208.796875 365.160156 246.023438 300.398438 266.402344 271.355469 C 273.207031 261.660156 319.242188 265.445312 315.699219 276.75 C 305.265625 310.035156 248.765625 401.359375 248.765625 401.359375 L 294.59375 401.359375 C 294.59375 401.359375 294.367188 372.453125 296.285156 364.070312 C 298.722656 353.402344 344.804688 352.265625 347.640625 362.832031 C 349.855469 371.078125 338.335938 401.359375 338.335938 401.359375 C 338.335938 401.359375 357.011719 400.449219 362.492188 404.167969 Z M 362.492188 404.167969 " fill-opacity="1" fill-rule="nonzero"/><path fill="#bd83ff" d="M 373.464844 404.167969 C 380.808594 409.152344 381.203125 441.691406 372.691406 443.5 C 366.960938 444.71875 349.3125 443.5 349.3125 443.5 C 349.3125 443.5 351.976562 501.957031 349.3125 518.671875 C 348.46875 523.957031 306.367188 523.128906 305.566406 518.671875 C 302.859375 503.617188 305.566406 443.5 305.566406 443.5 C 305.566406 443.5 227.335938 447.949219 210.175781 437.914062 C 200.78125 432.417969 206.273438 409.03125 209.0625 399.957031 C 219.769531 365.160156 256.996094 300.398438 277.375 271.355469 C 284.179688 261.660156 325.585938 267.542969 322.042969 278.847656 C 311.609375 312.132812 259.738281 401.359375 259.738281 401.359375 L 305.566406 401.359375 C 305.566406 401.359375 305.34375 372.453125 307.257812 364.070312 C 309.695312 353.402344 346.472656 352.339844 349.3125 362.902344 C 351.527344 371.148438 349.3125 401.359375 349.3125 401.359375 C 349.3125 401.359375 367.988281 400.449219 373.464844 404.167969 Z M 373.464844 404.167969 " fill-opacity="1" fill-rule="nonzero"/><path fill="#8ebc5f" d="M 500.683594 508.46875 C 501.566406 508.757812 505.335938 509.414062 507.960938 511.476562 C 510.019531 513.113281 511.382812 516.015625 510.449219 518.480469 C 509.757812 520.289062 508 522.007812 506.140625 522.554688 C 504.375 523.109375 397.828125 524.023438 363.796875 522.554688 C 337.277344 521.410156 329.898438 495.875 329.558594 487.304688 C 329.417969 483.816406 329.871094 479.832031 332.058594 477.097656 C 334.609375 473.777344 339.011719 472.355469 343.214844 471.902344 C 350.308594 471.09375 357.636719 472.433594 363.992188 475.691406 C 360.019531 471.53125 360.492188 464.320312 364.25 460.078125 C 370.742188 452.785156 384.308594 453.714844 391.210938 463.398438 C 390.949219 452.695312 395.140625 441.953125 402.613281 434.28125 C 410.269531 426.386719 418.417969 424.621094 428.464844 429.503906 C 440.453125 435.277344 444.839844 445.6875 442.652344 454.101562 C 442.667969 454.113281 442.652344 454.113281 442.652344 454.113281 C 442.453125 454.890625 442.226562 455.492188 442.042969 456.015625 C 442.105469 456.144531 442.480469 456.941406 442.417969 456.808594 L 442.417969 456.824219 L 442.535156 457.042969 L 442.628906 457.226562 C 446.691406 450.992188 452.652344 446.480469 459.210938 444.152344 C 463.6875 442.488281 469.488281 441.550781 473.597656 444.074219 C 477.03125 446.171875 478.738281 450.351562 478.933594 454.386719 C 479.101562 458.410156 477.96875 462.371094 476.851562 466.238281 C 514.285156 457.34375 526.496094 491.449219 500.683594 508.46875 Z M 500.683594 508.46875 " fill-opacity="1" fill-rule="nonzero"/><path fill="#ffffff" d="M 442.417969 456.824219 L 442.535156 457.042969 C 442.394531 457.238281 442.277344 457.433594 442.171875 457.628906 C 442.261719 457.355469 442.355469 457.082031 442.417969 456.808594 Z M 442.417969 456.824219 " fill-opacity="1" fill-rule="nonzero"/><path fill="#ffffff" d="M 442.652344 454.101562 C 442.289062 447.789062 436.414062 441.515625 424.3125 442.160156 C 409.679688 442.941406 396.011719 453.214844 391.183594 467.042969 C 387.082031 462.226562 380.234375 459.921875 374.050781 461.300781 C 368.597656 462.511719 363.875 466.511719 361.6875 471.640625 C 361.257812 470.207031 361.125 468.683594 361.269531 467.160156 C 362.484375 453.71875 382.109375 450.628906 391.210938 463.398438 C 390.742188 444.121094 404.320312 428.832031 415.058594 427.003906 C 419.613281 426.261719 424.3125 427.484375 428.464844 429.503906 C 440.453125 435.277344 444.839844 445.6875 442.652344 454.101562 Z M 442.652344 454.101562 " fill-opacity="0.4" fill-rule="nonzero"/><path fill="#ffffff" d="M 512.257812 495.589844 C 509.695312 501.113281 505.730469 504.460938 505.566406 504.636719 C 505.398438 504.457031 505.242188 504.261719 505.097656 504.050781 C 506.085938 497.292969 506.335938 490.3125 504.5 483.738281 C 502.675781 477.175781 498.578125 471.015625 492.535156 467.851562 C 486.496094 464.6875 478.464844 465.039062 473.402344 469.609375 C 475.199219 461.757812 470.511719 452.941406 462.988281 450.050781 C 457.011719 447.757812 449.867188 449.453125 445.207031 453.789062 C 448.914062 449.4375 453.824219 446.066406 459.210938 444.152344 C 463.6875 442.488281 469.488281 441.550781 473.597656 444.074219 C 477.03125 446.171875 478.738281 450.351562 478.933594 454.386719 C 479.101562 458.410156 477.96875 462.371094 476.851562 466.238281 C 483.59375 464.636719 490.726562 464.023438 497.40625 465.832031 C 504.097656 467.628906 510.277344 472.121094 512.921875 478.53125 C 515.160156 483.933594 514.679688 490.25 512.257812 495.589844 Z M 512.257812 495.589844 " fill-opacity="0.4" fill-rule="nonzero"/><path fill="#eeebff" d="M 841.367188 92.460938 C 841.105469 93.5625 840.53125 94.585938 839.679688 95.351562 C 835.371094 99.152344 821.808594 97.636719 814.816406 87.71875 C 809.09375 96.546875 798.828125 100.113281 788.449219 102.019531 C 771.703125 105.035156 754.292969 104.207031 737.933594 99.640625 C 732.761719 98.175781 727.429688 96.234375 724.148438 91.898438 C 719.007812 94.425781 713.144531 95.4375 707.464844 94.726562 C 705.164062 94.425781 702.789062 93.824219 700.960938 92.398438 C 699.125 90.933594 697.933594 88.480469 698.546875 86.21875 C 699.285156 83.351562 702.585938 81.8125 705.539062 82.039062 C 708.492188 82.261719 711.15625 83.828125 713.679688 85.339844 C 713.085938 79.488281 708.769531 74.847656 705.226562 70.089844 C 702.074219 65.875 699.359375 60.429688 700.546875 55.488281 C 703.226562 44.304688 726.890625 41.300781 741.148438 55.125 C 738.757812 49.957031 736.320312 44.679688 735.507812 39.011719 C 734.679688 33.378906 735.667969 27.199219 739.421875 22.910156 C 747.101562 14.070312 767.136719 14.125 780.28125 26.3125 C 786.898438 32.441406 791.113281 41.136719 791.777344 50.132812 C 796.679688 43.550781 807.148438 42.015625 813.691406 46.929688 C 820.375 51.914062 821.695312 62.480469 816.828125 68.863281 C 823.332031 68.527344 829.9375 70.003906 835.652344 73.09375 C 838.367188 74.542969 841.066406 76.644531 841.71875 79.636719 C 842.292969 82.414062 839.96875 85.753906 837.289062 85.453125 C 839.949219 86.039062 842.195312 89.230469 841.367188 92.460938 Z M 841.367188 92.460938 " fill-opacity="1" fill-rule="nonzero"/><path fill="#6b9b3c" d="M 493.195312 522.921875 C 463.464844 523.382812 390.863281 523.71875 363.789062 522.558594 C 337.273438 521.40625 329.894531 495.871094 329.558594 487.3125 C 329.417969 483.808594 329.875 479.824219 332.058594 477.101562 C 336.027344 485.054688 339.929688 492.027344 345.96875 498.75 C 348.429688 501.5 351.183594 504.140625 354.597656 505.515625 C 358.011719 506.90625 362.25 506.792969 365.066406 504.402344 C 369.59375 500.550781 368.542969 493.105469 371.855469 488.175781 C 374.621094 484.085938 380.523438 482.46875 384.976562 484.621094 C 389.429688 486.761719 391.867188 492.378906 390.394531 497.097656 C 394.183594 491.828125 398.660156 486.898438 404.3125 483.710938 C 409.953125 480.507812 416.921875 479.207031 423.050781 481.332031 C 429.179688 483.460938 434.09375 489.441406 433.90625 495.933594 C 437.296875 488.890625 445.3125 484.386719 453.078125 485.160156 C 460.847656 485.9375 467.824219 491.929688 469.765625 499.5 C 472.566406 494.40625 479.171875 491.765625 484.710938 493.542969 C 490.238281 495.308594 494.105469 501.277344 493.441406 507.054688 C 500.460938 508.523438 503.730469 521.992188 493.195312 522.921875 Z M 493.195312 522.921875 " fill-opacity="1" fill-rule="nonzero"/><path fill="#ffffff" d="M 442.285156 456.535156 L 442.421875 456.820312 C 442.375 457.011719 442.324219 457.199219 442.285156 457.398438 C 442.296875 457.109375 442.296875 456.820312 442.285156 456.535156 Z M 442.285156 456.535156 " fill-opacity="1" fill-rule="nonzero"/><path fill="#ffc2ab" d="M 748.675781 204.5625 C 743.105469 210.851562 713.699219 225.605469 703.339844 222.480469 C 692.976562 219.371094 686.597656 219.996094 683.65625 223.964844 C 664 250.492188 651.511719 320.71875 631.1875 326.960938 C 610.746094 333.238281 587.273438 305.316406 583.5 291.421875 L 612.878906 253.238281 C 615.898438 259.578125 620.523438 269.265625 620.523438 269.265625 C 620.523438 269.277344 647.140625 209.226562 676.992188 199.265625 C 676.992188 199.265625 692.207031 191.371094 702.804688 193.050781 C 713.414062 194.730469 715.289062 189.535156 717.28125 187.882812 C 725.15625 181.347656 738.835938 193.324219 708.402344 204.617188 C 708.402344 204.617188 730.53125 210.476562 738.992188 200.109375 C 748.859375 187.972656 754.273438 198.261719 748.675781 204.5625 Z M 748.675781 204.5625 " fill-opacity="1" fill-rule="nonzero"/><path fill="#fd8169" d="M 690.109375 206.4375 C 691.898438 208.636719 694.984375 209.214844 697.800781 209.449219 C 706.742188 210.203125 715.847656 209.101562 724.351562 206.210938 C 716.210938 206.734375 708.332031 204.648438 708.332031 204.648438 C 708.355469 204.632812 708.367188 204.632812 708.394531 204.621094 L 708.355469 204.621094 C 702.765625 207.410156 696.136719 208.074219 690.109375 206.4375 Z M 690.109375 206.4375 " fill-opacity="1" fill-rule="nonzero"/><path fill="#ffc2ab" d="M 317.75 204.5625 C 323.320312 210.851562 352.726562 225.605469 363.089844 222.480469 C 373.449219 219.371094 379.828125 219.996094 382.769531 223.964844 C 402.425781 250.492188 414.914062 320.71875 435.242188 326.960938 C 455.679688 333.238281 479.152344 305.316406 482.925781 291.421875 L 453.546875 253.238281 C 450.023438 259.421875 444.960938 268.097656 444.960938 268.097656 C 444.960938 268.109375 419.285156 209.226562 389.433594 199.265625 C 389.433594 199.265625 374.21875 191.371094 363.621094 193.050781 C 353.011719 194.730469 351.136719 189.535156 349.148438 187.882812 C 341.269531 181.347656 327.589844 193.324219 358.023438 204.617188 C 358.023438 204.617188 335.894531 210.476562 327.433594 200.109375 C 317.566406 187.972656 312.152344 198.261719 317.75 204.5625 Z M 317.75 204.5625 " fill-opacity="1" fill-rule="nonzero"/><path fill="#fd8169" d="M 376.316406 206.4375 C 374.53125 208.636719 371.441406 209.214844 368.625 209.449219 C 359.683594 210.203125 350.578125 209.101562 342.074219 206.210938 C 350.214844 206.734375 358.09375 204.648438 358.09375 204.648438 C 358.070312 204.632812 358.058594 204.632812 358.03125 204.621094 L 358.070312 204.621094 C 363.660156 207.410156 370.289062 208.074219 376.316406 206.4375 Z M 376.316406 206.4375 " fill-opacity="1" fill-rule="nonzero"/><path fill="#dcd9fc" d="M 841.367188 92.460938 C 841.105469 93.5625 840.53125 94.585938 839.679688 95.351562 C 835.371094 99.152344 821.808594 97.636719 814.816406 87.71875 C 809.09375 96.546875 798.828125 100.113281 788.449219 102.019531 C 771.703125 105.035156 754.292969 104.207031 737.933594 99.640625 C 732.761719 98.175781 727.429688 96.234375 724.148438 91.898438 C 719.007812 94.425781 713.144531 95.4375 707.464844 94.726562 C 705.164062 94.425781 702.789062 93.824219 700.960938 92.398438 C 699.125 90.933594 697.933594 88.480469 698.546875 86.21875 C 699.285156 83.351562 702.585938 81.8125 705.539062 82.039062 C 708.492188 82.261719 711.15625 83.828125 713.679688 85.339844 C 713.605469 84.601562 713.46875 83.890625 713.292969 83.203125 C 719.820312 88.890625 731.957031 92.871094 743.535156 91.648438 C 754.804688 90.433594 765.5 84.515625 772.503906 75.59375 C 770.941406 80.285156 769.390625 84.976562 767.824219 89.683594 C 774.632812 87.703125 778.914062 81.175781 785.398438 78.621094 C 788.636719 77.347656 792.550781 77.234375 795.390625 79.261719 C 798.082031 81.1875 799.144531 85.378906 797.191406 87.980469 C 802.40625 81.875 812.675781 80.910156 818.867188 86.054688 C 821.40625 88.167969 823.234375 91.058594 825.921875 92.972656 C 830.425781 96.164062 837.101562 95.824219 841.253906 92.183594 C 841.292969 92.273438 841.332031 92.371094 841.367188 92.460938 Z M 841.367188 92.460938 " fill-opacity="1" fill-rule="nonzero"/><path fill="#ffffff" d="M 818.242188 66.5 C 817.941406 66.773438 817.628906 67.023438 817.304688 67.261719 C 817.867188 60.304688 813.238281 53.273438 806.636719 51.035156 C 800.03125 48.796875 792.078125 51.570312 788.3125 57.429688 C 786.3125 36.335938 769.972656 21.101562 759.910156 20.332031 C 753.78125 19.855469 747.8125 23.660156 744.636719 28.925781 C 741.449219 34.179688 740.746094 40.648438 741.472656 46.753906 C 742.199219 52.859375 744.25 58.730469 746.300781 64.523438 C 734.667969 52.835938 715.757812 49.109375 700.546875 55.488281 C 703.226562 44.304688 726.890625 41.300781 741.148438 55.125 C 738.757812 49.957031 736.320312 44.679688 735.507812 39.011719 C 733.597656 25.980469 741.054688 16.726562 755.617188 16.664062 C 774.539062 16.613281 790.390625 31.332031 791.777344 50.132812 C 796.679688 43.550781 807.148438 42.015625 813.691406 46.929688 C 819.53125 51.285156 821.367188 60.003906 818.242188 66.5 Z M 818.242188 66.5 " fill-opacity="0.6" fill-rule="nonzero"/><path fill="#dcd9fc" d="M 747.636719 77.890625 C 755.894531 74.617188 762.628906 67.816406 766.25 59.703125 C 767.558594 65.292969 765.136719 71.308594 761.246094 75.53125 C 757.359375 79.75 751.867188 82.261719 746.234375 83.351562 C 740.601562 84.441406 730.851562 83.199219 724.539062 81.1875 C 724.539062 81.1875 736.996094 82.109375 747.636719 77.890625 Z M 747.636719 77.890625 " fill-opacity="1" fill-rule="nonzero"/><path fill="#eeebff" d="M 352.484375 98.730469 C 352.332031 99.605469 351.894531 100.417969 351.234375 101.019531 C 348.21875 103.699219 338.585938 102.679688 333.597656 95.613281 C 329.558594 101.886719 322.242188 104.429688 314.910156 105.746094 C 295.757812 109.195312 277.285156 104.699219 272.035156 101.105469 C 271 100.417969 270.074219 99.566406 269.324219 98.578125 C 265.671875 100.367188 261.519531 101.09375 257.492188 100.582031 C 255.863281 100.367188 254.175781 99.941406 252.875 98.929688 C 249.195312 96.023438 251.453125 91.21875 256.128906 91.585938 C 258.175781 91.75 260.109375 92.851562 261.90625 93.9375 C 261.46875 89.78125 258.390625 86.46875 255.902344 83.113281 C 254.726562 81.539062 253.636719 79.734375 253 77.859375 C 252.261719 75.757812 252.101562 73.554688 253 71.539062 C 256.105469 64.722656 271.742188 63.152344 281.367188 72.503906 C 279.679688 68.839844 277.953125 65.097656 277.378906 61.082031 C 273.785156 36.695312 315.433594 41.285156 317.277344 68.964844 C 320.585938 64.40625 328.09375 63.144531 332.808594 66.699219 C 337.476562 70.175781 338.539062 77.597656 335.023438 82.238281 C 339.636719 82 344.316406 83.050781 348.382812 85.242188 C 350.292969 86.265625 352.222656 87.769531 352.671875 89.894531 C 353.082031 91.832031 351.457031 94.21875 349.53125 94.011719 C 351.300781 94.390625 352.917969 96.480469 352.484375 98.730469 Z M 352.484375 98.730469 " fill-opacity="1" fill-rule="nonzero"/><path fill="#ffffff" d="M 317.226562 68.402344 C 315.625 68.949219 314.136719 69.839844 312.9375 71.054688 C 311.410156 66.199219 309.859375 61.269531 307.082031 57.003906 C 304.316406 52.734375 300.117188 49.132812 295.113281 48.230469 C 290.109375 47.332031 284.367188 49.734375 282.441406 54.4375 C 279.589844 61.40625 285.570312 69.863281 282.28125 76.632812 C 278.953125 71.890625 273.125 69.027344 267.335938 69.265625 C 261.554688 69.515625 255.988281 72.878906 253.074219 77.882812 L 253 77.859375 C 252.261719 75.757812 252.101562 73.554688 253 71.539062 C 256.105469 64.722656 271.742188 63.152344 281.367188 72.503906 C 279.679688 68.839844 277.953125 65.097656 277.378906 61.082031 C 273.839844 37.054688 314.554688 40.976562 317.226562 68.402344 Z M 317.226562 68.402344 " fill-opacity="0.6" fill-rule="nonzero"/><path fill="#ffffff" d="M 352.320312 92.199219 C 351.632812 92.574219 350.894531 92.824219 350.105469 92.949219 C 347.191406 86.003906 338.902344 81.8125 331.585938 83.589844 C 333.660156 78.734375 331.835938 72.527344 327.457031 69.589844 C 324.691406 67.738281 321.117188 67.3125 317.925781 68.1875 C 321.601562 64.195312 328.445312 63.40625 332.808594 66.699219 C 337.476562 70.175781 338.539062 77.597656 335.023438 82.238281 C 339.636719 82 344.316406 83.050781 348.382812 85.242188 C 351.210938 86.757812 353.761719 89.363281 352.320312 92.199219 Z M 352.320312 92.199219 " fill-opacity="0.6" fill-rule="nonzero"/><path fill="#dcd9fc" d="M 352.484375 98.730469 C 352.332031 99.605469 351.894531 100.417969 351.234375 101.019531 C 348.21875 103.699219 338.585938 102.679688 333.597656 95.613281 C 329.558594 101.886719 322.242188 104.429688 314.910156 105.746094 C 295.757812 109.195312 277.285156 104.699219 272.035156 101.105469 C 271 100.417969 270.074219 99.566406 269.324219 98.578125 C 265.671875 100.367188 261.519531 101.09375 257.492188 100.582031 C 255.863281 100.367188 254.175781 99.941406 252.875 98.929688 C 249.195312 96.023438 251.453125 91.21875 256.128906 91.585938 C 258.140625 91.746094 259.96875 92.785156 261.71875 93.824219 C 261.894531 94.023438 262.117188 94.210938 262.355469 94.375 C 264.570312 95.902344 267.859375 96.300781 270.460938 96.464844 C 281.199219 97.105469 290.425781 91.539062 299.128906 85.265625 C 292.6875 91.5 295.753906 100.179688 301.828125 100.667969 C 304.882812 100.917969 307.621094 98.890625 309.820312 96.765625 C 312.011719 94.625 314.125 92.171875 317.027344 91.195312 C 319.925781 90.21875 323.867188 91.546875 324.328125 94.574219 C 328.363281 88.550781 337.738281 90.230469 339.449219 97.300781 C 341.566406 96.027344 343.621094 99.234375 344.691406 100.082031 C 347.019531 101.96875 350.808594 101.066406 352.484375 98.730469 Z M 352.484375 98.730469 " fill-opacity="1" fill-rule="nonzero"/><path fill="#ffffff" d="M 610.238281 249.671875 C 612.59375 252.3125 614.449219 255.429688 615.6875 259.128906 L 583.128906 299.125 L 573.6875 287.347656 Z M 610.238281 249.671875 " fill-opacity="1" fill-rule="nonzero"/><path fill="#ffffff" d="M 456.035156 249.894531 C 453.683594 252.535156 452.316406 255.246094 450.269531 258.945312 L 483.148438 299.347656 L 492.589844 287.570312 Z M 456.035156 249.894531 " fill-opacity="1" fill-rule="nonzero"/><path fill="#031230" d="M 477.421875 160.574219 C 469.644531 153.394531 466.347656 140.785156 470.300781 130.964844 C 474.25 121.144531 484.625 114.289062 495.203125 114.5 C 489.203125 112.667969 484.949219 106.597656 484.648438 100.324219 C 484.34375 94.054688 487.675781 87.878906 492.707031 84.128906 C 503.996094 75.714844 522.179688 79.089844 523.503906 88.949219 C 528.234375 83.8125 534.347656 79.632812 541.253906 78.574219 C 548.15625 77.519531 555.847656 80.097656 559.648438 85.960938 C 563.445312 91.824219 562.078125 100.847656 556.035156 104.347656 C 560.984375 100.707031 567.078125 98.296875 573.199219 98.804688 C 579.320312 99.3125 585.339844 103.15625 587.363281 108.960938 C 589.386719 114.761719 586.445312 122.152344 580.609375 124.078125 C 585.828125 122.5625 591.660156 125.5625 594.484375 130.207031 C 597.308594 134.851562 597.515625 140.722656 596.234375 146.003906 C 594.953125 151.289062 593.964844 153.210938 591.359375 157.984375 C 586.125 151.660156 575.722656 150.5625 577.3125 159.382812 C 574.71875 147.171875 567.910156 135.824219 558.171875 127.886719 C 556.097656 134.464844 548.792969 138.164062 541.878906 138.722656 C 534.96875 139.28125 528.109375 137.472656 521.207031 136.679688 C 514.308594 135.882812 506.738281 136.3125 501.335938 140.625 C 495.375 145.371094 494.3125 153.429688 493.203125 161.148438 C 494.949219 149.195312 481.492188 151.988281 477.421875 160.574219 Z M 477.421875 160.574219 " fill-opacity="1" fill-rule="nonzero"/></svg>