<svg width="319" height="100" viewBox="0 0 319 100" fill="none" xmlns="http://www.w3.org/2000/svg">
<rect width="319" height="100" rx="20" fill="#EAEAEA"/>
<path d="M55.672 50.1C55.672 49.1387 55.882 48.28 56.302 47.524C56.722 46.7587 57.296 46.166 58.024 45.746C58.752 45.3167 59.564 45.102 60.46 45.102C61.552 45.102 62.4853 45.3633 63.26 45.886C64.044 46.3993 64.6133 47.1273 64.968 48.07H63.82C63.54 47.4073 63.1107 46.8893 62.532 46.516C61.9627 46.1427 61.272 45.956 60.46 45.956C59.7413 45.956 59.0927 46.124 58.514 46.46C57.9447 46.796 57.4967 47.2813 57.17 47.916C56.8433 48.5413 56.68 49.2693 56.68 50.1C56.68 50.9307 56.8433 51.6587 57.17 52.284C57.4967 52.9093 57.9447 53.39 58.514 53.726C59.0927 54.062 59.7413 54.23 60.46 54.23C61.272 54.23 61.9627 54.048 62.532 53.684C63.1107 53.3107 63.54 52.7973 63.82 52.144H64.968C64.6133 53.0773 64.044 53.8007 63.26 54.314C62.476 54.8273 61.5427 55.084 60.46 55.084C59.564 55.084 58.752 54.874 58.024 54.454C57.296 54.0247 56.722 53.432 56.302 52.676C55.882 51.92 55.672 51.0613 55.672 50.1ZM67.9008 44.64V55H66.9208V44.64H67.9008ZM70.61 45.914C70.414 45.914 70.246 45.844 70.106 45.704C69.966 45.564 69.896 45.3913 69.896 45.186C69.896 44.9807 69.966 44.8127 70.106 44.682C70.246 44.542 70.414 44.472 70.61 44.472C70.806 44.472 70.974 44.542 71.114 44.682C71.254 44.8127 71.324 44.9807 71.324 45.186C71.324 45.3913 71.254 45.564 71.114 45.704C70.974 45.844 70.806 45.914 70.61 45.914ZM71.1 47.356V55H70.12V47.356H71.1ZM72.8712 51.178C72.8712 50.3847 73.0299 49.694 73.3472 49.106C73.6646 48.5087 74.1032 48.0513 74.6632 47.734C75.2232 47.4073 75.8626 47.244 76.5812 47.244C77.5239 47.244 78.2986 47.4773 78.9052 47.944C79.5212 48.4107 79.9179 49.0453 80.0952 49.848H79.0452C78.9146 49.2973 78.6299 48.868 78.1912 48.56C77.7619 48.2427 77.2252 48.084 76.5812 48.084C76.0679 48.084 75.6059 48.2007 75.1952 48.434C74.7846 48.6673 74.4579 49.0173 74.2152 49.484C73.9819 49.9413 73.8652 50.506 73.8652 51.178C73.8652 51.85 73.9819 52.4193 74.2152 52.886C74.4579 53.3527 74.7846 53.7027 75.1952 53.936C75.6059 54.1693 76.0679 54.286 76.5812 54.286C77.2252 54.286 77.7619 54.132 78.1912 53.824C78.6299 53.5067 78.9146 53.068 79.0452 52.508H80.0952C79.9179 53.292 79.5212 53.922 78.9052 54.398C78.2892 54.874 77.5146 55.112 76.5812 55.112C75.8626 55.112 75.2232 54.9533 74.6632 54.636C74.1032 54.3093 73.6646 53.852 73.3472 53.264C73.0299 52.6667 72.8712 51.9713 72.8712 51.178ZM86.0352 55L82.8852 51.57V55H81.9052V44.64H82.8852V50.772L85.9652 47.356H87.3372L83.7112 51.164L87.3652 55H86.0352ZM95.8195 55.112C95.1008 55.112 94.4522 54.9533 93.8735 54.636C93.3042 54.3093 92.8515 53.852 92.5155 53.264C92.1888 52.6667 92.0255 51.9713 92.0255 51.178C92.0255 50.3847 92.1935 49.694 92.5295 49.106C92.8655 48.5087 93.3228 48.0513 93.9015 47.734C94.4802 47.4073 95.1288 47.244 95.8475 47.244C96.5662 47.244 97.2148 47.4073 97.7935 47.734C98.3815 48.0513 98.8388 48.5087 99.1655 49.106C99.5015 49.694 99.6695 50.3847 99.6695 51.178C99.6695 51.962 99.5015 52.6527 99.1655 53.25C98.8295 53.8473 98.3675 54.3093 97.7795 54.636C97.1915 54.9533 96.5382 55.112 95.8195 55.112ZM95.8195 54.258C96.3235 54.258 96.7902 54.146 97.2195 53.922C97.6488 53.6887 97.9942 53.3433 98.2555 52.886C98.5262 52.4193 98.6615 51.85 98.6615 51.178C98.6615 50.506 98.5308 49.9413 98.2695 49.484C98.0082 49.0173 97.6628 48.672 97.2335 48.448C96.8042 48.2147 96.3375 48.098 95.8335 48.098C95.3295 48.098 94.8628 48.2147 94.4335 48.448C94.0042 48.672 93.6588 49.0173 93.3975 49.484C93.1455 49.9413 93.0195 50.506 93.0195 51.178C93.0195 51.85 93.1455 52.4193 93.3975 52.886C93.6588 53.3433 93.9995 53.6887 94.4195 53.922C94.8488 54.146 95.3155 54.258 95.8195 54.258ZM102.436 48.714C102.651 48.238 102.977 47.8693 103.416 47.608C103.864 47.3467 104.41 47.216 105.054 47.216V48.238H104.788C104.079 48.238 103.509 48.4293 103.08 48.812C102.651 49.1947 102.436 49.834 102.436 50.73V55H101.456V47.356H102.436V48.714ZM113.268 45.214C114.351 45.214 115.279 45.41 116.054 45.802C116.829 46.194 117.421 46.7587 117.832 47.496C118.243 48.2333 118.448 49.1107 118.448 50.128C118.448 51.136 118.243 52.0087 117.832 52.746C117.421 53.474 116.829 54.034 116.054 54.426C115.279 54.8087 114.351 55 113.268 55H110.37V45.214H113.268ZM113.268 54.188C114.631 54.188 115.667 53.8333 116.376 53.124C117.095 52.4053 117.454 51.4067 117.454 50.128C117.454 48.84 117.095 47.8367 116.376 47.118C115.667 46.39 114.631 46.026 113.268 46.026H111.35V54.188H113.268ZM121.235 48.714C121.449 48.238 121.776 47.8693 122.215 47.608C122.663 47.3467 123.209 47.216 123.853 47.216V48.238H123.587C122.877 48.238 122.308 48.4293 121.879 48.812C121.449 49.1947 121.235 49.834 121.235 50.73V55H120.255V47.356H121.235V48.714ZM124.879 51.164C124.879 50.38 125.033 49.694 125.341 49.106C125.658 48.5087 126.092 48.0513 126.643 47.734C127.203 47.4073 127.833 47.244 128.533 47.244C129.261 47.244 129.886 47.412 130.409 47.748C130.941 48.084 131.324 48.5133 131.557 49.036V47.356H132.537V55H131.557V53.306C131.314 53.8287 130.927 54.2627 130.395 54.608C129.872 54.944 129.247 55.112 128.519 55.112C127.828 55.112 127.203 54.9487 126.643 54.622C126.092 54.2953 125.658 53.8333 125.341 53.236C125.033 52.6387 124.879 51.948 124.879 51.164ZM131.557 51.178C131.557 50.562 131.431 50.0207 131.179 49.554C130.927 49.0873 130.582 48.728 130.143 48.476C129.714 48.224 129.238 48.098 128.715 48.098C128.174 48.098 127.688 48.2193 127.259 48.462C126.83 48.7047 126.489 49.0593 126.237 49.526C125.994 49.9833 125.873 50.5293 125.873 51.164C125.873 51.7893 125.994 52.34 126.237 52.816C126.489 53.2827 126.83 53.642 127.259 53.894C127.688 54.1367 128.174 54.258 128.715 54.258C129.238 54.258 129.714 54.132 130.143 53.88C130.582 53.628 130.927 53.2687 131.179 52.802C131.431 52.3353 131.557 51.794 131.557 51.178ZM137.98 47.244C138.699 47.244 139.324 47.412 139.856 47.748C140.388 48.084 140.771 48.5087 141.004 49.022V47.356H141.984V55.196C141.984 55.896 141.83 56.5167 141.522 57.058C141.224 57.5993 140.804 58.0147 140.262 58.304C139.721 58.6027 139.105 58.752 138.414 58.752C137.434 58.752 136.618 58.5187 135.964 58.052C135.32 57.5853 134.919 56.9507 134.76 56.148H135.726C135.894 56.68 136.212 57.1047 136.678 57.422C137.154 57.7393 137.733 57.898 138.414 57.898C138.909 57.898 139.352 57.7907 139.744 57.576C140.136 57.3707 140.444 57.0627 140.668 56.652C140.892 56.2413 141.004 55.756 141.004 55.196V53.306C140.762 53.8287 140.374 54.2627 139.842 54.608C139.32 54.944 138.699 55.112 137.98 55.112C137.28 55.112 136.65 54.9487 136.09 54.622C135.54 54.2953 135.106 53.8333 134.788 53.236C134.48 52.6387 134.326 51.948 134.326 51.164C134.326 50.38 134.48 49.694 134.788 49.106C135.106 48.5087 135.54 48.0513 136.09 47.734C136.65 47.4073 137.28 47.244 137.98 47.244ZM141.004 51.178C141.004 50.562 140.878 50.0207 140.626 49.554C140.374 49.0873 140.029 48.728 139.59 48.476C139.161 48.224 138.685 48.098 138.162 48.098C137.621 48.098 137.136 48.2193 136.706 48.462C136.277 48.7047 135.936 49.0593 135.684 49.526C135.442 49.9833 135.32 50.5293 135.32 51.164C135.32 51.7893 135.442 52.34 135.684 52.816C135.936 53.2827 136.277 53.642 136.706 53.894C137.136 54.1367 137.621 54.258 138.162 54.258C138.685 54.258 139.161 54.132 139.59 53.88C140.029 53.628 140.374 53.2687 140.626 52.802C140.878 52.3353 141.004 51.794 141.004 51.178ZM149.337 48.182V52.928C149.337 53.3947 149.426 53.7167 149.603 53.894C149.781 54.0713 150.093 54.16 150.541 54.16H151.437V55H150.387C149.697 55 149.183 54.8413 148.847 54.524C148.511 54.1973 148.343 53.6653 148.343 52.928V48.182H147.279V47.356H148.343V45.438H149.337V47.356H151.437V48.182H149.337ZM156.4 55.112C155.681 55.112 155.032 54.9533 154.454 54.636C153.884 54.3093 153.432 53.852 153.096 53.264C152.769 52.6667 152.606 51.9713 152.606 51.178C152.606 50.3847 152.774 49.694 153.11 49.106C153.446 48.5087 153.903 48.0513 154.482 47.734C155.06 47.4073 155.709 47.244 156.428 47.244C157.146 47.244 157.795 47.4073 158.374 47.734C158.962 48.0513 159.419 48.5087 159.746 49.106C160.082 49.694 160.25 50.3847 160.25 51.178C160.25 51.962 160.082 52.6527 159.746 53.25C159.41 53.8473 158.948 54.3093 158.36 54.636C157.772 54.9533 157.118 55.112 156.4 55.112ZM156.4 54.258C156.904 54.258 157.37 54.146 157.8 53.922C158.229 53.6887 158.574 53.3433 158.836 52.886C159.106 52.4193 159.242 51.85 159.242 51.178C159.242 50.506 159.111 49.9413 158.85 49.484C158.588 49.0173 158.243 48.672 157.814 48.448C157.384 48.2147 156.918 48.098 156.414 48.098C155.91 48.098 155.443 48.2147 155.014 48.448C154.584 48.672 154.239 49.0173 153.978 49.484C153.726 49.9413 153.6 50.506 153.6 51.178C153.6 51.85 153.726 52.4193 153.978 52.886C154.239 53.3433 154.58 53.6887 155 53.922C155.429 54.146 155.896 54.258 156.4 54.258ZM172.5 47.356V55H171.52V53.656C171.296 54.132 170.95 54.496 170.484 54.748C170.017 55 169.494 55.126 168.916 55.126C168.001 55.126 167.254 54.846 166.676 54.286C166.097 53.7167 165.808 52.8953 165.808 51.822V47.356H166.774V51.71C166.774 52.5407 166.979 53.1753 167.39 53.614C167.81 54.0527 168.379 54.272 169.098 54.272C169.835 54.272 170.423 54.0387 170.862 53.572C171.3 53.1053 171.52 52.4193 171.52 51.514V47.356H172.5ZM175.703 49.036C175.946 48.5227 176.329 48.098 176.851 47.762C177.383 47.4167 178.013 47.244 178.741 47.244C179.432 47.244 180.053 47.4073 180.603 47.734C181.163 48.0513 181.597 48.5087 181.905 49.106C182.223 49.694 182.381 50.38 182.381 51.164C182.381 51.948 182.223 52.6387 181.905 53.236C181.597 53.8333 181.163 54.2953 180.603 54.622C180.053 54.9487 179.432 55.112 178.741 55.112C178.023 55.112 177.397 54.944 176.865 54.608C176.333 54.2627 175.946 53.8333 175.703 53.32V58.612H174.737V47.356H175.703V49.036ZM181.387 51.164C181.387 50.5293 181.261 49.9833 181.009 49.526C180.767 49.0593 180.431 48.7047 180.001 48.462C179.572 48.2193 179.087 48.098 178.545 48.098C178.023 48.098 177.542 48.224 177.103 48.476C176.674 48.728 176.333 49.0873 176.081 49.554C175.829 50.0207 175.703 50.562 175.703 51.178C175.703 51.794 175.829 52.3353 176.081 52.802C176.333 53.2687 176.674 53.628 177.103 53.88C177.542 54.132 178.023 54.258 178.545 54.258C179.087 54.258 179.572 54.1367 180.001 53.894C180.431 53.642 180.767 53.2827 181.009 52.816C181.261 52.34 181.387 51.7893 181.387 51.164ZM185.164 44.64V55H184.184V44.64H185.164ZM190.73 55.112C190.011 55.112 189.362 54.9533 188.784 54.636C188.214 54.3093 187.762 53.852 187.426 53.264C187.099 52.6667 186.936 51.9713 186.936 51.178C186.936 50.3847 187.104 49.694 187.44 49.106C187.776 48.5087 188.233 48.0513 188.812 47.734C189.39 47.4073 190.039 47.244 190.758 47.244C191.476 47.244 192.125 47.4073 192.704 47.734C193.292 48.0513 193.749 48.5087 194.076 49.106C194.412 49.694 194.58 50.3847 194.58 51.178C194.58 51.962 194.412 52.6527 194.076 53.25C193.74 53.8473 193.278 54.3093 192.69 54.636C192.102 54.9533 191.448 55.112 190.73 55.112ZM190.73 54.258C191.234 54.258 191.7 54.146 192.13 53.922C192.559 53.6887 192.904 53.3433 193.166 52.886C193.436 52.4193 193.572 51.85 193.572 51.178C193.572 50.506 193.441 49.9413 193.18 49.484C192.918 49.0173 192.573 48.672 192.144 48.448C191.714 48.2147 191.248 48.098 190.744 48.098C190.24 48.098 189.773 48.2147 189.344 48.448C188.914 48.672 188.569 49.0173 188.308 49.484C188.056 49.9413 187.93 50.506 187.93 51.178C187.93 51.85 188.056 52.4193 188.308 52.886C188.569 53.3433 188.91 53.6887 189.33 53.922C189.759 54.146 190.226 54.258 190.73 54.258ZM195.918 51.164C195.918 50.38 196.072 49.694 196.38 49.106C196.697 48.5087 197.131 48.0513 197.682 47.734C198.242 47.4073 198.872 47.244 199.572 47.244C200.3 47.244 200.925 47.412 201.448 47.748C201.98 48.084 202.363 48.5133 202.596 49.036V47.356H203.576V55H202.596V53.306C202.353 53.8287 201.966 54.2627 201.434 54.608C200.911 54.944 200.286 55.112 199.558 55.112C198.867 55.112 198.242 54.9487 197.682 54.622C197.131 54.2953 196.697 53.8333 196.38 53.236C196.072 52.6387 195.918 51.948 195.918 51.164ZM202.596 51.178C202.596 50.562 202.47 50.0207 202.218 49.554C201.966 49.0873 201.621 48.728 201.182 48.476C200.753 48.224 200.277 48.098 199.754 48.098C199.213 48.098 198.727 48.2193 198.298 48.462C197.869 48.7047 197.528 49.0593 197.276 49.526C197.033 49.9833 196.912 50.5293 196.912 51.164C196.912 51.7893 197.033 52.34 197.276 52.816C197.528 53.2827 197.869 53.642 198.298 53.894C198.727 54.1367 199.213 54.258 199.754 54.258C200.277 54.258 200.753 54.132 201.182 53.88C201.621 53.628 201.966 53.2687 202.218 52.802C202.47 52.3353 202.596 51.794 202.596 51.178ZM205.365 51.164C205.365 50.38 205.524 49.694 205.841 49.106C206.159 48.5087 206.593 48.0513 207.143 47.734C207.703 47.4073 208.333 47.244 209.033 47.244C209.705 47.244 210.312 47.4073 210.853 47.734C211.395 48.0607 211.791 48.4853 212.043 49.008V44.64H213.023V55H212.043V53.292C211.81 53.824 211.427 54.2627 210.895 54.608C210.363 54.944 209.738 55.112 209.019 55.112C208.319 55.112 207.689 54.9487 207.129 54.622C206.579 54.2953 206.145 53.8333 205.827 53.236C205.519 52.6387 205.365 51.948 205.365 51.164ZM212.043 51.178C212.043 50.562 211.917 50.0207 211.665 49.554C211.413 49.0873 211.068 48.728 210.629 48.476C210.2 48.224 209.724 48.098 209.201 48.098C208.66 48.098 208.175 48.2193 207.745 48.462C207.316 48.7047 206.975 49.0593 206.723 49.526C206.481 49.9833 206.359 50.5293 206.359 51.164C206.359 51.7893 206.481 52.34 206.723 52.816C206.975 53.2827 207.316 53.642 207.745 53.894C208.175 54.1367 208.66 54.258 209.201 54.258C209.724 54.258 210.2 54.132 210.629 53.88C211.068 53.628 211.413 53.2687 211.665 52.802C211.917 52.3353 212.043 51.794 212.043 51.178ZM219.592 45.914C219.396 45.914 219.228 45.844 219.088 45.704C218.948 45.564 218.878 45.3913 218.878 45.186C218.878 44.9807 218.948 44.8127 219.088 44.682C219.228 44.542 219.396 44.472 219.592 44.472C219.788 44.472 219.956 44.542 220.096 44.682C220.236 44.8127 220.306 44.9807 220.306 45.186C220.306 45.3913 220.236 45.564 220.096 45.704C219.956 45.844 219.788 45.914 219.592 45.914ZM220.082 47.356V55H219.102V47.356H220.082ZM231.402 47.216C232.298 47.216 233.026 47.5007 233.586 48.07C234.155 48.63 234.44 49.4467 234.44 50.52V55H233.474V50.632C233.474 49.8013 233.273 49.1667 232.872 48.728C232.47 48.2893 231.924 48.07 231.234 48.07C230.515 48.07 229.941 48.308 229.512 48.784C229.082 49.26 228.868 49.9507 228.868 50.856V55H227.902V50.632C227.902 49.8013 227.701 49.1667 227.3 48.728C226.898 48.2893 226.348 48.07 225.648 48.07C224.929 48.07 224.355 48.308 223.926 48.784C223.496 49.26 223.282 49.9507 223.282 50.856V55H222.302V47.356H223.282V48.672C223.524 48.196 223.87 47.8367 224.318 47.594C224.766 47.342 225.265 47.216 225.816 47.216C226.478 47.216 227.057 47.3747 227.552 47.692C228.056 48.0093 228.42 48.476 228.644 49.092C228.849 48.4853 229.199 48.0233 229.694 47.706C230.198 47.3793 230.767 47.216 231.402 47.216ZM236.168 51.164C236.168 50.38 236.322 49.694 236.63 49.106C236.947 48.5087 237.381 48.0513 237.932 47.734C238.492 47.4073 239.122 47.244 239.822 47.244C240.55 47.244 241.175 47.412 241.698 47.748C242.23 48.084 242.613 48.5133 242.846 49.036V47.356H243.826V55H242.846V53.306C242.603 53.8287 242.216 54.2627 241.684 54.608C241.161 54.944 240.536 55.112 239.808 55.112C239.117 55.112 238.492 54.9487 237.932 54.622C237.381 54.2953 236.947 53.8333 236.63 53.236C236.322 52.6387 236.168 51.948 236.168 51.164ZM242.846 51.178C242.846 50.562 242.72 50.0207 242.468 49.554C242.216 49.0873 241.871 48.728 241.432 48.476C241.003 48.224 240.527 48.098 240.004 48.098C239.463 48.098 238.977 48.2193 238.548 48.462C238.119 48.7047 237.778 49.0593 237.526 49.526C237.283 49.9833 237.162 50.5293 237.162 51.164C237.162 51.7893 237.283 52.34 237.526 52.816C237.778 53.2827 238.119 53.642 238.548 53.894C238.977 54.1367 239.463 54.258 240.004 54.258C240.527 54.258 241.003 54.132 241.432 53.88C241.871 53.628 242.216 53.2687 242.468 52.802C242.72 52.3353 242.846 51.794 242.846 51.178ZM249.269 47.244C249.988 47.244 250.613 47.412 251.145 47.748C251.677 48.084 252.06 48.5087 252.293 49.022V47.356H253.273V55.196C253.273 55.896 253.119 56.5167 252.811 57.058C252.513 57.5993 252.093 58.0147 251.551 58.304C251.01 58.6027 250.394 58.752 249.703 58.752C248.723 58.752 247.907 58.5187 247.253 58.052C246.609 57.5853 246.208 56.9507 246.049 56.148H247.015C247.183 56.68 247.501 57.1047 247.967 57.422C248.443 57.7393 249.022 57.898 249.703 57.898C250.198 57.898 250.641 57.7907 251.033 57.576C251.425 57.3707 251.733 57.0627 251.957 56.652C252.181 56.2413 252.293 55.756 252.293 55.196V53.306C252.051 53.8287 251.663 54.2627 251.131 54.608C250.609 54.944 249.988 55.112 249.269 55.112C248.569 55.112 247.939 54.9487 247.379 54.622C246.829 54.2953 246.395 53.8333 246.077 53.236C245.769 52.6387 245.615 51.948 245.615 51.164C245.615 50.38 245.769 49.694 246.077 49.106C246.395 48.5087 246.829 48.0513 247.379 47.734C247.939 47.4073 248.569 47.244 249.269 47.244ZM252.293 51.178C252.293 50.562 252.167 50.0207 251.915 49.554C251.663 49.0873 251.318 48.728 250.879 48.476C250.45 48.224 249.974 48.098 249.451 48.098C248.91 48.098 248.425 48.2193 247.995 48.462C247.566 48.7047 247.225 49.0593 246.973 49.526C246.731 49.9833 246.609 50.5293 246.609 51.164C246.609 51.7893 246.731 52.34 246.973 52.816C247.225 53.2827 247.566 53.642 247.995 53.894C248.425 54.1367 248.91 54.258 249.451 54.258C249.974 54.258 250.45 54.132 250.879 53.88C251.318 53.628 251.663 53.2687 251.915 52.802C252.167 52.3353 252.293 51.794 252.293 51.178ZM262.427 50.786C262.427 51.122 262.417 51.3787 262.399 51.556H256.057C256.085 52.1347 256.225 52.6293 256.477 53.04C256.729 53.4507 257.06 53.7633 257.471 53.978C257.881 54.1833 258.329 54.286 258.815 54.286C259.449 54.286 259.981 54.132 260.411 53.824C260.849 53.516 261.139 53.1007 261.279 52.578H262.315C262.128 53.3247 261.727 53.936 261.111 54.412C260.504 54.8787 259.739 55.112 258.815 55.112C258.096 55.112 257.452 54.9533 256.883 54.636C256.313 54.3093 255.865 53.852 255.539 53.264C255.221 52.6667 255.063 51.9713 255.063 51.178C255.063 50.3847 255.221 49.6893 255.539 49.092C255.856 48.4947 256.299 48.0373 256.869 47.72C257.438 47.4027 258.087 47.244 258.815 47.244C259.543 47.244 260.177 47.4027 260.719 47.72C261.269 48.0373 261.689 48.4667 261.979 49.008C262.277 49.54 262.427 50.1327 262.427 50.786ZM261.433 50.758C261.442 50.1887 261.325 49.7033 261.083 49.302C260.849 48.9007 260.527 48.5973 260.117 48.392C259.706 48.1867 259.258 48.084 258.773 48.084C258.045 48.084 257.424 48.3173 256.911 48.784C256.397 49.2507 256.113 49.9087 256.057 50.758H261.433Z" fill="#545454"/>
<path d="M122.96 78.86C122.333 78.24 121.84 77.4467 121.48 76.48C121.12 75.5067 120.94 74.45 120.94 73.31C120.94 72.1567 121.127 71.0867 121.5 70.1C121.873 69.1133 122.397 68.3 123.07 67.66H123.8V67.73C123.087 68.43 122.543 69.2667 122.17 70.24C121.803 71.2133 121.62 72.2367 121.62 73.31C121.62 74.37 121.797 75.3733 122.15 76.32C122.503 77.2667 123.02 78.09 123.7 78.79V78.86H122.96ZM128.229 70.01V75.3C128.229 75.8333 128.066 76.2633 127.739 76.59C127.413 76.91 126.976 77.07 126.429 77.07C125.863 77.07 125.409 76.9 125.069 76.56C124.736 76.2133 124.569 75.7467 124.569 75.16H125.279C125.286 75.54 125.379 75.85 125.559 76.09C125.746 76.33 126.036 76.45 126.429 76.45C126.803 76.45 127.079 76.34 127.259 76.12C127.439 75.9 127.529 75.6267 127.529 75.3V70.01H128.229ZM134.459 72.02C134.459 72.62 134.263 73.1033 133.869 73.47C133.476 73.8367 132.886 74.02 132.099 74.02H130.689V77H129.989V70.01H132.099C132.879 70.01 133.466 70.1933 133.859 70.56C134.259 70.9267 134.459 71.4133 134.459 72.02ZM132.099 73.42C133.193 73.42 133.739 72.9533 133.739 72.02C133.739 71.5533 133.609 71.2 133.349 70.96C133.089 70.72 132.673 70.6 132.099 70.6H130.689V73.42H132.099ZM141.134 72.05C140.934 71.59 140.627 71.23 140.214 70.97C139.807 70.7033 139.327 70.57 138.774 70.57C138.254 70.57 137.787 70.69 137.374 70.93C136.961 71.17 136.634 71.5133 136.394 71.96C136.154 72.4 136.034 72.9133 136.034 73.5C136.034 74.0867 136.154 74.6033 136.394 75.05C136.634 75.4967 136.961 75.84 137.374 76.08C137.787 76.32 138.254 76.44 138.774 76.44C139.261 76.44 139.697 76.3367 140.084 76.13C140.477 75.9167 140.791 75.6167 141.024 75.23C141.264 74.8367 141.401 74.38 141.434 73.86H138.494V73.29H142.174V73.8C142.141 74.4133 141.974 74.97 141.674 75.47C141.374 75.9633 140.971 76.3533 140.464 76.64C139.964 76.9267 139.401 77.07 138.774 77.07C138.127 77.07 137.541 76.92 137.014 76.62C136.487 76.3133 136.071 75.89 135.764 75.35C135.464 74.8033 135.314 74.1867 135.314 73.5C135.314 72.8133 135.464 72.2 135.764 71.66C136.071 71.1133 136.487 70.69 137.014 70.39C137.541 70.0833 138.127 69.93 138.774 69.93C139.521 69.93 140.174 70.1167 140.734 70.49C141.294 70.8633 141.701 71.3833 141.954 72.05H141.134ZM144.096 75.84L143.056 78.46H142.576L143.316 75.84H144.096ZM152.399 72.02C152.399 72.62 152.202 73.1033 151.809 73.47C151.416 73.8367 150.826 74.02 150.039 74.02H148.629V77H147.929V70.01H150.039C150.819 70.01 151.406 70.1933 151.799 70.56C152.199 70.9267 152.399 71.4133 152.399 72.02ZM150.039 73.42C151.132 73.42 151.679 72.9533 151.679 72.02C151.679 71.5533 151.549 71.2 151.289 70.96C151.029 70.72 150.612 70.6 150.039 70.6H148.629V73.42H150.039ZM158.843 77H158.143L154.273 71.12V77H153.573V70.01H154.273L158.143 75.88V70.01H158.843V77ZM165.929 72.05C165.729 71.59 165.422 71.23 165.009 70.97C164.602 70.7033 164.122 70.57 163.569 70.57C163.049 70.57 162.582 70.69 162.169 70.93C161.756 71.17 161.429 71.5133 161.189 71.96C160.949 72.4 160.829 72.9133 160.829 73.5C160.829 74.0867 160.949 74.6033 161.189 75.05C161.429 75.4967 161.756 75.84 162.169 76.08C162.582 76.32 163.049 76.44 163.569 76.44C164.056 76.44 164.492 76.3367 164.879 76.13C165.272 75.9167 165.586 75.6167 165.819 75.23C166.059 74.8367 166.196 74.38 166.229 73.86H163.289V73.29H166.969V73.8C166.936 74.4133 166.769 74.97 166.469 75.47C166.169 75.9633 165.766 76.3533 165.259 76.64C164.759 76.9267 164.196 77.07 163.569 77.07C162.922 77.07 162.336 76.92 161.809 76.62C161.282 76.3133 160.866 75.89 160.559 75.35C160.259 74.8033 160.109 74.1867 160.109 73.5C160.109 72.8133 160.259 72.2 160.559 71.66C160.866 71.1133 161.282 70.69 161.809 70.39C162.336 70.0833 162.922 69.93 163.569 69.93C164.316 69.93 164.969 70.1167 165.529 70.49C166.089 70.8633 166.496 71.3833 166.749 72.05H165.929ZM168.891 75.84L167.851 78.46H167.371L168.111 75.84H168.891ZM175.954 70.01V75.3C175.954 75.8333 175.79 76.2633 175.464 76.59C175.137 76.91 174.7 77.07 174.154 77.07C173.587 77.07 173.134 76.9 172.794 76.56C172.46 76.2133 172.294 75.7467 172.294 75.16H173.004C173.01 75.54 173.104 75.85 173.284 76.09C173.47 76.33 173.76 76.45 174.154 76.45C174.527 76.45 174.804 76.34 174.984 76.12C175.164 75.9 175.254 75.6267 175.254 75.3V70.01H175.954ZM182.184 72.02C182.184 72.62 181.987 73.1033 181.594 73.47C181.201 73.8367 180.611 74.02 179.824 74.02H178.414V77H177.714V70.01H179.824C180.604 70.01 181.191 70.1933 181.584 70.56C181.984 70.9267 182.184 71.4133 182.184 72.02ZM179.824 73.42C180.917 73.42 181.464 72.9533 181.464 72.02C181.464 71.5533 181.334 71.2 181.074 70.96C180.814 70.72 180.397 70.6 179.824 70.6H178.414V73.42H179.824ZM184.059 70.58V73.19H186.709V73.77H184.059V76.42H187.009V77H183.359V70H187.009V70.58H184.059ZM193.888 72.05C193.688 71.59 193.381 71.23 192.968 70.97C192.561 70.7033 192.081 70.57 191.528 70.57C191.008 70.57 190.541 70.69 190.128 70.93C189.715 71.17 189.388 71.5133 189.148 71.96C188.908 72.4 188.788 72.9133 188.788 73.5C188.788 74.0867 188.908 74.6033 189.148 75.05C189.388 75.4967 189.715 75.84 190.128 76.08C190.541 76.32 191.008 76.44 191.528 76.44C192.015 76.44 192.451 76.3367 192.838 76.13C193.231 75.9167 193.545 75.6167 193.778 75.23C194.018 74.8367 194.155 74.38 194.188 73.86H191.248V73.29H194.928V73.8C194.895 74.4133 194.728 74.97 194.428 75.47C194.128 75.9633 193.725 76.3533 193.218 76.64C192.718 76.9267 192.155 77.07 191.528 77.07C190.881 77.07 190.295 76.92 189.768 76.62C189.241 76.3133 188.825 75.89 188.518 75.35C188.218 74.8033 188.068 74.1867 188.068 73.5C188.068 72.8133 188.218 72.2 188.518 71.66C188.825 71.1133 189.241 70.69 189.768 70.39C190.295 70.0833 190.881 69.93 191.528 69.93C192.275 69.93 192.928 70.1167 193.488 70.49C194.048 70.8633 194.455 71.3833 194.708 72.05H193.888ZM195.91 78.86V78.79C196.59 78.09 197.107 77.2667 197.46 76.32C197.813 75.3733 197.99 74.37 197.99 73.31C197.99 72.2367 197.803 71.2133 197.43 70.24C197.063 69.2667 196.523 68.43 195.81 67.73V67.66H196.54C197.213 68.3 197.737 69.1133 198.11 70.1C198.483 71.0867 198.67 72.1567 198.67 73.31C198.67 74.45 198.49 75.5067 198.13 76.48C197.77 77.4467 197.277 78.24 196.65 78.86H195.91Z" fill="#545454"/>
<path opacity="0.4" d="M154.5 28C152.98 28 151.683 27.4767 150.61 26.43C149.537 25.3767 149 24.0933 149 22.58C149 21.28 149.39 20.12 150.17 19.1C150.957 18.08 151.983 17.43 153.25 17.15C153.67 15.6167 154.503 14.3767 155.75 13.43C157.003 12.4767 158.42 12 160 12C161.953 12 163.607 12.68 164.96 14.04C166.32 15.3933 167 17.0467 167 19C168.153 19.1333 169.107 19.6333 169.86 20.5C170.62 21.3533 171 22.3533 171 23.5C171 24.7533 170.563 25.8167 169.69 26.69C168.817 27.5633 167.753 28 166.5 28H161C160.453 28 159.983 27.8033 159.59 27.41C159.197 27.0233 159 26.5533 159 26V20.85L157.4 22.4L156 21L160 17L164 21L162.6 22.4L161 20.85V26H166.5C167.2 26 167.79 25.7567 168.27 25.27C168.757 24.79 169 24.2 169 23.5C169 22.8 168.757 22.21 168.27 21.73C167.79 21.2433 167.2 21 166.5 21H165V19C165 17.62 164.513 16.44 163.54 15.46C162.567 14.4867 161.387 14 160 14C158.62 14 157.44 14.4867 156.46 15.46C155.487 16.44 155 17.62 155 19H154.5C153.533 19 152.71 19.3433 152.03 20.03C151.343 20.71 151 21.5333 151 22.5C151 23.4667 151.343 24.3 152.03 25C152.71 25.6667 153.533 26 154.5 26H157V28" fill="black"/>
</svg>
