<svg width="42" height="42" viewBox="0 0 42 42" fill="none" xmlns="http://www.w3.org/2000/svg">
<path d="M31.25 20.8333V2.08333C31.25 1.5308 31.0305 1.00089 30.6398 0.610194C30.2491 0.219493 29.7192 0 29.1667 0H2.08333C1.5308 0 1.00089 0.219493 0.610194 0.610194C0.219493 1.00089 0 1.5308 0 2.08333V31.25L8.33333 22.9167H29.1667C29.7192 22.9167 30.2491 22.6972 30.6398 22.3065C31.0305 21.9158 31.25 21.3859 31.25 20.8333ZM39.5833 8.33333H35.4167V27.0833H8.33333V31.25C8.33333 31.8025 8.55283 32.3324 8.94353 32.7231C9.33423 33.1138 9.86413 33.3333 10.4167 33.3333H33.3333L41.6667 41.6667V10.4167C41.6667 9.86413 41.4472 9.33423 41.0565 8.94353C40.6658 8.55283 40.1359 8.33333 39.5833 8.33333Z" fill="white"/>
</svg>
